<?xml version="1.0" standalone="no"?>
<!DOCTYPE svg PUBLIC "-//W3C//DTD SVG 1.1//EN" "http://www.w3.org/Graphics/SVG/1.1/DTD/svg11.dtd">
<svg width="336" height="223" version="1.1" viewBox="0 0 336 223" xmlns="http://www.w3.org/2000/svg">
<!-- @3= segment [AB] -->
<path style="stroke:black;fill:none;" d="M67 45 C67 45 83.89 44.01 89.88 44.38 C94.46 44.25 108.18 45.47 112.75 45.75 C117.33 46.03 131.05 47.45 135.63 47.13 C140.2 47.4 153.92 45.22 158.5 45.5 C163.07 45.18 176.8 46.6 181.38 46.88 C185.95 47.15 199.67 48.38 204.25 48.25 C208.82 48.52 222.55 47.75 227.13 47.63 M227.13 47.63 C231.7 47.5 245.43 47.13 250 47 "/>
<!-- @5= segment [BC] -->
<path style="stroke:black;fill:none;" d="M250 48 C250 48 251.28 63.61 251 69.6 C251.2 73.92 250.2 86.88 250 91.2 C249.8 95.52 248.6 108.49 249 112.8 C248.8 117.13 251.2 130.07 251 134.4 M251 134.4 C251.4 138.71 250.2 151.68 250 156 "/>
<!-- @7= segment [CD] -->
<path style="stroke:black;fill:none;" d="M250 156 C250 156 233.11 156.99 227.13 156.63 C222.54 156.75 208.83 155.53 204.25 155.25 C199.68 154.98 185.95 153.55 181.38 153.88 C176.8 153.6 163.08 155.78 158.5 155.5 C153.93 155.82 140.2 154.4 135.63 154.13 C131.05 153.85 117.33 152.62 112.75 152.75 C108.18 152.48 94.45 153.25 89.88 153.38 M89.88 153.38 C85.3 153.5 71.57 153.88 67 154 "/>
<!-- @8= segment [AD] -->
<path style="stroke:black;fill:none;" d="M67 45 C67 45 68.28 60.61 68 66.6 C68.2 70.92 67.2 83.88 67 88.2 C66.8 92.52 65.6 105.49 66 109.8 C65.8 114.13 68.2 127.07 68 131.4 M68 131.4 C68.4 135.71 67.2 148.68 67 153 "/>
<circle id="Point_A" cx="67" cy="45" r="2" style="stroke:black;"/>
<text style="stroke:black;" font-size="12" x="53" y="45">A</text>
<circle id="Point_B" cx="250" cy="48" r="2" style="stroke:black;"/>
<text style="stroke:black;" font-size="12" x="250" y="48">B</text>
<circle id="Point_C" cx="250" cy="156" r="2" style="stroke:black;"/>
<text style="stroke:black;" font-size="12" x="250" y="170">C</text>
<circle id="Point_D" cx="67" cy="153" r="2" style="stroke:black;"/>
<text style="stroke:black;" font-size="12" x="53" y="167">D</text>
</svg>