<svg class="i i-clover" width="8em" height="8em" viewBox="0 0 24 24" xmlns="http://www.w3.org/2000/svg" fill="none" stroke="currentColor" stroke-width="2" stroke-linecap="round" stroke-linejoin="round">
  <path d="M17 7a1 1 0 0 0-5-5 1 1 0 0 0-5 5l10 10a1 1 0 0 1-5 5 1 1 0 0 1-5-5ZM7 17a1 1 0 0 1-5-5 1 1 0 0 1 5-5l10 10a1 1 0 0 0 5-5 1 1 0 0 0-5-5Z"/>
  <path d="M12 0V24M0 12H24M0 0L24 24M0 24L24 0" fill="none" stroke="red" stroke-width="0.6" stroke-dasharray="4 1" stroke-linecap="butt" class="correction"/>
</svg>