<svg class="i i-gear" width="8em" height="8em" viewBox="0 0 24 24" xmlns="http://www.w3.org/2000/svg" fill="none" stroke="currentColor" stroke-width="2" stroke-linecap="round" stroke-linejoin="round">
  <circle cx="12" cy="12" r="3"/>
  <path d="M10 21a1 1 0 0 0 4 0 1.8 1.8 0 0 1 3-1.3 1 1 0 0 0 2.8-2.7 1.8 1.8 0 0 1 1.2-3 1 1 0 0 0 0-4 1.8 1.8 0 0 1-1.2-3A1 1 0 0 0 17 4.4 1.8 1.8 0 0 1 14 3a1 1 0 0 0-4 0 1.8 1.8 0 0 1-3 1.4A1 1 0 0 0 4.2 7 1.8 1.8 0 0 1 3 10a1 1 0 0 0 0 4 1.8 1.8 0 0 1 1.2 3A1 1 0 0 0 7 19.7a1.8 1.8 0 0 1 3 1.3Z"/>
  <path d="M12 0V24M0 12H24M0 0L24 24M0 24L24 0M0 7L24 17M0 17L24 7M7 0L17 24M17 0L7 24" fill="none" stroke="red" stroke-width="0.6" stroke-dasharray="4 1" stroke-linecap="butt" class="correction"/>
  <g transform="translate(0.04918,0.114754)" style="fill:none;stroke:#00ff00;stroke-width:1;stroke-dasharray:none" class="correction">
    <path d="m 10.360656,10.42623 3.180328,2.918032" />
    <path d="m 13.540984,10.42623 -3.180328,2.918032" />
  </g>
</svg>