<svg width="15em" height="9em" viewBox="0 0 79.375 47.625" xmlns="http://www.w3.org/2000/svg"><path d="M65.742 18.083c-.279 0-56.458-9.43-56.458-9.43l35.272 28.933" fill="none" stroke="#000" stroke-width=".529" stroke-linecap="round" stroke-linejoin="round"/><path d="M28.958 24.808l11.896-10.77M44.556 37.586l21.3-19.315" fill="none" stroke="#000" stroke-width=".529" stroke-linecap="round"/><path class='longueur' d="M11.691 4.929c43.356-1.29 54.56 9.6 54.56 9.6" fill="none" stroke="#999" stroke-width=".265"/><path class='longueur' d="M6.16 13.669c11.234 19.514 32.267 25.99 32.267 25.99" fill="none" stroke="#999" stroke-width=".265"/><text style="line-height:1.25;" x="7.852" y="6.734" font-size="4.233" font-family="Arial" letter-spacing="0" word-spacing="0" stroke-width=".265"><tspan x="7.852" y="6.734">${:A}</tspan></text><text style="line-height:1.25;" x="40.146" y="12.007" font-size="4.233" font-family="Arial" letter-spacing="0" word-spacing="0" stroke-width=".265"><tspan x="40.146" y="12.007">${:M}</tspan></text><text style="line-height:1.25;" x="24.701" y="28.627" font-size="4.233" font-family="Arial" letter-spacing="0" word-spacing="0" stroke-width=".265"><tspan x="24.701" y="28.627">${:N}</tspan></text><text style="line-height:1.25;" x="67.34" y="17.394" font-size="4.233" font-family="Arial" letter-spacing="0" word-spacing="0" stroke-width=".265"><tspan x="67.34" y="17.394">${:B}</tspan></text><text style="line-height:1.25;" x="42.496" y="42.095" font-size="4.233" font-family="Arial" letter-spacing="0" word-spacing="0" stroke-width=".265"><tspan x="42.496" y="42.095">${:C}</tspan></text><text style="line-height:1.25;" x="23.182" y="9.628" font-size="4.233" font-family="Arial" letter-spacing="0" word-spacing="0" stroke-width=".265"><tspan x="23.182" y="9.628">${:AM}</tspan></text><text style="line-height:1.25;" x="41.808" y="5.645" font-size="4.233" font-family="Arial" letter-spacing="0" word-spacing="0" stroke-width=".265"><tspan x="41.808" y="5.645">${:AB}</tspan></text><text style="line-height:1.25;" x="13.554" y="21.491" font-size="4.233" font-family="Arial" letter-spacing="0" word-spacing="0" stroke-width=".265"><tspan x="13.554" y="21.491">${:AN}</tspan></text><text style="line-height:1.25;" x="13.497" y="33.584" font-size="4.233" font-family="Arial" letter-spacing="0" word-spacing="0" stroke-width=".265"><tspan x="13.497" y="33.584">${:AC}</tspan></text><text style="line-height:1.25;" x="35.876" y="22.695" font-size="4.233" font-family="Arial" letter-spacing="0" word-spacing="0" stroke-width=".265"><tspan x="35.876" y="22.695">${:MN}</tspan></text><text style="line-height:1.25;" x="56.852" y="31.234" font-size="4.233" font-family="Arial" letter-spacing="0" word-spacing="0" stroke-width=".265"><tspan x="56.852" y="31.234">${:BC}</tspan></text></svg>