<svg width="160" height="160" viewBox="0 0 42.333 42.333" xmlns="http://www.w3.org/2000/svg"><g stroke-width=".265"><path d="M14.64 28.418a2.6 2.6 0 01-1.94-.568l1.642-2.015z" fill="#7f2aff" stroke="#7f2aff" stroke-linecap="round" stroke-linejoin="round"/><path d="M16.032 23.707a2.6 2.6 0 01.876 2.765 2.6 2.6 0 01-2.23 1.855l-.265-2.586z" fill="#0f0" stroke="#0f0" stroke-linecap="round" stroke-linejoin="round"/><path d="M12.465 27.642a2.6 2.6 0 01-.72-2.788 2.6 2.6 0 012.291-1.743l.165 2.595z" fill="#f06" stroke="#f06" stroke-linecap="round" stroke-linejoin="round"/><path d="M14.156 22.941a2.6 2.6 0 011.958.621l-1.701 1.967z" fill="#ff7f2a" stroke="#ff7f2a" stroke-linecap="round" stroke-linejoin="round"/><path d="M29.208 11.513a2.6 2.6 0 01-1.534 2.258 2.6 2.6 0 01-2.706-.358l1.643-2.015z" fill="#00aad4" stroke="#00aad4" stroke-linecap="round" stroke-linejoin="round"/><path d="M24.77 13.287a2.6 2.6 0 01-.864-2.017l2.599.08z" fill="#3737c8" stroke="#3737c8" stroke-linecap="round" stroke-linejoin="round"/><path d="M28.301 9.27a2.6 2.6 0 01.98 2.123l-2.6-.09z" fill="#0f0" stroke="#0f0" stroke-linecap="round" stroke-linejoin="round"/><path d="M23.896 11.076a2.6 2.6 0 011.577-2.258 2.6 2.6 0 012.72.425l-1.7 1.966z" fill="#ff7f2a" stroke="#ff7f2a" stroke-linecap="round" stroke-linejoin="round"/><path d="M12.647 7.961a2.6 2.6 0 012.028.695 2.6 2.6 0 01.816 1.983l-2.598-.09z" fill="#93ac93" stroke="#93ac93" stroke-linecap="round" stroke-linejoin="round"/><path d="M10.213 10.416a2.6 2.6 0 012.327-2.453l.27 2.586z" fill="#c87137" stroke="#c87137" stroke-linecap="round" stroke-linejoin="round"/><path d="M13.014 13.214a2.6 2.6 0 01-1.983-.72 2.6 2.6 0 01-.796-1.955l2.599.081z" fill="#95f" stroke="#95f" stroke-linecap="round" stroke-linejoin="round"/><path d="M15.484 10.783a2.6 2.6 0 01-2.313 2.375l-.278-2.585z" fill="#00f" stroke="#00f" stroke-linecap="round" stroke-linejoin="round"/><path d="M2.933 10.034L39.601 12M11.967 1.667l3.633 36.6M34.368 2.067l-29.001 34.2" fill="none" stroke="#000"/><g font-family="Arial" text-anchor="middle" font-size="3.44"><text x="14.667" y="9.5">${:A}</text><text x="25.467" y="10.334">${:B}</text><text x="16.6" y="27.834">${:C}</text><text x="14.067" y="4.267">${:x}</text><text x="16.346" y="38.268">${:x1}</text><text style="text-align:end" x="32.318" y="3.4" text-anchor="end">${:y1}</text><text style="text-align:end" x="6.347" y="34.534" text-anchor="end">${:y}</text><text x="38.068" y="14.567">${:z1}</text><text x="4.067" y="12.867">${:z}</text></g></svg>