<svg width="15em" height="9em" viewBox="0 0 79.35 47.7" xmlns="http://www.w3.org/2000/svg"><g font-family="Arial" font-size="4.23" letter-spacing="0" stroke-width=".133" word-spacing="0"><text x="40.484" y="22.161" style="line-height:1.25" transform="matrix(1.99543 0 0 1.99543 -13.38 -.325)"><tspan x="40.484" y="22.161">${:A}</tspan></text><text x="8.922" y="5.084" style="line-height:1.25" transform="matrix(1.99543 0 0 1.99543 -13.38 -.325)"><tspan x="8.922" y="5.084">${:B}</tspan></text><text x="39.908" y="5.142" style="line-height:1.25" transform="matrix(1.99543 0 0 1.99543 -13.38 -.325)"><tspan x="39.908" y="5.142">${:C}</tspan></text></g><path d="M65.839 39.204V11.07H11.563z" stroke-width=".53" fill="none" stroke="#000" stroke-linejoin="round"/><path d="M22.715 11.09c.114 3.437-1.565 4.85-1.565 4.85M65.858 33.12c-3.513-.152-5.116 3.246-5.116 3.246" fill="none" stroke="#000" stroke-width=".53"/><text style="line-height:1.25;-inkscape-font-specification:Arial" x="25.884" y="17.734" font-size="8.461" font-family="Arial" letter-spacing="0" word-spacing="0" stroke-width=".265"><tspan x="25.884" y="17.734">${:mi}°</tspan></text><text style="line-height:1.25;-inkscape-font-specification:Arial" x="50.891" y="31.211" font-size="8.461" font-family="Arial" letter-spacing="0" word-spacing="0" stroke-width=".265"><tspan x="50.891" y="31.211">${:ma}°</tspan></text></svg>