<svg width="15em" height="9em" viewBox="0 0 79.35 47.7" xmlns="http://www.w3.org/2000/svg"><g font-family="Arial" font-size="4.23" letter-spacing="0" stroke-width=".143" word-spacing="0"><text x="42.153" y="20.415" style="line-height:1.25" transform="matrix(1.85335 0 0 1.85335 -9.11 1.122)"><tspan x="42.153" y="20.415">${:A}</tspan></text><text x="7.54" y="21.431" style="line-height:1.25" transform="matrix(1.85335 0 0 1.85335 -9.11 1.122)"><tspan x="7.54" y="21.431">${:B}</tspan></text><text x="14.697" y="5.027" style="line-height:1.25" transform="matrix(1.85335 0 0 1.85335 -9.11 1.122)"><tspan x="14.697" y="5.027">${:C}</tspan></text></g><path d="M11.08 35.63l12.048-23.18 44.714 23.24z" stroke-width=".53" fill="none" stroke="#000" stroke-linejoin="round"/><path d="M16.188 35.555c-.036-4.043-2.766-4.326-2.766-4.326M58.848 35.661c-.178-2.695.993-4.149.993-4.149" fill="none" stroke="#000" stroke-width=".53"/><text style="line-height:1.25;-inkscape-font-specification:Arial" x="42.996" y="34.668" font-size="7.858" font-family="Arial" letter-spacing="0" word-spacing="0" stroke-width=".265"><tspan x="42.996" y="34.668">${:mi}°</tspan></text><text style="line-height:1.25;-inkscape-font-specification:Arial" x="16.755" y="33.002" font-size="7.858" font-family="Arial" letter-spacing="0" word-spacing="0" stroke-width=".265"><tspan x="16.755" y="33.002">${:ma}°</tspan></text></svg>