<svg width="15em" height="9em" viewBox="0 0 79.35 47.7" xmlns="http://www.w3.org/2000/svg"><g font-family="Arial" font-size="4.23" letter-spacing="0" stroke-width=".139" word-spacing="0"><text x="41.366" y="6.025" style="line-height:1.25" transform="matrix(1.90127 0 0 1.90127 -11.389 -1.31)"><tspan x="41.366" y="6.025">${:A}</tspan></text><text x="9.728" y="23.504" style="line-height:1.25" transform="matrix(1.90127 0 0 1.90127 -11.389 -1.31)"><tspan x="9.728" y="23.504">${:B}</tspan></text><text x="9.114" y="5.487" style="line-height:1.25" transform="matrix(1.90127 0 0 1.90127 -11.389 -1.31)"><tspan x="9.114" y="5.487">${:C}</tspan></text></g><path d="M12.758 36.355V9.547h51.714z" stroke-width=".53" fill="none" stroke="#000" stroke-linecap="round" stroke-linejoin="round"/><path d="M55.707 14.152c-1.71-3.129-1.274-4.657-1.274-4.657M12.78 31.577c3.238-.11 4.22 2.328 4.22 2.328" fill="none" stroke="#000" stroke-width=".53"/><text style="line-height:1.25;-inkscape-font-specification:Arial" x="13.217" y="29.43" font-size="8.061" font-family="Arial" letter-spacing="0" word-spacing="0" stroke-width=".265"><tspan x="13.217" y="29.43">${:ma}°</tspan></text><text style="line-height:1.25;-inkscape-font-specification:Arial" x="40.064" y="15.825" font-size="8.061" font-family="Arial" letter-spacing="0" word-spacing="0" stroke-width=".265"><tspan x="40.064" y="15.825">${:mi}°</tspan></text></svg>