<svg width="10em" height="10em" viewBox="0 0 95.25 95.25" xmlns="http://www.w3.org/2000/svg"><path d="M2.71 47.776A45.232 45.232 0 0147.793 2.498a45.232 45.232 0 0145.383 44.975 45.232 45.232 0 01-44.87 45.488A45.232 45.232 0 012.714 48.198" fill="#fff" stroke="#000" stroke-width=".4" stroke-linecap="round" stroke-linejoin="round"/><path d="M4.567 47.774a43.376 43.376 0 0143.231-43.42 43.376 43.376 0 0143.52 43.13 43.376 43.376 0 01-43.027 43.62A43.376 43.376 0 014.569 48.18" fill="red"/><path d="M17.985 47.76a29.959 29.959 0 0129.858-29.988A29.959 29.959 0 0177.9 47.56a29.959 29.959 0 01-29.718 30.127A29.959 29.959 0 0117.986 48.04" fill="#fff"/><path d="M40.651 31.539s-1.875.937-3.863 1.874c-1.987.938-1.012 2.775-.224 3.525.787.75.674 1.238.374 1.988a3.443 3.443 0 00-.182.659l-.08-.059-.112.283v-.545a.786.786 0 00-.788-.788h-3.825a.786.786 0 00-.788.788v3.262c0 .436.352.788.788.788h3.222l-1.098 2.765a9.579 9.579 0 00-3.957-.255 9.455 9.455 0 00-4.438 2.012l.44.375a8.756 8.756 0 00-3.544 7.018v.082a8.756 8.756 0 008.826 8.665 8.756 8.756 0 007.712-4.744l.486.412a8.578 8.578 0 00.945-2.33c.934-3.5-.426-7.473-3.322-9.653a8.797 8.797 0 00-1.336-.863l.714-1.609s8.513 5.288 8.513 5.738c0 .45.675 5.887 2.587 5.887 1.073 0 4.152-.01 7.423-.021a8.756 8.756 0 008.68 7.221 8.756 8.756 0 008.686-8.805 8.756 8.756 0 00-.126-1.378l1.056.06a8.58 8.58 0 00-.649-2.43c-.766-1.889-2.203-3.46-3.959-4.472h.077V46.2h1.426l-.15-1.687-13.276.075s-.15-1.65.225-1.65h3.863c1.425 0 1.2-3-.225-3s-9.563.037-9.563.037l-.03 1.545a4.275 4.2 0 01.775.394l1.277.044 1.077 1.737-.567 2.936-.052-.006a4.275 4.2 0 01-4.058 2.988 4.275 4.2 0 01-4.292-3.952l-.205-.023-7.116-5.155c.174-.41.444-1.04.89-2.008.676-1.462-.487-2.138-.637-2.288-.15-.15-.487-.75-.487-.75l2.887-1.8v-2.1zM31.724 48.7c.304.005.607.03.907.075.116.02.231.044.346.071l-1.94 4.886a1.631 1.65 0 00-1.336 1.621v.016a1.631 1.65 0 001.644 1.633 1.631 1.65 0 001.618-1.66 1.631 1.65 0 00-.396-1.068l2.107-4.746c1.726 1.004 2.985 2.81 3.14 4.829.164 1.146-.053 2.292-.542 3.313l.332.282a6.844 6.844 0 01-6.217 4.112 6.844 6.844 0 01-6.899-6.773v-.064a6.844 6.844 0 013.14-5.738l.374.318c1.077-.772 2.404-1.128 3.722-1.107zm32.55.032c1.702.028 3.393.718 4.536 2.013.204.204.39.422.557.651l.001.002a6.844 6.844 0 01.432.698l.026.049a6.844 6.844 0 01.34.809c.084.25.154.504.206.763h.008a6.844 6.844 0 01.197 1.502 6.844 6.844 0 01-6.789 6.883 6.844 6.844 0 01-6.706-5.315l3.857-.01c.638 0 .3 1.387 3.413 1.425 3.112.037 3.863-6.45.338-6.413-2.945.031-5.139.035-5.917.036.6-1.015 1.5-1.85 2.537-2.415a6.234 6.234 0 012.963-.678z"/></svg>