<svg width="10em" height="10em" viewBox="0 0 95.25 95.25" xmlns="http://www.w3.org/2000/svg"><path d="M2.71 47.776A45.232 45.232 0 0147.793 2.498a45.232 45.232 0 0145.383 44.975 45.232 45.232 0 01-44.87 45.488A45.232 45.232 0 012.714 48.198" fill="#fff" stroke="#000" stroke-width=".4" stroke-linecap="round" stroke-linejoin="round"/><path d="M4.567 47.774a43.376 43.376 0 0143.231-43.42 43.376 43.376 0 0143.52 43.13 43.376 43.376 0 01-43.027 43.62A43.376 43.376 0 014.569 48.18" fill="red"/><path d="M17.985 47.76a29.959 29.959 0 0129.858-29.988A29.959 29.959 0 0177.9 47.56a29.959 29.959 0 01-29.718 30.127A29.959 29.959 0 0117.986 48.04" fill="#fff"/><path d="M46.74 22.833a4.298 4.298 0 00-4.285 4.303v.04a4.299 4.299 0 002.823 3.982l.12 1.989s.052.265-1.114 1.007c-1.167.742-3.925 7.85-3.925 7.85l-6.845 3.542a1.787 1.787 0 00-.618.32l-.12.062.016.025a1.787 1.787 0 00-.576 1.312v.017a1.787 1.787 0 002.816 1.442c.428-.21 6.063-2.984 7.29-3.75 1.272-.796 1.71-3.35 2.28-4.244.61-.954.53-.424.53-.424l.344 8.579-8.538 18.377a1.753 1.753 0 00-.904-.251 1.753 1.753 0 00-1.746 1.755v.016a1.753 1.753 0 001.292 1.672l4.37 2.03 9.72-20.92 8.907 17.745c-.298.112-.56.303-.758.552-.598.76-.468 1.86.29 2.46l.012.01c.62.48 1.482.49 2.113.026l4.307-2.161-10.624-21.169c-.246-.498-1.248-2.54-1.625-3.577-.424-1.166-.477-6.417-.477-6.417l3.712 3.5 2.556 8.62c.073.892.821 1.577 1.716 1.572a1.712 1.712 0 001.7-1.721 1.712 1.712 0 00-.145-.671l.007-.003-3.341-10.024s-5.516-6.205-6.789-6.947c-1.272-.743-2.652-.796-2.652-.796l-.097-1.497a4.299 4.299 0 00-1.743-8.233z"/></svg>