<svg width="10em" height="10em" viewBox="0 0 95.25 95.25" xmlns="http://www.w3.org/2000/svg"><path d="M2.71 47.776A45.232 45.232 0 0147.793 2.498a45.232 45.232 0 0145.383 44.975 45.232 45.232 0 01-44.87 45.488A45.232 45.232 0 012.714 48.198" fill="#fff" stroke="#000" stroke-width=".4" stroke-linecap="round" stroke-linejoin="round"/><path d="M4.567 47.774a43.376 43.376 0 0143.231-43.42 43.376 43.376 0 0143.52 43.13 43.376 43.376 0 01-43.027 43.62A43.376 43.376 0 014.569 48.18" fill="red"/><path d="M17.985 47.76a29.959 29.959 0 0129.858-29.988A29.959 29.959 0 0177.9 47.56a29.959 29.959 0 01-29.718 30.127A29.959 29.959 0 0117.986 48.04" fill="#fff"/><path d="M28.66 57.813a5.124 5.124 0 015.106-5.129 5.124 5.124 0 015.14 5.095 5.124 5.124 0 01-5.082 5.152 5.124 5.124 0 01-5.164-5.07M56.705 57.813a5.124 5.124 0 015.107-5.129 5.124 5.124 0 015.14 5.095 5.124 5.124 0 01-5.082 5.152 5.124 5.124 0 01-5.164-5.07"/><path d="M34.42 34.499v5.277h-7.054v.018l-.013-.002-1.193 8.21h-1.634v7.312h-.956v2.588h1.2v-.006h3.097l-.003-.027v-.056a5.92 5.92 0 1111.835.1h16.215a3.388 3.388 0 01-.004-.044v-.056a5.92 5.92 0 1111.835.1h3.64V34.249c.033-.364-.308-.775-.686-.783H35.454c-.495-.012-1.008.567-1.034 1.034zm-5.565 6.921h5.565v6.581H27.9z"/></svg>