<svg width="10em" height="10em" viewBox="0 0 95.25 95.25" xmlns="http://www.w3.org/2000/svg"><rect width="88.09" height="88.674" x="3.447" y="3.659" ry="5.516" opacity=".597" fill="#fff" stroke="#000" stroke-width=".3" stroke-linecap="round" stroke-linejoin="round"/><path d="M8.273 8.75v79.022h79.128V8.75z" fill="#2952a4"/><path d="M14.958 15.426v65.67h65.759v-65.67z" fill="#fff"/><path d="M37.726 27c-2.475 11.289-10.95 19.876-10.95 19.876 3.42-1.08 5.355-2.6 8.25-5.4-2.1 7.35-10.35 12.076-10.35 12.076 4.973-.974 8.906-2.468 11.175-5.626-1.35 7.05-9.9 11.476-9.9 11.476s4.35-.075 7.275-1.05c2.925-.976 4.013-1.688 5.325-2.475.468 3.273-1.702 8.332-2.204 9.45H19.275v3h56.852v-3h-6.3v-17.1h2.7l-12.6-14.176-7.783 8.704c-1.239-.538-10.67-4.928-14.418-15.754zM41.1 40.952c4.35 2.106 10.03 1.957 10.94 1.92l-4.154 4.644c-2.204-1.206-4.863-3.236-6.786-6.564zm1.05 6.15c3.888 2.929 6.802 2.936 8.4 2.564v5.573c-1.912-.828-6.781-3.341-8.4-8.136zm7.181 1.126h1.22v.484a17.586 17.586 0 01-1.22-.484zm7.295 5.55h6.825v11.55h-6.825v-11.55zM41.4 55.727c4.216 2.052 7.647.987 9.15.293v9.307h-7.264c-.616-1.495-1.915-5.17-1.886-9.6z"/></svg>