<svg width="10em" height="10em" viewBox="0 0 95.25 95.25" xmlns="http://www.w3.org/2000/svg"><rect width="85.202" height="85.502" x="5.1" y="4.65" ry="4.65" fill="#fff" stroke="#000" stroke-width=".5" stroke-linecap="round" stroke-linejoin="round"/><rect width="75.977" height="76.127" x="10.425" y="9.825" ry="0" rx="0" fill="#2952a4"/><path d="M36.676 13.05l-2.924 18.376H43.84l.336-18.226-7.5-.15zm-5.024 31.576l-6.001 37.727H42.9l.696-37.727H31.652zM59.59 13.05l-7.501.15.336 18.226h10.087L59.59 13.05zm-6.922 31.576l.696 37.727h17.25l-6.001-37.727H52.668z" fill="#fff"/><path d="M13.2 36.151v5.03h5.518c.735 0 1.326.702 1.326 1.575V50.7h5.718l.555-5.98c.173-1.873 1.715-3.369 3.461-3.382l36.446-.273c1.784-.013 3.38 1.477 3.582 3.371l.666 6.264h5.866v-7.813c0-.872.592-1.575 1.327-1.575h5.737v-5.162H13.2z" fill="#fff"/><path d="M48.225.075v95.553" fill="none" stroke="red" stroke-width="1.5" stroke-dasharray="6 1.5" class="correction"/></svg>