<svg width="10em" height="10em" viewBox="0 0 95.25 95.25" xmlns="http://www.w3.org/2000/svg"><path d="M87.454 2.656H7.213c-2.282 0-4.64 3.522-3.341 5.773l40.666 70.437c1.935 2.46 4.507 2.428 6.123-.097L91.15 8.641c1.632-2.579-.736-5.985-3.696-5.985z" fill="#fff" stroke="#000" stroke-width=".3" stroke-linecap="round" stroke-linejoin="round"/><path d="M85.443 3.94H9.253c-2.804 0-5.101 2.141-3.172 5.482l38.613 66.88c1.758 3.045 4.095 2.887 5.814-.09l38.445-66.59c2.45-3.707.354-5.682-3.51-5.682z" fill="red"/><path d="M72.976 15.228H22.271l25.353 43.911z" fill="#fff"/><rect width="29.805" height="12.811" x="32.775" y="81.039" ry="2.917" rx="2.917" fill="#fff" stroke="#000" stroke-width=".3" stroke-linecap="round" stroke-linejoin="round"/><g style="line-height:1.25;-inkscape-font-specification:Arial;text-align:center" aria-label="CÉDEZ LE PASSAGE" font-size="5.327" font-family="Caracteres L1" letter-spacing=".529" word-spacing="0" text-anchor="middle" stroke-width=".265" font-style="italic"><path style="-inkscape-font-specification:'Caracteres L1 Italic'" d="M36.902 82.384q.756.13.99.903l.024.127-.658.138q-.08-.333-.276-.442-.195-.11-.458.02-.174.15-.29.407-.115.257-.152.697-.015.468.122.814.138.343.333.455.198.112.404.031.205-.052.327-.424l.658.203q-.132.523-.512.757-.278.177-.656.2-.71-.015-1.06-.58-.37-.614-.38-1.329.005-.895.384-1.464.24-.315.536-.435.224-.088.487-.088.085 0 .177.01zm4.095.05v.697H39.42v.832h1.155v.705H39.42v.871h1.644v.705h-2.377v-3.81zm-.55-.955l-.402.79h-.804l.33-.79zm3.035.94q.374.043.634.298.263.255.38.604.055.153.08.403v1.17q-.038.593-.374.958-.333.364-.811.387h-1.509l.003-3.82zm-.853 3.068h.608q.185-.028.315-.135.13-.11.221-.38.05-.166.029-1.212-.122-.54-.565-.621h-.608zm5.073-3.053v.697h-1.576v.832h1.155v.705h-1.155v.871h1.643v.705h-2.377l.003-3.81zm3.414.002l-.003.736-1.639 2.357h1.686v.715h-2.578v-.764l1.6-2.308h-1.52v-.736zm3.81-.01l.002 3.137h1.475l-.002.681h-2.196v-3.818zm4.597.008v.697h-1.576v.832h1.155v.705h-1.155v.871h1.644v.705h-2.378l.003-3.81zM37.892 89.085q.333.036.588.239.258.203.37.458.14.273.14.585 0 .146-.003.19-.02.359-.148.598-.127.24-.278.367-.328.299-.69.304h-.723v1.07h-.712v-3.811zm-.733 1.982h.588q.135-.016.223-.068.24-.143.287-.497.007-.32-.13-.486-.138-.167-.367-.19h-.601zm4.035-1.982l.983 3.81h-.746l-.164-.648h-1.053l-.167.648h-.754l.973-3.81zm-.837 2.437h.751l-.364-1.488zm2.576.603v-.005q0-.029.06-.039.46-.148.598-.213.07.096.185.174.184.11.395.133.224.005.278-.01.258-.074.318-.149.06-.052.104-.252.01-.078-.021-.175-.04-.065-.083-.109l-.089-.067-.099-.045q-.824-.257-.907-.301-.383-.154-.57-.508-.122-.236-.11-.574.05-.422.347-.669.333-.242.694-.263h.068q.257 0 .426.04.344.096.536.267.193.159.317.432l-.007.029-.536.257-.026-.013q-.05-.158-.278-.257-.258-.097-.604-.005-.148.049-.208.127-.02.02-.055.13-.005.127.01.148.035.089.136.159l.068.029q.738.218 1.001.317.226.104.346.229l.146.197q.16.268.171.586.003.02.003.05 0 .1-.031.272-.065.242-.156.357-.156.192-.227.231-.382.263-.788.284h-.236q-.266-.026-.448-.105-.291-.135-.47-.301-.149-.135-.258-.388zm3.395 0v-.005q0-.029.06-.039.46-.148.598-.213.07.096.185.174.185.11.395.133.224.005.279-.01.257-.074.317-.149.06-.052.104-.252.01-.078-.02-.175-.04-.065-.084-.109l-.088-.067-.1-.045q-.824-.257-.907-.301-.382-.154-.57-.508-.122-.236-.109-.574.05-.422.346-.669.333-.242.695-.263h.067q.258 0 .427.04.343.096.536.267.192.159.317.432l-.008.029-.536.257-.026-.013q-.05-.158-.278-.257-.257-.097-.603-.005-.149.049-.209.127-.02.02-.054.13-.005.127.01.148.034.089.136.159l.067.029q.739.218 1.002.317.226.104.345.229l.146.197q.161.268.172.586.002.02.002.05 0 .1-.03.272-.066.242-.157.357-.156.192-.226.231-.382.263-.788.284h-.237q-.265-.026-.447-.105-.292-.135-.471-.301-.148-.135-.258-.388zm5.253-3.04l.983 3.81h-.746l-.164-.648H50.6l-.166.648h-.754l.972-3.81zm-.838 2.437h.752l-.364-1.488zm3.908-2.484q.747.078 1.062.99l-.677.178q-.182-.4-.416-.482-.304-.114-.588.32-.177.292-.218.85-.008.617.192.958.203.34.476.38.46-.008.65-.695h-.616v-.694h1.358v.031q.002.063.002.128 0 .907-.434 1.472-.291.4-.853.447h-.057q-1.249 0-1.41-1.774-.003-.052-.003-.106 0-.913.414-1.53.244-.312.528-.403.224-.073.468-.073.06 0 .122.003zm4.324.054v.697H57.4v.833h1.155v.705H57.4v.871h1.644v.705h-2.377l.002-3.81z"/></g></svg>