<svg width="10em" height="10em" viewBox="0 0 95.25 95.25" xmlns="http://www.w3.org/2000/svg"><path d="M87.454 86.341H7.213c-2.282 0-4.64-3.522-3.341-5.773l40.666-70.436c1.935-2.46 4.507-2.429 6.123.096L91.15 80.357c1.632 2.578-.736 5.984-3.696 5.984z" fill="#fff" stroke="#000" stroke-width=".3" stroke-linecap="round" stroke-linejoin="round"/><path d="M85.443 85.057H9.253c-2.804 0-5.101-2.141-3.172-5.482l38.613-66.88c1.758-3.045 4.095-2.887 5.814.091l38.445 66.589c2.45 3.707.354 5.682-3.51 5.682z" fill="red"/><path d="M81.976 78.966H13.271l34.353-59.5z" fill="#fff"/><path d="M38.476 40.876v12.75l-6.225 10.2v12.976h6.375V63.677l5.775-9.975v-12.75zM56.393 40.876v12.75l6.225 10.2v12.976h-6.375V63.677l-5.775-9.975v-12.75z"/><path d="M47.384-12.881l-.001 122.565" fill="none" stroke="#d30404" stroke-width="1.5" stroke-dasharray="6 1.5" class="correction"/></svg>