<svg width="10em" height="10em" viewBox="0 0 95.25 95.25" xmlns="http://www.w3.org/2000/svg"><path d="M87.454 86.341H7.213c-2.282 0-4.64-3.522-3.341-5.773l40.666-70.436c1.935-2.46 4.507-2.429 6.123.096L91.15 80.357c1.632 2.578-.736 5.984-3.696 5.984z" fill="#fff" stroke="#000" stroke-width=".3" stroke-linecap="round" stroke-linejoin="round"/><path d="M85.443 85.057H9.253c-2.804 0-5.101-2.141-3.172-5.482l38.613-66.88c1.758-3.045 4.095-2.887 5.814.091l38.445 66.589c2.45 3.707.354 5.682-3.51 5.682z" fill="red"/><path d="M81.976 78.966H13.271l34.353-59.5z" fill="#fff"/><path d="M53.035 74.407V53.883h-4.243l6.841-13.206 7.425 13.047h-4.56v20.683zM37.9 40.677v20.525h-4.243l6.841 13.205 7.425-13.046h-4.56V40.677z"/></svg>