<svg width="10em" height="10em" viewBox="0 0 95.25 95.25" xmlns="http://www.w3.org/2000/svg"><path d="M2.71 47.776A45.232 45.232 0 0147.793 2.498a45.232 45.232 0 0145.383 44.975 45.232 45.232 0 01-44.87 45.488A45.232 45.232 0 012.714 48.198" fill="#fff" stroke="#000" stroke-width=".4" stroke-linecap="round" stroke-linejoin="round"/><path d="M4.567 47.774a43.376 43.376 0 0143.231-43.42 43.376 43.376 0 0143.52 43.13 43.376 43.376 0 01-43.027 43.62A43.376 43.376 0 014.569 48.18" fill="red"/><path d="M20.636 47.758a27.307 27.307 0 0127.216-27.335A27.307 27.307 0 0175.25 47.575a27.307 27.307 0 01-27.088 27.46 27.307 27.307 0 01-27.524-27.023" fill="#fff"/><g style="stroke:#00ff00;stroke-width:2.38125;" class="correction">
  <path d="M 45.149083,41.45948 50.97477,54.955657" />
  <path d="M 54.762175,45.186305 41.361678,51.228832" />
     </g></svg>
