<svg width="10em" height="10em" viewBox="0 0 95.25 95.25" xmlns="http://www.w3.org/2000/svg"><path d="M2.71 47.776A45.232 45.232 0 0147.793 2.498a45.232 45.232 0 0145.383 44.975 45.232 45.232 0 01-44.87 45.488A45.232 45.232 0 012.714 48.198" fill="#fff" stroke="#000" stroke-width=".4" stroke-linecap="round" stroke-linejoin="round"/><path d="M4.567 47.774a43.376 43.376 0 0143.231-43.42 43.376 43.376 0 0143.52 43.13 43.376 43.376 0 01-43.027 43.62A43.376 43.376 0 014.569 48.18" fill="red"/><path d="M17.985 47.76a29.959 29.959 0 0129.858-29.988A29.959 29.959 0 0177.9 47.56a29.959 29.959 0 01-29.718 30.127A29.959 29.959 0 0117.986 48.04" fill="#fff"/><path d="M30.638 27.676h8.026V49.05h6.487c.825 0 1.684.708 1.047 1.813l-11.21 19.413s-10.598-18.41-11.25-19.538c-.651-1.129-.095-1.943.928-1.943h6.01z"/><path d="M57.49 70.877h5.4V42.114h3.712c.825 0 1.179-1.166.587-2.192-.592-1.025-6.887-12.396-6.887-12.396s-6.727 11.352-7.383 12.486c-.617 1.07-.185 2.043.842 2.043h3.766z" fill="red"/></svg>