<svg width="10em" height="10em" viewBox="0 0 95.25 95.25" xmlns="http://www.w3.org/2000/svg"><path d="M2.71 47.776A45.232 45.232 0 0147.793 2.498a45.232 45.232 0 0145.383 44.975 45.232 45.232 0 01-44.87 45.488A45.232 45.232 0 012.714 48.198" fill="#fff" stroke="#000" stroke-width="1.7" stroke-linecap="round" stroke-linejoin="round"/><path d="M17.985 47.76a29.959 29.959 0 0129.858-29.988A29.959 29.959 0 0177.9 47.56a29.959 29.959 0 01-29.718 30.127A29.959 29.959 0 0117.986 48.04" fill="#fff"/><path d="M79.747 16.07a45.232 45.232 0 00-6.622-5.314L10.472 73.409a45.232 45.232 0 005.671 6.991 45.232 45.232 0 005.389 4.524l63.06-63.06a45.232 45.232 0 00-4.845-5.794z"/><path d="M90.673 3.93L3.408 91.193M3.408 3.93l87.265 87.264" fill="none" stroke="red" stroke-width="1.5" stroke-dasharray="6 1.5" class="correction"/></svg>
