<svg width="10em" height="10em" viewBox="0 0 95.25 95.25" xmlns="http://www.w3.org/2000/svg"><path d="M2.71 47.776A45.232 45.232 0 0147.793 2.498a45.232 45.232 0 0145.383 44.975 45.232 45.232 0 01-44.87 45.488A45.232 45.232 0 012.714 48.198" fill="#fff" stroke="#000" stroke-width="1.7" stroke-linecap="round" stroke-linejoin="round"/><path d="M17.985 47.76a29.959 29.959 0 0129.858-29.988A29.959 29.959 0 0177.9 47.56a29.959 29.959 0 01-29.718 30.127A29.959 29.959 0 0117.986 48.04" fill="#fff"/><path d="M73.125 10.756l-23.67 23.67H72.03l12.561-12.562a45.232 45.232 0 00-4.845-5.794 45.232 45.232 0 00-6.622-5.314zM22.154 61.727L10.472 73.408a45.232 45.232 0 005.671 6.992 45.232 45.232 0 005.389 4.525L44.73 61.727H22.154zM26.513 37.2c-2.019 0-3.013 6.496-3.219 8.026h-.073c-.898 0-1.62.823-1.62 1.846v4.11c0 1.021.721 1.844 1.618 1.845-.17.292-.268.642-.268 1.02v2.684c0 1.023.722 1.846 1.62 1.846h.36c.897 0 1.62-.823 1.62-1.846v-2.684c0-.378-.1-.728-.269-1.02h15.013c-.17.292-.27.642-.27 1.02v2.684c0 1.023.724 1.846 1.621 1.846h.36c.898 0 1.62-.823 1.62-1.846v-2.684c0-.378-.099-.728-.269-1.02.898 0 1.62-.824 1.62-1.846v-4.11c0-1.022-.723-1.845-1.62-1.845h-.36c-.003-.075-.004-.144-.008-.225-.15-2.887-1.013-7.8-3.338-7.8H26.513zm12.788 2.026c2.325-.007 2.55 2.963 2.55 5.813l.001.187H25.426c-.027-1.427.611-5.958 2.062-5.962l11.813-.038zM55.088 37.2c-2.019 0-3.013 6.496-3.219 8.026h-.073c-.898 0-1.62.823-1.62 1.846v4.11c0 1.021.721 1.844 1.618 1.845-.17.292-.268.642-.268 1.02v2.684c0 1.023.722 1.846 1.62 1.846h.36c.897 0 1.62-.823 1.62-1.846v-2.684c0-.378-.1-.728-.269-1.02H69.87c-.17.292-.27.642-.27 1.02v2.684c0 1.023.724 1.846 1.622 1.846h.36c.897 0 1.62-.823 1.62-1.846v-2.684c0-.378-.1-.728-.27-1.02.898 0 1.62-.824 1.62-1.846v-4.11c0-1.022-.723-1.845-1.62-1.845h-.36c-.003-.075-.004-.144-.008-.225-.15-2.887-1.013-7.8-3.338-7.8zm12.788 2.026c2.325-.007 2.55 2.963 2.55 5.813l.001.187H54.001c-.027-1.427.611-5.958 2.062-5.962z"/></svg>