<svg width="10em" height="10em" viewBox="0 0 95.25 95.25" xmlns="http://www.w3.org/2000/svg"><path d="M2.71 47.776A45.232 45.232 0 0147.793 2.498a45.232 45.232 0 0145.383 44.975 45.232 45.232 0 01-44.87 45.488A45.232 45.232 0 012.714 48.198" fill="#fff" stroke="#000" stroke-width=".4" stroke-linecap="round" stroke-linejoin="round"/><path d="M4.567 47.774a43.376 43.376 0 0143.231-43.42 43.376 43.376 0 0143.52 43.13 43.376 43.376 0 01-43.027 43.62A43.376 43.376 0 014.569 48.18" fill="red"/><path d="M17.985 47.76a29.959 29.959 0 0129.858-29.988A29.959 29.959 0 0177.9 47.56a29.959 29.959 0 01-29.718 30.127A29.959 29.959 0 0117.986 48.04" fill="#fff"/><path d="M55.262 73.506h6.258v-26.2c0-4.073-5.322-10.067-11.084-10.235l-24.767.318v-3.447l-6.311 6.417 6.364 6.789v-3.395l23.918-.159c2.493.106 5.834 3.076 5.781 5.834z"/><path fill="red" d="M21.633 27.628l6.211-6.09 46.63 47.569-6.211 6.089z"/></svg>