<svg width="10em" height="10em" viewBox="0 0 95.25 95.25" xmlns="http://www.w3.org/2000/svg"><rect width="88.09" height="88.674" x="3.447" y="3.659" ry="5.516" fill="#fff" stroke="#000" stroke-width=".3" stroke-linecap="round" stroke-linejoin="round"/><path d="M8.273 8.75v79.022h79.128V8.75z" fill="#2952a4"/><path d="M14.958 15.426v65.67h65.759v-65.67z" fill="#fff"/><path d="M25.297 48.213a4.773 4.773 0 014.758-4.778 4.773 4.773 0 014.789 4.746 4.773 4.773 0 01-4.735 4.8 4.773 4.773 0 01-4.811-4.723M61.305 20.963a31.418 31.418 0 013.45 4.615L37.973 42.003zM69.735 36.445a31.418 31.418 0 011.11 5.655l-31.254 3.202zM61.571 75.213a31.418 31.418 0 003.45-4.615L38.24 54.173zM69.79 59.36a31.418 31.418 0 001.11-5.655l-31.254-3.202z"/><path d="M93.818 48.185H1.008" fill="none" stroke="red" stroke-width="1.5" stroke-dasharray="6 1.5" class="correction"/></svg>