<svg width="10em" height="10em" viewBox="0 0 95.25 95.25" xmlns="http://www.w3.org/2000/svg"><rect width="88.09" height="88.674" x="3.447" y="3.659" ry="5.516" fill="#fff" stroke="#000" stroke-width=".3" stroke-linecap="round" stroke-linejoin="round"/><path d="M8.273 8.75v79.022h79.128V8.75z" fill="#2952a4"/><path d="M32.006 25.456c-2.207 0-4.389 1.935-4.918 4.465l-2.003 9.569c-.022.107-.036.212-.053.318l-1.623 2.447a3.386 3.386 0 00-2.407 3.249v11.031a3.383 3.383 0 002.845 3.346c-.02.12-.035.241-.035.366v9.122c0 1.38 1.278 2.493 2.864 2.493h2.917c1.587 0 2.864-1.112 2.864-2.493v-9.122a2.2 2.2 0 00-.025-.318h30.105c-.004.053-.01.106-.01.16v9.121c0 1.381 1.278 2.493 2.864 2.493h2.917c1.587 0 2.864-1.112 2.864-2.493v-9.122c0-.059-.005-.116-.01-.174a3.384 3.384 0 003.086-3.379V45.504a3.386 3.386 0 00-3.058-3.377l-1.382-2.085a7.808 7.808 0 00-.111-.552l-2.321-9.569c-.614-2.53-2.86-4.465-5.068-4.465H32.006zm1.5 3.766h27.681c1.27 0 2.57 1.2 2.928 2.746l1.665 7.176c.284 1.227.05 2.326-.542 2.966h-35.42c-.611-.64-.876-1.74-.627-2.966l1.463-7.176c.316-1.546 1.582-2.746 2.852-2.746zm-5.833 18.244a3.341 3.341 0 013.352 3.322 3.341 3.341 0 01-3.314 3.36 3.341 3.341 0 01-3.368-3.306v-.032a3.341 3.341 0 013.33-3.344zm38.841 0a3.341 3.341 0 013.353 3.322 3.341 3.341 0 01-3.315 3.36 3.341 3.341 0 01-3.368-3.306v-.032a3.341 3.341 0 013.33-3.344z" fill="#fff"/><path d="M47.413 1.78v92.81" fill="none" stroke="red" stroke-width="1.5" stroke-dasharray="6 1.5" class="correction"/></svg>