<svg width="10em" height="10em" viewBox="0 0 95.25 95.25" xmlns="http://www.w3.org/2000/svg"><path d="M2.706 49.155a44.655 44.655 0 0144.506-44.7 44.655 44.655 0 0144.803 44.401A44.655 44.655 0 0147.72 93.764a44.655 44.655 0 01-45.01-44.192" fill="none" stroke="#000" stroke-width=".5" stroke-linecap="round" stroke-linejoin="round"/><path d="M3.501 49.154A43.86 43.86 0 0147.214 5.251 43.86 43.86 0 0191.22 48.86a43.86 43.86 0 01-43.507 44.107 43.86 43.86 0 01-44.21-43.404" fill="red" stroke="#fff" stroke-width="1.5" stroke-linecap="round" stroke-linejoin="round"/><path fill="#fff" d="M15.963 41.844h62.899v14.638H15.963z"/><path d="M47.636.159l-.022 95.329M95.13 49.129L.435 49.107" fill="none" stroke="#ad0404" stroke-width="1.5" stroke-dasharray="6 1.5" class="correction"/>  <g style="stroke:#00ff00;stroke-width:2.38125;" class="correction">
  <path d="M 45.149083,41.45948 50.97477,54.955657" />
  <path d="M 54.762175,45.186305 41.361678,51.228832" />
     </g>
</svg>