<svg width="10em" height="10em" viewBox="0 0 95.25 95.25" xmlns="http://www.w3.org/2000/svg"><path d="M2.817 47.776A45.126 45.126 0 0147.792 2.604a45.126 45.126 0 0145.277 44.87 45.126 45.126 0 01-44.764 45.38A45.126 45.126 0 012.819 48.198" fill="red" stroke="#000" stroke-width=".3" stroke-linecap="round" stroke-linejoin="round"/><path d="M15.439 47.763a32.504 32.504 0 0132.395-32.537 32.504 32.504 0 0132.613 32.32 32.504 32.504 0 01-32.243 32.687A32.504 32.504 0 0115.44 48.066" fill="#2952a4"/><path fill="red" d="M21.633 27.628l6.211-6.09 46.63 47.569-6.211 6.089z"/><path d="M5.109 4.597L90.93 92.1M90.931 4.597L5.11 92.1" fill="none" stroke="#b10202" stroke-width="1.5" stroke-dasharray="6 1.5" class="correction"/></svg>