<svg width="10em" height="10em" viewBox="0 0 95.25 95.25" xmlns="http://www.w3.org/2000/svg"><path d="M66.377 2.55l26.612 26.805-.136 37.772-26.805 26.612-37.772-.136L1.664 66.798 1.8 29.026 28.605 2.414z" fill="#fff" stroke="#000" stroke-width=".3" stroke-linecap="round" stroke-linejoin="round"/><path d="M64.625 6.738l24.164 24.34-.124 34.297-24.34 24.164-34.297-.124-24.164-24.34.124-34.297 24.34-24.164z" fill="red"/><path style="line-height:1.25;-inkscape-font-specification:'Caracteres L1 Medium';text-align:center" d="M13.216 54.973v-.033q0-.178.374-.243 2.876-.924 3.737-1.329.439.6 1.154 1.086 1.154.68 2.47.826 1.397.033 1.739-.064 1.608-.454 1.982-.924.374-.324.65-1.572.065-.486-.13-1.086-.244-.405-.52-.68l-.552-.422-.618-.275q-5.151-1.604-5.671-1.88-2.389-.956-3.559-3.16-.764-1.474-.682-3.581.308-2.625 2.16-4.165 2.08-1.507 4.34-1.636h.422q1.609 0 2.665.243 2.145.6 3.348 1.669 1.202.988 1.982 2.69l-.049.178-3.347 1.604-.163-.08q-.308-.99-1.738-1.605-1.61-.6-3.77-.032-.927.308-1.3.794-.13.13-.342.81-.032.794.065.924.212.55.845.988l.423.178q4.615 1.362 6.256 1.977 1.414.649 2.161 1.426l.91 1.232q1.008 1.669 1.073 3.646.016.13.016.308 0 .632-.195 1.701-.406 1.507-.975 2.22-.975 1.2-1.414 1.443-2.388 1.636-4.923 1.766h-1.48q-1.657-.162-2.794-.648-1.82-.843-2.941-1.88-.927-.843-1.61-2.414zm32.451-18.928v4.57h-4.761v19.203h-4.42V40.567H31.4v-4.522zm11.651-.275q3.933.6 5.818 4.634 1.609 2.982 1.609 7.325v.292q0 5.428-2.65 9.236-1.884 2.56-5.33 2.869-.357.032-.698.032-3.575 0-5.996-3.014-2.503-4.019-2.535-8.248-.016-.357-.016-.713 0-5.72 2.55-9.464 1.707-2.042 3.56-2.609 1.283-.405 2.567-.405.569 0 1.121.065zm-1.251 20.24q1.885-.098 3.185-2.577.943-1.653 1.186-4.861.049-4.084-1.446-6.693-1.219-1.815-2.697-2.025-1.95.097-3.25 2.544-.927 1.717-1.203 4.926-.032 4.083 1.479 6.676 1.202 1.815 2.746 2.01zm19.955-19.98q2.08.226 3.672 1.49 1.61 1.264 2.308 2.852.877 1.702.877 3.646 0 .908-.016 1.183-.13 2.236-.926 3.727-.796 1.491-1.739 2.285-2.047 1.864-4.306 1.896h-4.518v6.66h-4.452V36.03zm-4.583 12.347h3.673q.845-.097 1.397-.421 1.495-.891 1.788-3.095.049-1.993-.813-3.03-.86-1.038-2.29-1.183h-3.755z" aria-label="STOP" font-weight="500" font-size="33.234" font-family="Caracteres L1" letter-spacing="0" word-spacing="0" text-anchor="middle" fill="#fff"/></svg>