<svg width="12em" height="9em" id="a" version="1.1" viewBox="0 0 640 480" xmlns="http://www.w3.org/2000/svg">
 <path d="M0 0h640v53.3H0z" fill="#0d5eaf" fill-rule="evenodd"/>
 <path d="M0 53.3h640v53.4H0z" fill="#fff" fill-rule="evenodd"/>
 <path d="M0 106.7h640V160H0z" fill="#0d5eaf" fill-rule="evenodd"/>
 <path d="M0 160h640v53.3H0z" fill="#fff" fill-rule="evenodd"/>
 <path d="M0 0h266.7v266.7H0z" fill="#0d5eaf"/>
 <path d="M0 213.3h640v53.4H0z" fill="#0d5eaf" fill-rule="evenodd"/>
 <path d="M0 266.7h640V320H0z" fill="#fff" fill-rule="evenodd"/>
 <path d="M0 320h640v53.3H0z" fill="#0d5eaf" fill-rule="evenodd"/>
 <path d="M0 373.3h640v53.4H0z" fill="#fff" fill-rule="evenodd"/>
 <g fill="#fff" fill-rule="evenodd" stroke-width="1.3">
  <path d="M106.7 0H160v266.7h-53.3z"/>
  <path d="M0 106.7h266.7V160H0z"/>
 </g>
 <path d="M0 426.7h640V480H0z" fill="#0d5eaf"/>
</svg>
