<svg width="354.8" height="196.5" version="1.1" viewBox="0 0 354.8 196.5" xmlns="http://www.w3.org/2000/svg">
 <g transform="translate(177.4 177.4)" fill="none" stroke="#000000" stroke-linecap="round" stroke-width=".5">
  <circle r="1.5"/>
  <path d="m-5.2 0h3.7m3 0h3.7m-5.2-5.2v3.7m0 3v3.7"/>
  <path d="m-8.7 0a8.7 8.7 0 0117.4 0"/>
  <path d="m-176.7 0a176.7 176.7 0 01353.4 0v18.5h-353.4z" stroke-width="1" style="fill-opacity:.3992;fill:#e0f6ff"/>
  <path d="m8.7 0h124.1m26.9 0h17"/>
  <g fill="#000000" font-family="'Noto Sans', sans-serif" font-size="10px" stroke="none" text-anchor="middle">
   <g transform="rotate(-90)">
    <text x="-0.095649481" y="-142.84752" style="font-size:9.479px;stroke-width:.5">0</text>
   </g>
   <g transform="matrix(.1646 -.9335 .9335 .1646 0 .09565)" style="stroke-width:.5275">
    <text y="-150.7" style="stroke-width:.5275">10</text>
   </g>
   <g transform="matrix(.3242 -.8907 .8907 .3242 0 .09565)" style="stroke-width:.5275">
    <text y="-150.7" style="stroke-width:.5275">20</text>
   </g>
   <g transform="matrix(.4739 -.8209 .8209 .4739 0 .09565)" style="stroke-width:.5275">
    <text y="-150.7" style="stroke-width:.5275">30</text>
   </g>
   <g transform="matrix(.6093 -.7261 .7261 .6093 0 .09565)" style="stroke-width:.5275">
    <text y="-150.7" style="stroke-width:.5275">40</text>
   </g>
   <g transform="matrix(.7261 -.6093 .6093 .7261 0 .09565)" style="stroke-width:.5275">
    <text y="-150.7" style="stroke-width:.5275">50</text>
   </g>
   <g transform="matrix(.8209 -.4739 .4739 .8209 0 .09565)" style="stroke-width:.5275">
    <text y="-150.7" style="stroke-width:.5275">60</text>
   </g>
   <g transform="matrix(.8907 -.3242 .3242 .8907 0 .09565)" style="stroke-width:.5275">
    <text y="-150.7" style="stroke-width:.5275">70</text>
   </g>
   <g transform="matrix(.9335 -.1646 .1646 .9335 0 .09565)" style="stroke-width:.5275">
    <text y="-150.7" style="stroke-width:.5275">80</text>
   </g>
   <g transform="matrix(.9479 0 0 .9479 0 .09565)" style="stroke-width:.5275">
    <text y="-150.7" style="stroke-width:.5275">90</text>
   </g>
   <g transform="matrix(.9335 .1646 -.1646 .9335 0 .09565)" style="stroke-width:.5275">
    <text y="-150.7" style="stroke-width:.5275">100</text>
   </g>
   <g transform="matrix(.8907 .3242 -.3242 .8907 0 .09565)" style="stroke-width:.5275">
    <text y="-150.7" style="stroke-width:.5275">110</text>
   </g>
   <g transform="matrix(.8209 .4739 -.4739 .8209 0 .09565)" style="stroke-width:.5275">
    <text y="-150.7" style="stroke-width:.5275">120</text>
   </g>
   <g transform="matrix(.7261 .6093 -.6093 .7261 0 .09565)" style="stroke-width:.5275">
    <text y="-150.7" style="stroke-width:.5275">130</text>
   </g>
   <g transform="matrix(.6093 .7261 -.7261 .6093 0 .09565)" style="stroke-width:.5275">
    <text y="-150.7" style="stroke-width:.5275">140</text>
   </g>
   <g transform="matrix(.4739 .8209 -.8209 .4739 0 .09565)" style="stroke-width:.5275">
    <text y="-150.7" style="stroke-width:.5275">150</text>
   </g>
   <g transform="matrix(.3242 .8907 -.8907 .3242 0 .09565)" style="stroke-width:.5275">
    <text y="-150.7" style="stroke-width:.5275">160</text>
   </g>
   <g transform="matrix(.1646 .9335 -.9335 .1646 0 .09565)" style="stroke-width:.5275">
    <text y="-150.7" style="stroke-width:.5275">170</text>
   </g>
   <g transform="matrix(0 .9479 -.9479 0 0 .09565)" style="stroke-width:.5275">
    <text y="-150.7" style="stroke-width:.5275">180</text>
   </g>
  </g>
  <path d="m8.571-1.519 122.2-21.55m26.49-4.671 16.74-2.952"/>
  <path d="m8.18-2.992 116.6-42.44m25.28-9.2 15.97-5.814"/>
  <path d="m7.539-4.374 107.5-62.05m23.3-13.45 14.72-8.5"/>
  <path d="m6.668-5.625 95.07-79.77m20.61-17.29 13.02-10.93"/>
  <path d="m5.593-6.705 79.77-95.07m17.29-20.61 10.93-13.02"/>
  <path d="m4.347-7.582 62.05-107.5m13.45-23.3 8.5-14.72"/>
  <path d="m2.967-8.23 42.44-116.6m9.2-25.28 5.814-15.97"/>
  <path d="m1.496-8.628 21.55-122.2m4.671-26.49 2.952-16.74"/>
  <path d="m-.02196-8.764 4.14e-6-124.1m-7.12e-6-26.9-4.6e-7-17"/>
  <path d="m-1.541-8.635-21.55-122.2m-4.671-26.49-2.952-16.74"/>
  <path d="m-3.014-8.244-42.44-116.6m-9.2-25.28-5.814-15.97"/>
  <path d="m-4.396-7.604-62.05-107.5m-13.45-23.3-8.5-14.72"/>
  <path d="m-5.647-6.733-79.77-95.07m-17.29-20.61-10.93-13.02"/>
  <path d="m-6.727-5.658-95.07-79.77m-20.61-17.29-13.02-10.93"/>
  <path d="m-7.604-4.411-107.5-62.05m-23.3-13.45-14.72-8.5"/>
  <path d="m-8.252-3.032-116.6-42.44m-25.28-9.2-15.97-5.814"/>
  <path d="m-8.65-1.56-122.2-21.55m-26.49-4.671-16.74-2.952"/>
  <path d="m-8.786-.04248-124.1-5.1e-6m-26.9 9.09e-6-17 4.4e-6"/>
 </g>
</svg>
