<svg width="354.8" height="196.5" version="1.1" viewBox="0 0 354.8 196.5" xmlns="http://www.w3.org/2000/svg" xmlns:xlink="http://www.w3.org/1999/xlink">
 <g transform="translate(177.4 177.4)" fill="none" stroke="#000000" stroke-linecap="round" stroke-width=".5">
  <circle r="1.5"/>
  <path d="m-5.2 0h3.7m3 0h3.7m-5.2-5.2v3.7m0 3v3.7"/>
  <path d="m-8.7 0a8.7 8.7 0 0117.4 0"/>
  <path d="m-176.7 0a176.7 176.7 0 01353.4 0v18.5h-353.4z" stroke-width="1" style="fill-opacity:.3992;fill:#e0f6ff"/>
  <g id="b">
   <path d="m-8.7 0h-124.1m-26.9 0h-17m176.7-8.7v-124.1m0-26.9v-17"/>
   <path transform="rotate(5)" d="m-66.7 0h-66.1m-26.9 0h-17m176.7-66.7v-66.1m0-26.9v-17"/>
   <path id="a" transform="rotate(1)" d="m-168.5 0h-8.2m176.7-168.5v-8.2"/>
   <use transform="rotate(1)" xlink:href="#a"/>
   <use transform="rotate(2)" xlink:href="#a"/>
   <use transform="rotate(3)" xlink:href="#a"/>
   <use transform="rotate(5)" xlink:href="#a"/>
   <use transform="rotate(6)" xlink:href="#a"/>
   <use transform="rotate(7)" xlink:href="#a"/>
   <use transform="rotate(8)" xlink:href="#a"/>
  </g>
  <use transform="rotate(10)" xlink:href="#b"/>
  <use transform="rotate(20)" xlink:href="#b"/>
  <use transform="rotate(30)" xlink:href="#b"/>
  <use transform="rotate(40)" xlink:href="#b"/>
  <use transform="rotate(50)" xlink:href="#b"/>
  <use transform="rotate(60)" xlink:href="#b"/>
  <use transform="rotate(70)" xlink:href="#b"/>
  <use transform="rotate(80)" xlink:href="#b"/>
  <path d="m8.7 0h124.1m26.9 0h17"/>
  <g fill="#000000" font-family="'Noto Sans', sans-serif" font-size="10px" stroke="none" text-anchor="middle">
   <g transform="rotate(-90)">
    <text y="-150.7">0</text>
    <text y="-136.5" fill="#0000ff">180</text>
   </g>
   <g transform="rotate(-80)">
    <text y="-150.7">10</text>
    <text y="-136.5" fill="#0000ff">170</text>
   </g>
   <g transform="rotate(-70)">
    <text y="-150.7">20</text>
    <text y="-136.5" fill="#0000ff">160</text>
   </g>
   <g transform="rotate(-60)">
    <text y="-150.7">30</text>
    <text y="-136.5" fill="#0000ff">150</text>
   </g>
   <g transform="rotate(-50)">
    <text y="-150.7">40</text>
    <text y="-136.5" fill="#0000ff">140</text>
   </g>
   <g transform="rotate(-40)">
    <text y="-150.7">50</text>
    <text y="-136.5" fill="#0000ff">130</text>
   </g>
   <g transform="rotate(-30)">
    <text y="-150.7">60</text>
    <text y="-136.5" fill="#0000ff">120</text>
   </g>
   <g transform="rotate(-20)">
    <text y="-150.7">70</text>
    <text y="-136.5" fill="#0000ff">110</text>
   </g>
   <g transform="rotate(-10)">
    <text y="-150.7">80</text>
    <text y="-136.5" fill="#0000ff">100</text>
   </g>
   <g>
    <text y="-150.7">90</text>
    <text y="-136.5" fill="#0000ff">90</text>
   </g>
   <g transform="rotate(10)">
    <text y="-150.7">100</text>
    <text y="-136.5" fill="#0000ff">80</text>
   </g>
   <g transform="rotate(20)">
    <text y="-150.7">110</text>
    <text y="-136.5" fill="#0000ff">70</text>
   </g>
   <g transform="rotate(30)">
    <text y="-150.7">120</text>
    <text y="-136.5" fill="#0000ff">60</text>
   </g>
   <g transform="rotate(40)">
    <text y="-150.7">130</text>
    <text y="-136.5" fill="#0000ff">50</text>
   </g>
   <g transform="rotate(50)">
    <text y="-150.7">140</text>
    <text y="-136.5" fill="#0000ff">40</text>
   </g>
   <g transform="rotate(60)">
    <text y="-150.7">150</text>
    <text y="-136.5" fill="#0000ff">30</text>
   </g>
   <g transform="rotate(70)">
    <text y="-150.7">160</text>
    <text y="-136.5" fill="#0000ff">20</text>
   </g>
   <g transform="rotate(80)">
    <text y="-150.7">170</text>
    <text y="-136.5" fill="#0000ff">10</text>
   </g>
   <g transform="rotate(90)">
    <text y="-150.7">180</text>
    <text y="-136.5" fill="#0000ff">0</text>
   </g>
  </g>
 </g>
</svg>
