<?xml version="1.0" encoding="UTF-8" standalone="no"?>
<svg
   version="1.1"
   width="354.82877"
   height="196.48625"
   viewBox="0 0 354.82877 196.48625"
   id="svg58"
   sodipodi:docname="Rapporteur_180deg simplifie direct.svg"
   inkscape:version="1.4 (86a8ad7, 2024-10-11)"
   xmlns:inkscape="http://www.inkscape.org/namespaces/inkscape"
   xmlns:sodipodi="http://sodipodi.sourceforge.net/DTD/sodipodi-0.dtd"
   xmlns="http://www.w3.org/2000/svg"
   xmlns:svg="http://www.w3.org/2000/svg">
  <defs
     id="defs58" />
  <sodipodi:namedview
     id="namedview58"
     pagecolor="#ffffff"
     bordercolor="#666666"
     borderopacity="1.0"
     inkscape:showpageshadow="2"
     inkscape:pageopacity="0.0"
     inkscape:pagecheckerboard="0"
     inkscape:deskcolor="#d1d1d1"
     inkscape:zoom="4.1609901"
     inkscape:cx="160.89921"
     inkscape:cy="123.28796"
     inkscape:window-width="3840"
     inkscape:window-height="2054"
     inkscape:window-x="1285"
     inkscape:window-y="-11"
     inkscape:window-maximized="1"
     inkscape:current-layer="g58" />
  <g
     transform="translate(177.41438,177.41438)"
     fill="none"
     stroke="#000000"
     stroke-width="0.5"
     stroke-linecap="round"
     id="g58"
     inkscape:transform-center-x="-0.026056372"
     inkscape:transform-center-y="-79.145539">
    <circle
       r="1.5"
       id="circle1"
       cx="0"
       cy="0" />
    <path
       d="m -5.2,0 h 3.7 m 3,0 H 5.2 M 0,-5.2 v 3.7 m 0,3 v 3.7"
       id="path1" />
    <path
       d="M -8.7,0 A 8.7,8.7 0 0 1 8.7,0"
       id="path2" />
    <path
       d="M -176.7,0 A 176.7,176.7 0 0 1 176.7,0 V 18.5 H -176.7 Z"
       stroke-width="1"
       id="path3"
       style="fill:#e0f6ff;fill-opacity:0.39915076" />
    <path
       d="m 8.7,0 h 124.1 m 26.9,0 h 17"
       id="path19" />
    <g
       transform="matrix(0,-1.060304,1.060304,0,0,0.1024825)"
       id="g20"
       style="font-size:10px;font-family:'Noto Sans', sans-serif;text-anchor:middle;fill:#000000;stroke:none;stroke-width:0.471563">
      <text
         y="-136.5"
         fill="#0000ff"
         id="text20"
         style="stroke-width:0.471563">180</text>
    </g>
    <g
       transform="matrix(0.18411986,-1.0441956,1.0441956,0.18411986,0,0.1024825)"
       id="g22"
       style="font-size:10px;font-family:'Noto Sans', sans-serif;text-anchor:middle;fill:#000000;stroke:none;stroke-width:0.471563">
      <text
         y="-136.5"
         fill="#0000ff"
         id="text22"
         style="stroke-width:0.471563">170</text>
    </g>
    <g
       transform="matrix(0.36264533,-0.99635987,0.99635987,0.36264533,0,0.1024825)"
       id="g24"
       style="font-size:10px;font-family:'Noto Sans', sans-serif;text-anchor:middle;fill:#000000;stroke:none;stroke-width:0.471563">
      <text
         y="-136.5"
         fill="#0000ff"
         id="text24"
         style="stroke-width:0.471563">160</text>
    </g>
    <g
       transform="matrix(0.53015201,-0.91825022,0.91825022,0.53015201,0,0.1024825)"
       id="g26"
       style="font-size:10px;font-family:'Noto Sans', sans-serif;text-anchor:middle;fill:#000000;stroke:none;stroke-width:0.471563">
      <text
         y="-136.5"
         fill="#0000ff"
         id="text26"
         style="stroke-width:0.471563">150</text>
    </g>
    <g
       transform="matrix(0.68155029,-0.81224001,0.81224001,0.68155029,0,0.1024825)"
       id="g28"
       style="font-size:10px;font-family:'Noto Sans', sans-serif;text-anchor:middle;fill:#000000;stroke:none;stroke-width:0.471563">
      <text
         y="-136.5"
         fill="#0000ff"
         id="text28"
         style="stroke-width:0.471563">140</text>
    </g>
    <g
       transform="matrix(0.81224001,-0.68155029,0.68155029,0.81224001,0,0.1024825)"
       id="g30"
       style="font-size:10px;font-family:'Noto Sans', sans-serif;text-anchor:middle;fill:#000000;stroke:none;stroke-width:0.471563">
      <text
         y="-136.5"
         fill="#0000ff"
         id="text30"
         style="stroke-width:0.471563">130</text>
    </g>
    <g
       transform="matrix(0.91825022,-0.53015201,0.53015201,0.91825022,0,0.1024825)"
       id="g32"
       style="font-size:10px;font-family:'Noto Sans', sans-serif;text-anchor:middle;fill:#000000;stroke:none;stroke-width:0.471563">
      <text
         y="-136.5"
         fill="#0000ff"
         id="text32"
         style="stroke-width:0.471563">120</text>
    </g>
    <g
       transform="matrix(0.99635987,-0.36264533,0.36264533,0.99635987,0,0.1024825)"
       id="g34"
       style="font-size:10px;font-family:'Noto Sans', sans-serif;text-anchor:middle;fill:#000000;stroke:none;stroke-width:0.471563">
      <text
         y="-136.5"
         fill="#0000ff"
         id="text34"
         style="stroke-width:0.471563">110</text>
    </g>
    <g
       transform="matrix(1.0441956,-0.18411986,0.18411986,1.0441956,0,0.1024825)"
       id="g36"
       style="font-size:10px;font-family:'Noto Sans', sans-serif;text-anchor:middle;fill:#000000;stroke:none;stroke-width:0.471563">
      <text
         y="-136.5"
         fill="#0000ff"
         id="text36"
         style="stroke-width:0.471563">100</text>
    </g>
    <g
       id="g38"
       style="font-size:10px;font-family:'Noto Sans', sans-serif;text-anchor:middle;fill:#000000;stroke:none;stroke-width:0.471563"
       transform="matrix(1.060304,0,0,1.060304,0,0.1024825)">
      <text
         y="-136.5"
         fill="#0000ff"
         id="text38"
         style="stroke-width:0.471563">90</text>
    </g>
    <g
       transform="matrix(1.0441956,0.18411986,-0.18411986,1.0441956,0,0.1024825)"
       id="g40"
       style="font-size:10px;font-family:'Noto Sans', sans-serif;text-anchor:middle;fill:#000000;stroke:none;stroke-width:0.471563">
      <text
         y="-136.5"
         fill="#0000ff"
         id="text40"
         style="stroke-width:0.471563">80</text>
    </g>
    <g
       transform="matrix(0.99635987,0.36264533,-0.36264533,0.99635987,0,0.1024825)"
       id="g42"
       style="font-size:10px;font-family:'Noto Sans', sans-serif;text-anchor:middle;fill:#000000;stroke:none;stroke-width:0.471563">
      <text
         y="-136.5"
         fill="#0000ff"
         id="text42"
         style="stroke-width:0.471563">70</text>
    </g>
    <g
       transform="matrix(0.91825022,0.53015201,-0.53015201,0.91825022,0,0.1024825)"
       id="g44"
       style="font-size:10px;font-family:'Noto Sans', sans-serif;text-anchor:middle;fill:#000000;stroke:none;stroke-width:0.471563">
      <text
         y="-136.5"
         fill="#0000ff"
         id="text44"
         style="stroke-width:0.471563">60</text>
    </g>
    <g
       transform="matrix(0.81224001,0.68155029,-0.68155029,0.81224001,0,0.1024825)"
       id="g46"
       style="font-size:10px;font-family:'Noto Sans', sans-serif;text-anchor:middle;fill:#000000;stroke:none;stroke-width:0.471563">
      <text
         y="-136.5"
         fill="#0000ff"
         id="text46"
         style="stroke-width:0.471563">50</text>
    </g>
    <g
       transform="matrix(0.68155029,0.81224001,-0.81224001,0.68155029,0,0.1024825)"
       id="g48"
       style="font-size:10px;font-family:'Noto Sans', sans-serif;text-anchor:middle;fill:#000000;stroke:none;stroke-width:0.471563">
      <text
         y="-136.5"
         fill="#0000ff"
         id="text48"
         style="stroke-width:0.471563">40</text>
    </g>
    <g
       transform="matrix(0.53015201,0.91825022,-0.91825022,0.53015201,0,0.1024825)"
       id="g50"
       style="font-size:10px;font-family:'Noto Sans', sans-serif;text-anchor:middle;fill:#000000;stroke:none;stroke-width:0.471563">
      <text
         y="-136.5"
         fill="#0000ff"
         id="text50"
         style="stroke-width:0.471563">30</text>
    </g>
    <g
       transform="matrix(0.36264533,0.99635987,-0.99635987,0.36264533,0,0.1024825)"
       id="g52"
       style="font-size:10px;font-family:'Noto Sans', sans-serif;text-anchor:middle;fill:#000000;stroke:none;stroke-width:0.471563">
      <text
         y="-136.5"
         fill="#0000ff"
         id="text52"
         style="stroke-width:0.471563">20</text>
    </g>
    <g
       transform="matrix(0.18411986,1.0441956,-1.0441956,0.18411986,0,0.1024825)"
       id="g54"
       style="font-size:10px;font-family:'Noto Sans', sans-serif;text-anchor:middle;fill:#000000;stroke:none;stroke-width:0.471563">
      <text
         y="-136.5"
         fill="#0000ff"
         id="text54"
         style="stroke-width:0.471563">10</text>
    </g>
    <g
       transform="matrix(0,1.060304,-1.060304,0,0,0.1024825)"
       id="g56"
       style="font-size:10px;font-family:'Noto Sans', sans-serif;text-anchor:middle;fill:#000000;stroke:none;stroke-width:0.471563">
      <text
         y="-136.5"
         fill="#0000ff"
         id="text56"
         style="stroke-width:0.471563">0</text>
    </g>
    <path
       d="M 8.5708598,-1.518563 130.7855,-23.068301 m 26.49133,-4.671137 16.74173,-2.952019"
       id="path6"
       inkscape:transform-center-x="-91.337909"
       inkscape:transform-center-y="-16.083768" />
    <path
       d="M 8.1799859,-2.9916308 124.79584,-45.436329 m 25.27773,-9.200344 15.97477,-5.814342"
       id="path22"
       inkscape:transform-center-x="-87.157362"
       inkscape:transform-center-y="-31.700081" />
    <path
       d="M 7.5392547,-4.3744448 115.01301,-66.424443 m 23.29608,-13.450002 14.72243,-8.499999"
       id="path23"
       inkscape:transform-center-x="-80.328586"
       inkscape:transform-center-y="-46.353203" />
    <path
       d="M 6.6681345,-5.6249889 101.73425,-85.39493 m 20.60659,-17.29099 13.02276,-10.92739"
       id="path24"
       inkscape:transform-center-x="-71.059066"
       inkscape:transform-center-y="-59.597908" />
    <path
       d="M 5.5930939,-6.705266 85.363037,-101.77138 m 17.290983,-20.6066 10.92739,-13.02275"
       id="path25"
       inkscape:transform-center-x="-59.630451"
       inkscape:transform-center-y="-71.031757" />
    <path
       d="M 4.3467973,-7.5824525 66.396798,-115.0562 m 13.449996,-23.29609 8.500001,-14.72243"
       id="path26"
       inkscape:transform-center-x="-46.389995"
       inkscape:transform-center-y="-80.307345" />
    <path
       d="M 2.967113,-8.2298955 45.411814,-124.84574 m 9.200337,-25.27774 5.814344,-15.97478"
       id="path27"
       inkscape:transform-center-x="-31.740003"
       inkscape:transform-center-y="-87.142837" />
    <path
       d="M 1.4959618,-8.6279227 23.045704,-130.84256 m 4.671129,-26.49133 2.95202,-16.74174"
       id="path28"
       inkscape:transform-center-x="-16.125606"
       inkscape:transform-center-y="-91.330536" />
    <path
       d="m -0.02195602,-8.7644402 4.14e-6,-124.0999998 m -7.12e-6,-26.9 -4.6e-7,-17"
       id="path29"
       inkscape:transform-center-x="-0.021242743"
       inkscape:transform-center-y="-92.7432" />
    <path
       d="M -1.5405193,-8.6353001 -23.090254,-130.84994 m -4.671143,-26.49133 -2.95202,-16.74173"
       id="path30"
       inkscape:transform-center-x="16.08377"
       inkscape:transform-center-y="-91.33791" />
    <path
       d="M -3.0135873,-8.2444261 -45.458283,-124.86028 m -9.200349,-25.27773 -5.814343,-15.97477"
       id="path31"
       inkscape:transform-center-x="31.700083"
       inkscape:transform-center-y="-87.157363" />
    <path
       d="M -4.3964015,-7.6036948 -66.446397,-115.07745 m -13.450007,-23.29608 -8.5,-14.72243"
       id="path32"
       inkscape:transform-center-x="46.353205"
       inkscape:transform-center-y="-80.328587" />
    <path
       d="M -5.6469458,-6.7325745 -85.416884,-101.79869 m -17.290996,-20.60659 -10.92739,-13.02276"
       id="path33"
       inkscape:transform-center-x="59.59791"
       inkscape:transform-center-y="-71.059067" />
    <path
       d="M -6.7272231,-5.6575338 -101.79333,-85.427477 m -20.60661,-17.290983 -13.02276,-10.92739"
       id="path34"
       inkscape:transform-center-x="71.031764"
       inkscape:transform-center-y="-59.630452" />
    <path
       d="M -7.6044098,-4.4112371 -115.07815,-66.461239 m -23.2961,-13.449994 -14.72244,-8.5"
       id="path35"
       inkscape:transform-center-x="80.307352"
       inkscape:transform-center-y="-46.389995" />
    <path
       d="M -8.2518529,-3.0315527 -124.8677,-45.476256 m -25.27774,-9.200334 -15.97478,-5.814341"
       id="path36"
       inkscape:transform-center-x="87.142839"
       inkscape:transform-center-y="-31.740002" />
    <path
       d="M -8.6498803,-1.5604014 -130.86452,-23.110145 m -26.49133,-4.671127 -16.74174,-2.952016"
       id="path37"
       inkscape:transform-center-x="91.330538"
       inkscape:transform-center-y="-16.125605" />
    <path
       d="m -8.7863981,-0.04248342 -124.1000019,-5.1e-6 m -26.9,9.09e-6 -17,4.4e-6"
       id="path38"
       inkscape:transform-center-x="92.743202"
       inkscape:transform-center-y="-0.021241888" />
  </g>
</svg>
