<?xml version="1.0" encoding="UTF-8" standalone="no"?>
<svg
   version="1.1"
   width="354.82877"
   height="196.48625"
   viewBox="0 0 354.82877 196.48625"
   id="svg58"
   sodipodi:docname="Rapporteur_180deg proche marche.svg"
   inkscape:version="1.4 (86a8ad7, 2024-10-11)"
   xmlns:inkscape="http://www.inkscape.org/namespaces/inkscape"
   xmlns:sodipodi="http://sodipodi.sourceforge.net/DTD/sodipodi-0.dtd"
   xmlns="http://www.w3.org/2000/svg"
   xmlns:svg="http://www.w3.org/2000/svg">
  <defs
     id="defs58" />
  <sodipodi:namedview
     id="namedview58"
     pagecolor="#ffffff"
     bordercolor="#666666"
     borderopacity="1.0"
     inkscape:showpageshadow="2"
     inkscape:pageopacity="0.0"
     inkscape:pagecheckerboard="0"
     inkscape:deskcolor="#d1d1d1"
     inkscape:zoom="5.0193225"
     inkscape:cx="177.41438"
     inkscape:cy="98.320043"
     inkscape:window-width="3102"
     inkscape:window-height="1931"
     inkscape:window-x="1729"
     inkscape:window-y="101"
     inkscape:window-maximized="0"
     inkscape:current-layer="g58"
     showguides="true">
    <sodipodi:guide
       position="177.42561,18.577803"
       orientation="1,0"
       id="guide8"
       inkscape:locked="false" />
    <sodipodi:guide
       position="176.31397,19.083097"
       orientation="0,-1"
       id="guide9"
       inkscape:locked="false" />
  </sodipodi:namedview>
  <g
     transform="translate(177.41438,177.41438)"
     fill="none"
     stroke="#000000"
     stroke-width="0.5"
     stroke-linecap="round"
     id="g58"
     inkscape:transform-center-x="-0.026056372"
     inkscape:transform-center-y="-79.145539">
    <circle
       r="1.5"
       id="circle1"
       cx="0"
       cy="0" />
    <path
       d="m -5.2,0 h 3.7 m 3,0 H 5.2 M 0,-5.2 v 3.7 m 0,3 v 3.7"
       id="path1" />
    <path
       d="M -8.7,0 A 8.7,8.7 0 0 1 8.7,0"
       id="path2" />
    <path
       id="path3"
       style="fill:#e0f6ff;fill-opacity:0.399151"
       d="M -3.175e-4,-176.69954 C -97.588425,-176.69911 -176.69911,-97.588425 -176.69954,-3.175e-4 V 18.499683 H 176.70085 V -3.175e-4 C 176.70042,-97.589185 97.58855,-176.70018 -3.175e-4,-176.69954 Z m -0.078125,50.86133 c 57.7018175,-0.0205 108.0053125,44.041316 121.9824225,95.447268 h -0.26953 c 0.16622,0.421336 0.26562,0.876558 0.26562,1.357421 0,2.066098 -1.68327,3.730469 -3.77343,3.730469 h -236.61329 c -2.13997,0 -3.38769,-1.409558 -3.63673,-2.977581 -0.0925,-0.582625 0.02,-1.048071 0.25978,-2.3857 14.07548,-51.231117 64.244074,-95.140997 121.7851575,-95.171877 z"
       sodipodi:nodetypes="cccccccccsssscc" />
    <path
       d="m 8.7,0 h 124.1 m 26.9,0 h 17"
       id="path19" />
    <g
       font-family="'Noto Sans', sans-serif"
       font-size="10px"
       text-anchor="middle"
       fill="#000000"
       stroke="none"
       id="g57">
      <g
         transform="rotate(-90)"
         id="g20">
        <text
           y="-150.7"
           id="text19">0</text>
        <text
           y="-136.5"
           fill="#0000ff"
           id="text20">180</text>
      </g>
      <g
         transform="rotate(-80)"
         id="g22">
        <text
           y="-150.7"
           id="text21">10</text>
        <text
           y="-136.5"
           fill="#0000ff"
           id="text22">170</text>
      </g>
      <g
         transform="rotate(-70)"
         id="g24">
        <text
           y="-150.7"
           id="text23">20</text>
        <text
           y="-136.5"
           fill="#0000ff"
           id="text24">160</text>
      </g>
      <g
         transform="rotate(-60)"
         id="g26">
        <text
           y="-150.7"
           id="text25">30</text>
        <text
           y="-136.5"
           fill="#0000ff"
           id="text26">150</text>
      </g>
      <g
         transform="rotate(-50)"
         id="g28">
        <text
           y="-150.7"
           id="text27">40</text>
        <text
           y="-136.5"
           fill="#0000ff"
           id="text28">140</text>
      </g>
      <g
         transform="rotate(-40)"
         id="g30">
        <text
           y="-150.7"
           id="text29">50</text>
        <text
           y="-136.5"
           fill="#0000ff"
           id="text30">130</text>
      </g>
      <g
         transform="rotate(-30)"
         id="g32">
        <text
           y="-150.7"
           id="text31">60</text>
        <text
           y="-136.5"
           fill="#0000ff"
           id="text32">120</text>
      </g>
      <g
         transform="rotate(-20)"
         id="g34">
        <text
           y="-150.7"
           id="text33">70</text>
        <text
           y="-136.5"
           fill="#0000ff"
           id="text34">110</text>
      </g>
      <g
         transform="rotate(-10)"
         id="g36">
        <text
           y="-150.7"
           id="text35">80</text>
        <text
           y="-136.5"
           fill="#0000ff"
           id="text36">100</text>
      </g>
      <g
         id="g38">
        <text
           y="-150.7"
           id="text37">90</text>
        <text
           y="-136.5"
           fill="#0000ff"
           id="text38">90</text>
      </g>
      <g
         transform="rotate(10)"
         id="g40">
        <text
           y="-150.7"
           id="text39">100</text>
        <text
           y="-136.5"
           fill="#0000ff"
           id="text40">80</text>
      </g>
      <g
         transform="rotate(20)"
         id="g42">
        <text
           y="-150.7"
           id="text41">110</text>
        <text
           y="-136.5"
           fill="#0000ff"
           id="text42">70</text>
      </g>
      <g
         transform="rotate(30)"
         id="g44">
        <text
           y="-150.7"
           id="text43">120</text>
        <text
           y="-136.5"
           fill="#0000ff"
           id="text44">60</text>
      </g>
      <g
         transform="rotate(40)"
         id="g46">
        <text
           y="-150.7"
           id="text45">130</text>
        <text
           y="-136.5"
           fill="#0000ff"
           id="text46">50</text>
      </g>
      <g
         transform="rotate(50)"
         id="g48">
        <text
           y="-150.7"
           id="text47">140</text>
        <text
           y="-136.5"
           fill="#0000ff"
           id="text48">40</text>
      </g>
      <g
         transform="rotate(60)"
         id="g50">
        <text
           y="-150.7"
           id="text49">150</text>
        <text
           y="-136.5"
           fill="#0000ff"
           id="text50">30</text>
      </g>
      <g
         transform="rotate(70)"
         id="g52">
        <text
           y="-150.7"
           id="text51">160</text>
        <text
           y="-136.5"
           fill="#0000ff"
           id="text52">20</text>
      </g>
      <g
         transform="rotate(80)"
         id="g54">
        <text
           y="-150.7"
           id="text53">170</text>
        <text
           y="-136.5"
           fill="#0000ff"
           id="text54">10</text>
      </g>
      <g
         transform="rotate(90)"
         id="g56">
        <text
           y="-150.7"
           id="text55">180</text>
        <text
           y="-136.5"
           fill="#0000ff"
           id="text56">0</text>
      </g>
    </g>
    <path
       d="M -8.7145818,0.06130422 H -132.81458 m -26.9,0 h -17"
       id="path6"
       inkscape:transform-center-x="92.707291"
       inkscape:transform-center-y="0.030652113" />
    <path
       style="fill:none;fill-opacity:0.399151;stroke-linecap:round;stroke-linejoin:round"
       id="path7"
       sodipodi:type="arc"
       sodipodi:cx="2.9345704e-06"
       sodipodi:cy="-0.14446728"
       sodipodi:rx="146.94168"
       sodipodi:ry="146.94168"
       sodipodi:start="3.1405793"
       sodipodi:end="6.283113"
       sodipodi:open="true"
       sodipodi:arc-type="arc"
       d="M -146.9416,0.00443658 A 146.94168,146.94168 0 0 1 -73.559856,-127.34826 146.94168,146.94168 0 0 1 73.421719,-127.42805 146.94168,146.94168 0 0 1 146.94168,-0.15509222" />
    <path
       id="path8"
       style="fill:none;stroke:#000000;stroke-width:0.5;stroke-linecap:round;stroke-linejoin:miter;stroke-dasharray:none;stroke-opacity:1"
       inkscape:transform-center-x="-160.90111"
       inkscape:transform-center-y="0.096364115"
       d="m 145.1032,-3.175e-4 h 3.73047 z m 14.52539,0.08984375 h 17.11133 z" />
    <path
       id="path28"
       style="fill:none;stroke:#000000;stroke-width:0.5;stroke-linecap:round;stroke-linejoin:miter;stroke-dasharray:none;stroke-opacity:1"
       inkscape:transform-center-x="-158.47339"
       inkscape:transform-center-y="-27.845285"
       d="m 142.908,-25.194454 3.6738,-0.647789 z m 14.32032,-2.433829 16.85137,-2.971351 z" />
    <path
       id="path29"
       style="fill:none;stroke:#000000;stroke-width:0.5;stroke-linecap:round;stroke-linejoin:miter;stroke-dasharray:none;stroke-opacity:1"
       inkscape:transform-center-x="-151.23054"
       inkscape:transform-center-y="-54.940868"
       d="m 136.37123,-49.624641 3.5055,-1.275897 z m 13.68014,-4.883552 16.07939,-5.852419 z" />
    <path
       id="path30"
       style="fill:none;stroke:#000000;stroke-width:0.5;stroke-linecap:round;stroke-linejoin:miter;stroke-dasharray:none;stroke-opacity:1"
       inkscape:transform-center-x="-139.39262"
       inkscape:transform-center-y="-80.3671"
       d="m 125.69151,-72.548581 3.23069,-1.865237 z m 12.62429,-7.184891 14.81885,-8.555664 z" />
    <path
       id="path31"
       style="fill:none;stroke:#000000;stroke-width:0.5;stroke-linecap:round;stroke-linejoin:miter;stroke-dasharray:none;stroke-opacity:1"
       inkscape:transform-center-x="-123.31933"
       inkscape:transform-center-y="-103.35142"
       d="m 111.19334,-93.26974 2.85772,-2.397903 z m 11.18486,-9.26792 13.10804,-10.99895 z" />
    <path
       id="path32"
       style="fill:none;stroke:#000000;stroke-width:0.5;stroke-linecap:round;stroke-linejoin:miter;stroke-dasharray:none;stroke-opacity:1"
       inkscape:transform-center-x="-103.49905"
       inkscape:transform-center-y="-123.19546"
       d="m 93.317241,-111.15852 2.397913,-2.85771 z m 9.405579,-11.06935 10.99895,-13.10804 z" />
    <path
       id="path33"
       style="fill:none;stroke:#000000;stroke-width:0.5;stroke-linecap:round;stroke-linejoin:miter;stroke-dasharray:none;stroke-opacity:1"
       inkscape:transform-center-x="-80.534"
       inkscape:transform-center-y="-139.29627"
       d="m 72.606366,-125.67138 1.865247,-3.23068 z m 7.340515,-12.53444 8.555664,-14.81885 z" />
    <path
       id="path34"
       style="fill:none;stroke:#000000;stroke-width:0.5;stroke-linecap:round;stroke-linejoin:miter;stroke-dasharray:none;stroke-opacity:1"
       inkscape:transform-center-x="-55.121964"
       inkscape:transform-center-y="-151.16463"
       d="m 49.690004,-136.36735 1.275908,-3.50549 z m 5.052414,-13.61868 5.852418,-16.07939 z" />
    <path
       id="path35"
       style="fill:none;stroke:#000000;stroke-width:0.5;stroke-linecap:round;stroke-linejoin:miter;stroke-dasharray:none;stroke-opacity:1"
       inkscape:transform-center-x="-28.035075"
       inkscape:transform-center-y="-158.43993"
       d="m 25.264458,-142.92144 0.647802,-3.67379 z m 2.610797,-14.28912 2.97135,-16.85137 z" />
    <path
       id="path36"
       style="fill:none;stroke:#000000;stroke-width:0.5;stroke-linecap:round;stroke-linejoin:miter;stroke-dasharray:none;stroke-opacity:1"
       inkscape:transform-center-x="-0.09635469"
       inkscape:transform-center-y="-160.90111"
       d="m 0.07188478,-145.1345 1.349e-5,-3.73047 z m 0.08985347,-14.5254 -1.17e-6,-17.11133 z" />
    <path
       id="path37"
       style="fill:none;stroke:#000000;stroke-width:0.5;stroke-linecap:round;stroke-linejoin:miter;stroke-dasharray:none;stroke-opacity:1"
       inkscape:transform-center-x="27.845294"
       inkscape:transform-center-y="-158.47339"
       d="m -25.12225,-142.9393 -0.647777,-3.6738 z m -2.433821,-14.32033 -2.971353,-16.85137 z" />
    <path
       id="path38"
       style="fill:none;stroke:#000000;stroke-width:0.5;stroke-linecap:round;stroke-linejoin:miter;stroke-dasharray:none;stroke-opacity:1"
       inkscape:transform-center-x="54.940877"
       inkscape:transform-center-y="-151.23054"
       d="m -49.552436,-136.40253 -1.275885,-3.5055 z m -4.883545,-13.68015 -5.852422,-16.07939 z" />
    <path
       id="path39"
       style="fill:none;stroke:#000000;stroke-width:0.5;stroke-linecap:round;stroke-linejoin:miter;stroke-dasharray:none;stroke-opacity:1"
       inkscape:transform-center-x="80.367109"
       inkscape:transform-center-y="-139.39262"
       d="m -72.476375,-125.72281 -1.865225,-3.23069 z m -7.184886,-12.6243 -8.555667,-14.81885 z" />
    <path
       id="path40"
       style="fill:none;stroke:#000000;stroke-width:0.5;stroke-linecap:round;stroke-linejoin:miter;stroke-dasharray:none;stroke-opacity:1"
       inkscape:transform-center-x="103.35142"
       inkscape:transform-center-y="-123.31933"
       d="m -93.197533,-111.22464 -2.397891,-2.85772 z m -9.267917,-11.18487 -10.99895,-13.10804 z" />
    <path
       id="path41"
       style="fill:none;stroke:#000000;stroke-width:0.5;stroke-linecap:round;stroke-linejoin:miter;stroke-dasharray:none;stroke-opacity:1"
       inkscape:transform-center-x="123.19546"
       inkscape:transform-center-y="-103.49905"
       d="m -111.08631,-93.348541 -2.8577,-2.397915 z m -11.06935,-9.405589 -13.10804,-10.99895 z" />
    <path
       id="path42"
       style="fill:none;stroke:#000000;stroke-width:0.5;stroke-linecap:round;stroke-linejoin:miter;stroke-dasharray:none;stroke-opacity:1"
       inkscape:transform-center-x="139.29627"
       inkscape:transform-center-y="-80.534"
       d="m -125.59916,-72.637666 -3.23068,-1.865251 z m -12.53445,-7.340525 -14.81885,-8.555664 z" />
    <path
       id="path43"
       style="fill:none;stroke:#000000;stroke-width:0.5;stroke-linecap:round;stroke-linejoin:miter;stroke-dasharray:none;stroke-opacity:1"
       inkscape:transform-center-x="151.16463"
       inkscape:transform-center-y="-55.121964"
       d="m -136.29513,-49.721305 -3.50549,-1.275912 z m -13.61869,-5.052422 -16.07939,-5.852418 z" />
    <path
       id="path44"
       style="fill:none;stroke:#000000;stroke-width:0.5;stroke-linecap:round;stroke-linejoin:miter;stroke-dasharray:none;stroke-opacity:1"
       inkscape:transform-center-x="158.43993"
       inkscape:transform-center-y="-28.035075"
       d="m -142.84922,-25.29576 -3.67379,-0.647806 z m -14.28913,-2.610803 -16.85137,-2.97135 z" />
    <path
       id="path45"
       style="fill:none;stroke:#000000;stroke-width:0.5;stroke-linecap:round;stroke-linejoin:miter;stroke-dasharray:none;stroke-opacity:1"
       inkscape:transform-center-x="160.90111"
       inkscape:transform-center-y="-0.096354715"
       d="m -145.06228,-0.10318769 -3.73047,-1.743e-5 z m -14.52541,-0.0898577 -17.11133,1.17e-6 z" />
    <path
       id="path46"
       style="fill:none;stroke:#000000;stroke-width:0.5;stroke-linecap:round;stroke-linejoin:miter;stroke-dasharray:none;stroke-opacity:1"
       inkscape:transform-center-x="-172.41748"
       inkscape:transform-center-y="-2.9990209"
       d="M 173.0114 -27.437817 L 167.64812 -26.588208 L 173.0114 -27.437817 z M 173.46257 -24.41438 L 168.08562 -23.658521 L 173.46257 -24.41438 z M 173.86101 -21.38313 L 168.47234 -20.721021 L 173.86101 -21.38313 z M 174.20671 -18.346021 L 168.80632 -17.777661 L 174.20671 -18.346021 z M 174.54851 -15.113599 L 164.05046 -14.129224 L 174.54851 -15.113599 z M 174.73992 -12.256177 L 169.32195 -11.877271 L 174.73992 -12.256177 z M 174.92546 -9.2034425 L 169.50359 -8.9202394 L 174.92546 -9.2034425 z M 175.06023 -6.1507081 L 169.6325 -5.9593019 L 175.06023 -6.1507081 z M 175.13835 -3.0940675 L 169.71062 -2.9983644 L 175.13835 -3.0940675 z " />
    <path
       id="path58"
       style="fill:none;stroke:#000000;stroke-width:0.5;stroke-linecap:round;stroke-linejoin:miter;stroke-dasharray:none;stroke-opacity:1"
       inkscape:transform-center-x="-170.32212"
       inkscape:transform-center-y="-26.965711"
       d="m 173.01093,-27.438025 -5.36357,0.849724 z" />
    <path
       id="path59"
       style="fill:none;stroke:#000000;stroke-width:0.5;stroke-linecap:round;stroke-linejoin:miter;stroke-dasharray:none;stroke-opacity:1"
       inkscape:transform-center-x="-169.59031"
       inkscape:transform-center-y="-15.206151"
       d="m 173.0114,-27.437817 -5.36328,0.849609 z m 0.45117,3.023437 -5.37695,0.755859 z m 0.39844,3.03125 -5.38867,0.662109 z m 0.3457,3.037109 -5.40039,0.56836 z m 0.3418,3.232422 -10.49805,0.984375 z m 0.19141,2.857422 -5.41797,0.378906 z m 0.18554,3.0527345 -5.42187,0.2832031 z m 0.13477,3.0527344 -5.42773,0.1914062 z m 0.0781,3.0566406 -5.42773,0.095703 z" />
    <path
       id="path60"
       style="fill:none;stroke:#000000;stroke-width:0.5;stroke-linecap:round;stroke-linejoin:miter;stroke-dasharray:none;stroke-opacity:1"
       inkscape:transform-center-x="-165.52053"
       inkscape:transform-center-y="-44.730952"
       d="m 165.62058,-57.063561 -5.13427,1.768025 z m 0.96933,2.899159 -5.16401,1.678074 z m 0.91875,2.916011 -5.19183,1.587782 z m 0.86784,2.930938 -5.21965,1.497493 z m 0.89791,3.123961 -10.16762,2.792388 z m 0.68469,2.780773 -5.26986,1.313971 z m 0.71282,2.974138 -5.29032,1.220399 z m 0.66283,2.982954 -5.31204,1.131014 z m 0.60769,2.996642 -5.32865,1.036764 z" />
    <path
       id="path61"
       style="fill:none;stroke:#000000;stroke-width:0.5;stroke-linecap:round;stroke-linejoin:miter;stroke-dasharray:none;stroke-opacity:1"
       inkscape:transform-center-x="-155.98122"
       inkscape:transform-center-y="-72.896625"
       d="m 153.19758,-84.955821 -4.74925,2.632721 z m 1.45804,2.686792 -4.79416,2.549301 z m 1.41115,2.712171 -4.83724,2.465212 z m 1.36361,2.735712 -4.88031,2.381125 z m 1.42674,2.92058 -9.52826,4.515554 z m 1.15716,2.619632 -4.96163,2.20911 z m 1.21845,2.805174 -4.99803,2.120513 z m 1.17074,2.822537 -5.03494,2.036258 z m 1.11882,2.845592 -5.06766,1.946324 z" />
    <path
       id="path62"
       style="fill:none;stroke:#000000;stroke-width:0.5;stroke-linecap:round;stroke-linejoin:miter;stroke-dasharray:none;stroke-opacity:1"
       inkscape:transform-center-x="-141.01274"
       inkscape:transform-center-y="-98.847369"
       d="m 136.11988,-110.2671 -4.21993,3.41742 z m 1.90244,2.39278 -4.27864,3.34307 z m 1.86068,2.42593 -4.33567,3.26774 z m 1.81794,2.45736 -4.39269,3.192408 z m 1.91222,2.62846 -8.59939,6.101517 z m 1.59447,2.378895 -4.50264,3.037126 z m 1.68706,2.550975 -4.55388,2.956197 z m 1.64308,2.57636 -4.60486,2.87963 z m 1.59595,2.60808 -4.65269,2.796744 z" />
    <path
       id="path63"
       style="fill:none;stroke:#000000;stroke-width:0.5;stroke-linecap:round;stroke-linejoin:miter;stroke-dasharray:none;stroke-opacity:1"
       inkscape:transform-center-x="-121.75966"
       inkscape:transform-center-y="-121.79469"
       d="m 114.90637,-132.22833 -3.56239,4.09828 z m 2.28904,2.02607 -3.63312,4.03526 z m 2.25367,2.06597 -3.70237,3.97098 z m 2.21704,2.10435 -3.7716,3.90669 z m 2.33959,2.25647 -7.40923,7.50209 z m 1.98334,2.06588 -3.90684,3.77286 z m 2.1044,2.21926 -3.97136,3.70206 z m 2.0655,2.2519 -4.03486,3.63551 z m 2.02459,2.29133 -4.09635,3.56218 z" />
    <path
       id="path64"
       style="fill:none;stroke:#000000;stroke-width:0.5;stroke-linecap:round;stroke-linejoin:miter;stroke-dasharray:none;stroke-opacity:1"
       inkscape:transform-center-x="-98.80698"
       inkscape:transform-center-y="-141.04134"
       d="m 90.201611,-150.17224 -2.796611,4.65463 z m 2.606087,1.59781 -2.877209,4.60484 z m 2.578184,1.64323 -2.956569,4.55357 z m 2.548775,1.6874 -3.035912,4.50227 z m 2.695873,1.81592 -5.993938,8.67472 z m 2.31195,1.69009 -3.192336,4.39396 z m 2.4578,1.82012 -3.26817,4.33544 z m 2.42516,1.85902 -3.34226,4.28093 z m 2.39172,1.90495 -3.41556,4.21939 z" />
    <path
       id="path65"
       style="fill:none;stroke:#000000;stroke-width:0.5;stroke-linecap:round;stroke-linejoin:miter;stroke-dasharray:none;stroke-opacity:1"
       inkscape:transform-center-x="-72.852098"
       inkscape:transform-center-y="-156.00252"
       d="m 62.756245,-163.5536 -1.945856,5.06954 z m 2.843952,1.12099 -2.033876,5.03451 z m 2.824359,1.17057 -2.120933,4.9978 z m 2.803067,1.21918 -2.207978,4.96105 z m 2.970248,1.32019 -4.396527,9.58377 z m 2.570308,1.26295 -2.380835,4.88155 z m 2.736521,1.36568 -2.465678,4.83708 z m 2.711131,1.40965 -2.548107,4.79627 z m 2.686176,1.46069 -2.630981,4.7484 z" />
    <path
       id="path66"
       style="fill:none;stroke:#000000;stroke-width:0.5;stroke-linecap:round;stroke-linejoin:miter;stroke-dasharray:none;stroke-opacity:1"
       inkscape:transform-center-x="-44.683641"
       inkscape:transform-center-y="-165.46773"
       d="m 33.404186,-171.96583 -1.035977,5.33042 z m 2.995404,0.61011 -1.128743,5.31121 z m 2.984718,0.66234 -1.220852,5.29017 z m 2.972191,0.71391 -1.312957,5.2691 z m 3.154371,0.78436 -2.665529,10.20162 z m 2.750569,0.79743 -1.496993,5.22082 z m 2.932095,0.86974 -1.588269,5.19176 z m 2.914726,0.91746 -1.676532,5.16587 z m 2.899013,0.97204 -1.76646,5.13313 z" />
    <path
       id="path67"
       style="fill:none;stroke:#000000;stroke-width:0.5;stroke-linecap:round;stroke-linejoin:miter;stroke-dasharray:none;stroke-opacity:1"
       inkscape:transform-center-x="-15.157493"
       inkscape:transform-center-y="-169.57349"
       d="m 3.0372826,-175.15333 -0.09462,5.42934 z m 3.0558416,0.0807 -0.1893129,5.42652 z m 3.0543875,0.13398 -0.2836761,5.4218 z m 3.0510063,0.18695 -0.378041,5.41705 z m 3.242651,0.2247 -0.853541,10.50949 z m 2.847254,0.30768 -0.567664,5.40145 z m 3.038579,0.34737 -0.6626,5.38869 z m 3.02976,0.39739 -0.754018,5.37851 z m 3.023763,0.45386 -0.848264,5.36189 z" />
    <path
       id="path68"
       style="fill:none;stroke:#000000;stroke-width:0.5;stroke-linecap:round;stroke-linejoin:miter;stroke-dasharray:none;stroke-opacity:1"
       inkscape:transform-center-x="15.206161"
       inkscape:transform-center-y="-169.59031"
       d="m -27.421783,-173.01925 0.849613,5.36329 z m 3.02343,-0.45116 0.755869,5.37695 z m 3.03125,-0.39845 0.662119,5.38869 z m 3.037118,-0.34569 0.568363,5.4004 z m 3.232407,-0.34179 0.98438,10.49804 z m 2.857426,-0.19142 0.378912,5.41797 z m 3.0527359,-0.18555 0.2832026,5.42188 z m 3.0527372,-0.13476 0.1914057,5.42773 z m 3.0566372,-0.0781 0.095705,5.42773 z" />
    <path
       id="path69"
       style="fill:none;stroke:#000000;stroke-width:0.5;stroke-linecap:round;stroke-linejoin:miter;stroke-dasharray:none;stroke-opacity:1"
       inkscape:transform-center-x="44.730962"
       inkscape:transform-center-y="-165.52052"
       d="m -57.047529,-165.62843 1.768031,5.13428 z m 2.899155,-0.96931 1.678083,5.164 z m 2.916008,-0.91877 1.587796,5.19185 z m 2.930949,-0.86783 1.497498,5.21966 z m 3.123948,-0.8979 2.792391,10.16762 z m 2.780776,-0.6847 1.313976,5.26986 z m 2.974137,-0.71283 1.2204,5.29033 z m 2.982959,-0.66282 1.131013,5.31204 z m 2.996638,-0.60769 1.036766,5.32865 z" />
    <path
       id="path70"
       style="fill:none;stroke:#000000;stroke-width:0.5;stroke-linecap:round;stroke-linejoin:miter;stroke-dasharray:none;stroke-opacity:1"
       inkscape:transform-center-x="72.896635"
       inkscape:transform-center-y="-155.98122"
       d="m -84.93979,-153.20543 2.632729,4.74926 z m 2.686792,-1.45802 2.549308,4.79415 z m 2.712164,-1.41117 2.465229,4.83726 z m 2.735725,-1.3636 2.381132,4.88032 z m 2.920569,-1.42673 4.515557,9.52826 z m 2.619633,-1.15717 2.209115,4.96163 z m 2.805171,-1.21846 2.120516,4.99804 z m 2.822544,-1.17073 2.036257,5.03494 z m 2.845588,-1.11882 1.946326,5.06766 z" />
    <path
       id="path71"
       style="fill:none;stroke:#000000;stroke-width:0.5;stroke-linecap:round;stroke-linejoin:miter;stroke-dasharray:none;stroke-opacity:1"
       inkscape:transform-center-x="98.847379"
       inkscape:transform-center-y="-141.01274"
       d="m -110.25107,-136.12772 3.41743,4.21993 z m 2.39279,-1.90243 3.34307,4.27863 z m 2.42591,-1.86069 3.26776,4.33568 z m 2.45738,-1.81794 3.192413,4.3927 z m 2.62845,-1.91221 6.101518,8.59939 z m 2.378892,-1.59448 3.037131,4.50264 z m 2.550971,-1.68706 2.956201,4.55388 z m 2.576368,-1.64308 2.879629,4.60486 z m 2.608076,-1.59595 2.796747,4.65269 z" />
    <path
       id="path72"
       style="fill:none;stroke:#000000;stroke-width:0.5;stroke-linecap:round;stroke-linejoin:miter;stroke-dasharray:none;stroke-opacity:1"
       inkscape:transform-center-x="121.7947"
       inkscape:transform-center-y="-121.75966"
       d="m -132.2123,-114.91421 4.09829,3.56239 z m 2.02608,-2.28903 4.03526,3.63311 z m 2.06595,-2.25367 3.971,3.70237 z m 2.10437,-2.21705 3.90669,3.77161 z m 2.25646,-2.33958 7.50209,7.40923 z m 2.06587,-1.98335 3.77287,3.90685 z m 2.21927,-2.1044 3.70206,3.97136 z m 2.2519,-2.0655 3.63551,4.03486 z m 2.29132,-2.02459 3.56219,4.09636 z" />
    <path
       id="path73"
       style="fill:none;stroke:#000000;stroke-width:0.5;stroke-linecap:round;stroke-linejoin:miter;stroke-dasharray:none;stroke-opacity:1"
       inkscape:transform-center-x="141.04135"
       inkscape:transform-center-y="-98.806975"
       d="m -150.15621,-90.209449 4.65464,2.796609 z m 1.59782,-2.606079 4.60484,2.877199 z m 1.64322,-2.578181 4.55358,2.956566 z m 1.68741,-2.548788 4.50227,3.035922 z m 1.81591,-2.695863 8.67472,5.99394 z m 1.69008,-2.31196 4.39397,3.192348 z m 1.82013,-2.4578 4.33544,3.26817 z m 1.85902,-2.42516 4.28093,3.34227 z m 1.90495,-2.39171 4.21939,3.41556 z" />
    <path
       id="path74"
       style="fill:none;stroke:#000000;stroke-width:0.5;stroke-linecap:round;stroke-linejoin:miter;stroke-dasharray:none;stroke-opacity:1"
       inkscape:transform-center-x="156.00253"
       inkscape:transform-center-y="-72.852092"
       d="m -163.53757,-62.764081 5.06955,1.945852 z m 1.121,-2.843946 5.03451,2.033866 z m 1.17056,-2.824355 4.99781,2.120929 z m 1.21919,-2.803081 4.96105,2.207988 z m 1.32019,-2.970237 9.58376,4.39653 z m 1.26293,-2.570315 4.88156,2.380844 z m 1.36569,-2.736523 4.83708,2.465678 z m 1.40965,-2.711132 4.79627,2.548118 z m 1.46069,-2.686165 4.7484,2.63098 z" />
    <path
       id="path75"
       style="fill:none;stroke:#000000;stroke-width:0.5;stroke-linecap:round;stroke-linejoin:miter;stroke-dasharray:none;stroke-opacity:1"
       inkscape:transform-center-x="165.46774"
       inkscape:transform-center-y="-44.683634"
       d="m -171.9498,-33.412021 5.33043,1.035972 z m 0.61012,-2.995399 5.31121,1.128733 z m 0.66234,-2.984713 5.29017,1.220847 z m 0.71391,-2.972206 5.2691,1.312967 z m 0.78436,-3.154361 10.20161,2.665535 z m 0.79741,-2.750571 5.22083,1.496999 z m 0.86975,-2.932099 5.19176,1.588269 z m 0.91746,-2.914727 5.16588,1.676543 z m 0.97205,-2.899002 5.13312,1.766458 z" />
    <path
       id="path76"
       style="fill:none;stroke:#000000;stroke-width:0.5;stroke-linecap:round;stroke-linejoin:miter;stroke-dasharray:none;stroke-opacity:1"
       inkscape:transform-center-x="169.5735"
       inkscape:transform-center-y="-15.157487"
       d="m -175.1373,-3.0451159 5.42935,0.094614 z m 0.0807,-3.0558384 5.42652,0.189303 z m 0.13399,-3.0543827 5.42179,0.2836712 z m 0.18694,-3.051021 5.41705,0.378051 z m 0.2247,-3.242642 10.50949,0.853549 z m 0.30766,-2.847252 5.40147,0.567669 z m 0.34738,-3.038584 5.38869,0.6626 z m 0.39739,-3.029761 5.37853,0.754027 z m 0.45387,-3.023755 5.36188,0.848265 z" />
  </g>
</svg>
