<svg width="15em" height="10em" version="1.1" viewBox="0 0 210 140" xmlns="http://www.w3.org/2000/svg">
<!-- @3= segment [AB] -->
<path style="stroke:black;fill:none;" d="M50 29 C50 29 52.9 44.26 53.25 50.25 C53.89 54.46 54.25 67.25 54.5 71.5 C54.75 75.75 54.92 88.58 55.75 92.75 M55.75 92.75 C56.0 97.08 59.15 109.75 60 114 "/>
<!-- @6= segment [CA] -->
<path style="stroke:black;fill:none;" d="M189.0 57.26 C189.0 57.26 171.66 54.99 165.83 53.55 C161.12 52.79 147.3 48.98 142.66 47.84 C138.03 46.7 124.24 42.68 119.5 42.13 C114.97 41.01 100.86 40.54 96.33 39.42 C91.59 38.87 77.8 34.85 73.17 33.71 M73.17 33.71 C68.53 32.57 54.63 29.14 50 28 "/>
<!-- Marqueur : 2 traits -->
<line x1="122.820317" y1="46.86639" x2="124.015715" y2="40.986677" style="stroke:black;"/>
<!-- Marqueur : 2 traits -->
<line x1="118.900508" y1="46.069458" x2="120.095906" y2="40.189745" style="stroke:black;"/>
<!-- @7= segment [BC] -->
<path style="stroke:black;fill:none;" d="M59 114 C59 114 75.08 105.72 80.67 103.54 C84.86 101.52 98.0 96.78 102.33 95.09 C106.67 93.4 119.89 88.8 124.0 86.63 C128.56 84.85 141.1 76.96 145.66 75.17 C149.78 73.0 163.0 68.41 167.33 66.72 M167.33 66.72 C171.66 65.02 184.66 59.95 189.0 58.26 "/>
<!-- Marqueur : 2 traits -->
<line x1="119.132104" y1="84.480236" x2="121.532307" y2="89.979238" style="stroke:black;"/>
<!-- Marqueur : 2 traits -->
<line x1="122.798106" y1="82.8801" x2="125.198309" y2="88.379103" style="stroke:black;"/>
<text style="stroke:black;" font-size="12" x="36" y="29">A</text>
<text style="stroke:black;" font-size="12" x="45" y="128">B</text>
<text style="stroke:black;" font-size="12" x="191" y="64">C</text>
</svg>