<svg width="15em" height="10em" version="1.1" viewBox="0 0 210 140" xmlns="http://www.w3.org/2000/svg">
<!-- @3= segment [AB] -->
<path style="stroke:black;fill:none;" d="M43 28 C43 28 44.82 44.5 44.75 50.5 C45.1 54.99 44.55 68.5 44.5 73 C44.45 77.5 43.7 91.03 44.25 95.5 M44.25 95.5 C44.2 100.03 46.45 113.5 47 118 "/>
<!-- @6= segment [CB] -->
<path style="stroke:black;fill:none;" d="M192.41 23.02 C192.41 23.02 177.7 34.6 172.49 37.59 C168.41 40.57 154.91 47.55 150.58 50.16 C146.34 52.58 133.58 59.81 129.66 62.73 C125.19 65.41 113.22 75.61 108.75 78.29 C104.83 81.21 92.06 88.43 87.83 90.86 C83.5 93.47 69.99 100.45 65.92 103.43 M65.92 103.43 C61.63 105.89 49.98 115.09 46 118 "/>
<!-- @7= segment [AC] -->
<path style="stroke:black;fill:none;" d="M43 28 C43 28 61.9 26.13 67.9 26.17 C72.87 25.8 87.82 26.31 92.8 26.34 C97.78 26.37 112.75 27.07 117.7 26.51 C122.72 26.54 137.59 23.65 142.6 23.68 C147.55 23.12 162.53 23.82 167.51 23.85 M167.51 23.85 C172.49 23.88 187.43 23.99 192.41 24.02 "/>
<path d="M 72.98334720937463,27.00055509302081 A 30 30 0 0 1  43.999444906979164,57.98334720937463" style="stroke:black;fill:none;"/>
<text style="stroke:black;" font-size="12" x="29" y="28">A</text>
<text style="stroke:black;" font-size="12" x="32" y="132">B</text>
<text style="stroke:black;" font-size="12" x="194" y="27">C</text>
</svg>