<svg width="15em" height="10em" version="1.1" viewBox="0 0 210 140" xmlns="http://www.w3.org/2000/svg" xmlns:svg="http://www.w3.org/2000/svg"><style> text {font-size:12px; text-align:center;text-anchor:middle;} path{stroke:black;fill:none;stroke-linecap:round}</style>  <path     d="M32 118 C32 118 47.43 115.9 53.43 115.86 C57.69 115.43 70.57 115.74 74.86 115.71 C79.14 115.69 92.05 116.19 96.29 115.57 C100.62 115.54 113.38 112.46 117.71 112.43 C121.95 111.81 134.86 112.31 139.14 112.29 C143.43 112.26 156.31 112.57 160.57 112.14 M160.57 112.14 C164.88 112.11 177.71 110.43 182 110 " />  <path     d="M182 110 C182 110 167.67 98.61 163.6 94.2 C159.93 91.05 150.58 79.86 147.2 76.4 C143.83 72.74 133.68 61.72 129.8 58.6 C126.5 55.22 114.6 47.27 111.4 43.8 M111.4 43.8 C107.63 40.77 98.28 29.56 95 26 " />  <path     d="M95 26 C95 26 87.09 40.67 83.4 45.4 C81.13 49.19 72.43 59.25 69.8 62.8 C66.98 66.41 58.48 77.23 56.2 81.2 C53.68 84.62 48.12 96.18 45.6 99.6 M45.6 99.6 C43.32 103.57 34.72 114.32 32 118 " /><text x="24" y="128">A</text><text x="190" y="120">B</text><text x="92" y="23">C</text><text x="-18.38545" y="86.45488" transform="rotate(-52.965834)">${:AC} ${:u}</text><text x="137.81169" y="-58.535625" transform="rotate(45.688137)">${:BC} ${:u}</text><text x="101.60002" y="130.22336" transform="rotate(-1.68696)">${:AB} ${:u}</text></svg>