<svg width="15em" height="10em" version="1.1" viewBox="0 0 210 140" xmlns="http://www.w3.org/2000/svg">
<!-- @3= segment [AB] -->
<path style="stroke:black;fill:none;" d="M174 119 C174 119 174.02 102.46 174.75 96.5 C174.9 91.97 176.95 78.5 177.5 74 C178.05 69.5 180.3 56.03 180.25 51.5 M180.25 51.5 C180.8 47.03 180.05 33.5 180 29 "/>
<!-- @6= segment [CA] -->
<path style="stroke:black;fill:none;" d="M39.21 63.24 C39.21 63.24 56.22 69.04 61.68 71.54 C66.31 73.25 79.65 79.77 84.14 81.83 C88.64 83.89 101.91 90.6 106.61 92.12 C110.9 94.09 124.78 97.45 129.07 99.41 C133.77 100.94 147.04 107.65 151.54 109.71 M151.54 109.71 C156.03 111.77 169.51 117.94 174 120 "/>
<!-- Marqueur : 2 traits -->
<line x1="104.057663" y1="86.821054" x2="101.764178" y2="92.365414" style="stroke:black;"/>
<!-- Marqueur : 2 traits -->
<line x1="107.753903" y1="88.350044" x2="105.460418" y2="93.894404" style="stroke:black;"/>
<!-- @7= segment [BC] -->
<path style="stroke:black;fill:none;" d="M181 29 C181 29 163.25 34.54 157.37 35.71 C152.73 37.02 138.46 39.47 133.74 40.41 C129.01 41.36 114.69 43.63 110.11 45.12 C105.23 46.09 91.35 51.86 86.48 52.83 C81.89 54.32 67.57 56.6 62.85 57.54 M62.85 57.54 C58.12 58.48 43.94 61.3 39.21 62.24 "/>
<!-- Marqueur : 2 traits -->
<line x1="114.699679" y1="48.099286" x2="113.291046" y2="42.266984" style="stroke:black;"/>
<!-- Marqueur : 2 traits -->
<line x1="110.811477" y1="49.038375" x2="109.402844" y2="43.206072" style="stroke:black;"/>
<text style="stroke:black;" font-size="12" x="170" y="135">A</text>
<text style="stroke:black;" font-size="12" x="181" y="29">B</text>
<text style="stroke:black;" font-size="12" x="23" y="67">C</text>
</svg>