<?xml version="1.0" standalone="no"?>
<!DOCTYPE svg PUBLIC "-//W3C//DTD SVG 1.1//EN" "http://www.w3.org/Graphics/SVG/1.1/DTD/svg11.dtd">
<svg width="218" height="140" version="1.1" viewBox="0 0 218 140" xmlns="http://www.w3.org/2000/svg">
<!-- @3= segment [AB] -->
<path style="stroke:black;fill:none;" d="M40 30 C40 30 54.8 28.14 60.8 28.2 C64.94 27.84 77.44 28.36 81.6 28.4 C85.76 28.44 98.28 29.16 102.4 28.6 C106.6 28.64 119.0 25.76 123.2 25.8 M123.2 25.8 C127.32 25.24 139.84 25.96 144 26 "/>
<!-- Marqueur : 2 traits -->
<line x1="87.887656" y1="25.155949" x2="88.118255" y2="31.151516" style="stroke:black;"/>
<!-- Marqueur : 2 traits -->
<line x1="91.884701" y1="25.002216" x2="92.115299" y2="30.997784" style="stroke:black;"/>
<!-- @7= segment [BC] -->
<path style="stroke:black;fill:none;" d="M144 26 C144 26 138.31 39.23 135.29 44.41 C133.47 48.26 126.73 59.14 124.59 62.83 C122.44 66.51 115.52 77.31 113.88 81.24 C111.87 84.69 108.18 96.2 106.17 99.65 M106.17 99.65 C104.53 103.58 97.61 114.38 95.46 118.07 "/>
<!-- Marqueur : 2 traits -->
<line x1="124.251243" y1="69.893952" x2="118.943631" y2="67.095873" style="stroke:black;"/>
<!-- Marqueur : 2 traits -->
<line x1="122.385857" y1="73.432361" x2="117.078244" y2="70.634281" style="stroke:black;"/>
<!-- @8= segment [AC] -->
<path style="stroke:black;fill:none;" d="M40 30 C40 30 49.23 41.34 52.09 46.61 C54.58 50.04 60.08 61.55 62.19 65.23 C64.12 68.8 69.86 79.58 72.28 82.84 C74.46 86.65 83.19 96.64 85.37 100.45 M85.37 100.45 C87.79 103.71 93.45 114.54 95.46 118.07 "/>
<!-- Marqueur : 2 traits -->
<line x1="68.138899" y1="69.049901" x2="63.061885" y2="72.247389" style="stroke:black;"/>
<!-- Marqueur : 2 traits -->
<line x1="70.270558" y1="72.434577" x2="65.193544" y2="75.632065" style="stroke:black;"/>
<circle id="Point_A" cx="40" cy="30" r="2" style="stroke:black;"/>
<text style="stroke:black;" font-size="12" x="24" y="34">A</text>
<circle id="Point_B" cx="144" cy="26" r="2" style="stroke:black;"/>
<text style="stroke:black;" font-size="12" x="144" y="26">B</text>
<circle id="Point_C" cx="95.464102" cy="118.066642" r="2" style="stroke:black;"/>
<text style="stroke:black;" font-size="12" x="88" y="135">C</text>
</svg>