<svg width="15em" height="10em" version="1.1" viewBox="0 0 210 140" xmlns="http://www.w3.org/2000/svg">
<!-- @3= segment [AB] -->
<path style="stroke:black;fill:none;" d="M189 114 C189 114 187.56 95.75 187.75 89.75 C187.5 84.9 188.35 70.35 188.5 65.5 C188.65 60.65 189.7 46.08 189.25 41.25 M189.25 41.25 C189.4 36.38 187.45 21.85 187 17 "/>
<!-- @6= segment [CB] -->
<path style="stroke:black;fill:none;" d="M38.06 115.56 C38.06 115.56 50.6 105.22 55.8 102.24 C59.44 99.5 71.65 93.27 75.55 90.92 C79.35 88.74 90.81 82.26 94.29 79.6 C98.33 77.16 108.99 67.72 113.03 65.28 C116.51 62.62 127.97 56.14 131.77 53.96 C135.67 51.61 147.88 45.37 151.52 42.64 C155.36 40.43 165.64 31.89 169.26 29.32 M169.26 29.32 C172.94 26.56 184.25 18.66 188 16 "/>
<!-- @7= segment [AC] -->
<path style="stroke:black;fill:none;" d="M189 114 C189 114 173.43 115.44 167.44 115.22 C163.13 115.47 150.19 114.6 145.87 114.44 C141.56 114.29 128.61 113.22 124.31 113.67 C119.98 113.51 107.08 116.05 102.75 115.89 C98.46 116.33 85.5 115.27 81.19 115.11 C76.87 114.96 63.93 114.09 59.62 114.33 M59.62 114.33 C55.31 114.18 42.37 115.31 38.06 115.56 "/>
<path d="M 159.00159409123629,114.30926191658519 A 30 30 0 0 1  188.6907380834148,84.00159409123629" style="stroke:black;fill:none;"/>
<text style="stroke:black;" font-size="12" x="189" y="128">A</text>
<text style="stroke:black;" font-size="12" x="188" y="17">B</text>
<text style="stroke:black;" font-size="12" x="22" y="125">C</text>
</svg>