<svg width="15em" height="9em" viewBox="0 0 79.375 47.625" xmlns="http://www.w3.org/2000/svg"><path d="M34.934 15.235a5.56 5.56 0 004.47 2.331 5.56 5.56 0 004.516-2.239l-4.459-3.32z" fill="#fe2525"/><text style="line-height:1.25;-inkscape-font-specification:Arial" x="38.31" y="9.818" font-size="6.512" font-family="Arial" letter-spacing="0" word-spacing="0" stroke-width=".265"><tspan x="38.31" y="9.818">${:A}</tspan></text><text style="line-height:1.25;-inkscape-font-specification:Arial" x="71.658" y="37.471" font-size="6.512" font-family="Arial" letter-spacing="0" word-spacing="0" stroke-width=".265"><tspan x="71.658" y="37.471">${:B}</tspan></text><text style="line-height:1.25;-inkscape-font-specification:Arial" x="1.529" y="37.764" font-size="6.512" font-family="Arial" letter-spacing="0" word-spacing="0" stroke-width=".265"><tspan x="1.529" y="37.764">${:C}</tspan></text><path d="M22.962 21.692l1.418 3.614M21.862 22.576l1.417 3.614M53.113 24.779l3.185-2.22M51.92 24.155l3.184-2.22" fill="none" stroke="#000" stroke-width=".529"/><text style="line-height:1.25;-inkscape-font-specification:Arial;text-align:center" x="57.588" y="34.768" transform="rotate(-1.851)" font-size="4.233" font-family="Arial" letter-spacing="0" word-spacing="0" text-anchor="middle" stroke-width=".265"><tspan style="text-align:center" x="57.588" y="34.768">${:a}°</tspan></text><path d="M39.461 12.007L9.11 34.948h60.704z" fill="none" stroke="#000" stroke-width=".794"/><path d="M64.417 30.804c-1.547 1.978-1.605 4.127-1.605 4.127" fill="none" stroke="#000" stroke-width=".529"/></svg>