<svg width="15em" height="9em" viewBox="0 0 79.375 47.625" xmlns="http://www.w3.org/2000/svg"><path d="M33.975 5.555a5.56 5.56 0 01-2.206 4.309 5.56 5.56 0 01-4.747.946l1.395-5.382z" fill="#fe2525"/><text style="line-height:1.25;-inkscape-font-specification:Arial" x="20.703" y="7.208" font-size="6.512" font-family="Arial" letter-spacing="0" word-spacing="0" stroke-width=".265"><tspan x="20.703" y="7.208">${:A}</tspan></text><text style="line-height:1.25;-inkscape-font-specification:Arial" x="10.461" y="45.606" font-size="6.512" font-family="Arial" letter-spacing="0" word-spacing="0" stroke-width=".265"><tspan x="10.461" y="45.606">${:B}</tspan></text><text style="line-height:1.25;-inkscape-font-specification:Arial" x="68.919" y="11.78" font-size="6.512" font-family="Arial" letter-spacing="0" word-spacing="0" stroke-width=".265"><tspan x="68.919" y="11.78">${:C}</tspan></text><path d="M47.415 3.17l1.055 3.737M48.826 3.21l1.055 3.736M25.262 23.855l-3.88.157M25.835 22.636l-3.879.157" fill="none" stroke="#000" stroke-width=".529"/><text style="line-height:1.25;-inkscape-font-specification:Arial;text-align:center" x="25.253" y="33.491" transform="rotate(-1.851)" font-size="4.233" font-family="Arial" letter-spacing="0" word-spacing="0" text-anchor="middle" stroke-width=".265"><tspan style="text-align:center" x="25.253" y="33.491">${:a}°</tspan></text><path d="M28.417 5.428l38.046-.071L18.105 42.05z" fill="none" stroke="#000" stroke-width=".794"/><path d="M19.913 36.184c1.943.425 3.097 1.821 3.097 1.821" fill="none" stroke="#000" stroke-width=".529"/></svg>