<svg width="15em" height="9em" viewBox="0 0 79.375 47.625" xmlns="http://www.w3.org/2000/svg"><path d="M35.056 31.455a5.56 5.56 0 014.43-2.167 5.56 5.56 0 014.41 2.207l-4.435 3.353z" fill="#fe2525"/><text style="line-height:1.25;-inkscape-font-specification:Arial" x="37.217" y="41.753" font-size="6.512" font-family="Arial" letter-spacing="0" word-spacing="0" stroke-width=".265"><tspan x="37.217" y="41.753">${:A}</tspan></text><text style="line-height:1.25;-inkscape-font-specification:Arial" x="72.083" y="11.729" font-size="6.512" font-family="Arial" letter-spacing="0" word-spacing="0" stroke-width=".265"><tspan x="72.083" y="11.729">${:B}</tspan></text><text style="line-height:1.25;-inkscape-font-specification:Arial" x="2.318" y="13.359" font-size="6.512" font-family="Arial" letter-spacing="0" word-spacing="0" stroke-width=".265"><tspan x="2.318" y="13.359">${:C}</tspan></text><path d="M22.962 25.162l1.418-3.614M21.862 24.278l1.417-3.614M53.113 22.075l3.185 2.22M51.92 22.7l3.184 2.22" fill="none" stroke="#000" stroke-width=".529"/><text style="line-height:1.25;-inkscape-font-specification:Arial;text-align:end" x="60.882" y="17.241" transform="rotate(-.415)" font-size="4.233" font-family="Arial" letter-spacing="0" word-spacing="0" text-anchor="end" stroke-width=".265"><tspan style="text-align:end" x="60.882" y="17.241">${:a}°</tspan></text><path d="M39.461 34.848L9.11 11.906h60.704z" fill="none" stroke="#000" stroke-width=".794"/><path d="M61.437 11.92c-.086 2.952 2.235 4.643 2.235 4.643" fill="none" stroke="#000" stroke-width=".529"/></svg>