<svg width="15em" height="9em" viewBox="0 0 79.375 47.625" xmlns="http://www.w3.org/2000/svg"><path d="M28.39 34.464a5.56 5.56 0 014.865.877 5.56 5.56 0 012.243 4.404l-5.56.059z" fill="#fe2525"/><text style="line-height:1.25;-inkscape-font-specification:Arial" x="24.042" y="44.97" font-size="6.512" font-family="Arial" letter-spacing="0" word-spacing="0" stroke-width=".265"><tspan x="24.042" y="44.97">${:A}</tspan></text><text style="line-height:1.25;-inkscape-font-specification:Arial" x="71.415" y="44.756" font-size="6.512" font-family="Arial" letter-spacing="0" word-spacing="0" stroke-width=".265"><tspan x="71.415" y="44.756">${:B}</tspan></text><text style="line-height:1.25;-inkscape-font-specification:Arial" x="12.7" y="7.591" font-size="6.512" font-family="Arial" letter-spacing="0" word-spacing="0" stroke-width=".265"><tspan x="12.7" y="7.591">${:C}</tspan></text><path d="M22.667 22.108l3.315-2.02M22.326 20.738l3.315-2.02M48.536 37.9l1.192 3.694M47.208 37.674l1.191 3.694" fill="none" stroke="#000" stroke-width=".529"/><text style="line-height:1.25;-inkscape-font-specification:Arial;text-align:center" x="55.78" y="39.634" transform="rotate(-1.851)" font-size="4.233" font-family="Arial" letter-spacing="0" word-spacing="0" text-anchor="middle" stroke-width=".265"><tspan style="text-align:center" x="55.78" y="39.634">${:a}°</tspan></text><path d="M29.939 39.804L19.662 3.17l48.323 36.74z" fill="none" stroke="#000" stroke-width=".794"/><path d="M61.437 34.816c-1.548 2.321-1.605 4.9-1.605 4.9" fill="none" stroke="#000" stroke-width=".529"/></svg>