<svg width="15em" height="9em" viewBox="0 0 79.375 47.625" xmlns="http://www.w3.org/2000/svg"><g stroke-width=".528" fill="none" stroke="#000" stroke-linecap="round"><path d="M20.173 13.2l9.571-9.17v0M45.075 13.2l9.57-9.17v0M45.075 38.102l9.57-9.17v0" transform="matrix(.88902 0 0 1.13037 4.878 -1.958)"/><path d="M29.744 4.03h24.902v24.902" stroke-linejoin="round" transform="matrix(.88902 0 0 1.13037 4.878 -1.958)"/><path d="M54.646 28.932H29.744V4.031" stroke-linejoin="round" stroke-dasharray="2.111 2.111" transform="matrix(.88902 0 0 1.13037 4.878 -1.958)"/><path d="M20.173 38.102l9.571-9.17v0" stroke-dasharray="2.111 2.111" transform="matrix(.88902 0 0 1.13037 4.878 -1.958)"/><path stroke-linejoin="bevel" d="M20.173 13.201h24.901v24.901H20.173z" transform="matrix(.88902 0 0 1.13037 4.878 -1.958)"/></g><text style="line-height:1.25;text-align:center" x="35.945" y="45.896" font-size="4.233" font-family="Arial" letter-spacing="0" word-spacing="0" text-anchor="middle" stroke-width=".265"><tspan style="text-align:center" x="35.945" y="45.896">${:a} cm</tspan></text><text style="line-height:1.25;text-align:center" x="15.084" y="26.955" font-size="4.233" font-family="Arial" letter-spacing="0" word-spacing="0" text-anchor="middle" stroke-width=".265"><tspan style="text-align:center" x="15.084" y="26.955">${:h} cm</tspan></text><text style="line-height:1.25;text-align:center" x="58.296" y="37.672" font-size="4.233" font-family="Arial" letter-spacing="0" word-spacing="0" text-anchor="middle" stroke-width=".265"><tspan style="text-align:center" x="58.296" y="37.672">${:b} cm</tspan></text></svg>