<svg width="12em" height="4em" version="1.1" viewBox="0 0 63.5 21.17" xmlns="http://www.w3.org/2000/svg">
 <g>
  <g id="a" transform="matrix(0 .1346 -.2876 0 55.56 8.731)">
   <g id="c" style="stroke-width:1.345">
    <path d="m19.8 25.8c0-14.6-4.2-23.6-19.8-25.4l.4-.4c22.6.4 28.8 7.2 28.8 29v30.2c0 13.4 1.4 19.8 16 23.4v.4c-14.4 3.6-16 10-16 23.2v32.2c0 21-7.8 27-28.8 27.6l-.4-.399c16-2.4 19.8-10.4 19.8-25.6v-32.2c0-13.6 1.8-21.4 16.8-24.8v-.4c-15.2-3.6-16.8-12-16.8-25.6z" style="stroke-width:1.345"/>
   </g>
  </g>
  <text x="31.0305" y="18.65519" style="font-family:Arial;font-size:4.233px;letter-spacing:0px;line-height:1.25;stroke-width:.2646;text-align:center;text-anchor:middle;word-spacing:0px" xml:space="preserve"><tspan x="31.0305" y="18.65519" style="stroke-width:.2646">${:total}</tspan></text>
  <g transform="matrix(1.105 0 0 1 -.8335 0)" style="fill:#b7c4c8;stroke-width:.5034;stroke:#164450">
   <rect x="7.937" y="3.175" width="4.762" height="4.762" style="stroke-width:.5034"/>
   <rect x="17.46" y="3.175" width="4.762" height="4.762" style="stroke-width:.5034"/>
   <rect x="26.99" y="3.175" width="4.762" height="4.762" style="stroke-width:.5034"/>
   <rect x="36.51" y="3.175" width="4.762" height="4.762" style="stroke-width:.5034"/>
   <rect x="46.04" y="3.175" width="4.762" height="4.762" style="stroke-width:.5034"/>
  </g>
  <g transform="matrix(1.104 0 0 1 -.7922 0)" style="fill:#dbe2e3;stroke-width:.5036;stroke:#164450">
   <rect x="12.7" y="3.175" width="4.762" height="4.762" style="stroke-width:.5036"/>
   <rect x="22.22" y="3.175" width="4.762" height="4.762" style="stroke-width:.5036"/>
   <rect x="31.75" y="3.175" width="4.762" height="4.762" style="stroke-width:.5036"/>
   <rect x="41.27" y="3.175" width="4.762" height="4.762" style="stroke-width:.5036"/>
  </g>
  <g style="font-family:Arial;font-size:3.213px;letter-spacing:0px;line-height:1.25;stroke-width:.2646;text-align:center;text-anchor:middle;word-spacing:0px">
   <text x="10.305719" y="6.3205433">${:n}</text>
   <text x="15.238731" y="6.3205433">${:n}</text>
   <text x="20.922026" y="6.3205433">${:n}</text>
   <text x="26.047567" y="6.3205433">${:n}</text>
   <text x="31.458038" y="6.3205433">${:n}</text>
   <text x="36.62978" y="6.3205433">${:n}</text>
   <text x="42.198666" y="6.3205433">${:n}</text>
   <text x="47.472721" y="6.3205433">${:n}</text>
   <text x="52.57626" y="6.3205433">${:n}</text>
  </g>
 </g>
</svg>
