<svg width="15em" height="5em" version="1.1" viewBox="0 0 63.5 21.17" xmlns="http://www.w3.org/2000/svg">
 <rect x="49.57" y="3.167" width="12.29" height="4.774" style="fill:#536c67;stroke-width:.529;stroke:#164450"/>
 <g transform="translate(-6)">
  <g id="a" transform="matrix(0 .1169 -.3634 0 68.15 8.731)" style="stroke-width:.9547">
   <g id="c" style="stroke-width:1.284">
    <path d="m19.8 25.8c0-14.6-4.2-23.6-19.8-25.4l.4-.4c22.6.4 28.8 7.2 28.8 29v30.2c0 13.4 1.4 19.8 16 23.4v.4c-14.4 3.6-16 10-16 23.2v32.2c0 21-7.8 27-28.8 27.6l-.4-.399c16-2.4 19.8-10.4 19.8-25.6v-32.2c0-13.6 1.8-21.4 16.8-24.8v-.4c-15.2-3.6-16.8-12-16.8-25.6z" style="stroke-width:1.284"/>
   </g>
  </g>
  <text x="38.033264" y="18.209518" style="font-family:Arial;font-size:4.233px;letter-spacing:0px;line-height:1.25;stroke-width:.2646;text-align:center;text-anchor:middle;word-spacing:0px" xml:space="preserve"><tspan x="38.033264" y="18.209518" style="stroke-width:.2646">${:total}</tspan></text>
  <g style="fill:#b7c4c8;stroke-width:.5292;stroke:#164450">
   <rect x="7.937" y="3.175" width="4.762" height="4.762"/>
   <rect x="17.46" y="3.175" width="4.762" height="4.762"/>
   <rect x="26.99" y="3.175" width="4.762" height="4.762"/>
   <rect x="36.51" y="3.175" width="4.762" height="4.762"/>
   <rect x="46.04" y="3.175" width="4.762" height="4.762"/>
  </g>
  <g style="fill:#dbe2e3;stroke-width:.5292;stroke:#164450">
   <rect x="12.7" y="3.175" width="4.762" height="4.762"/>
   <rect x="22.22" y="3.175" width="4.762" height="4.762"/>
   <rect x="31.75" y="3.175" width="4.762" height="4.762"/>
   <rect x="41.27" y="3.175" width="4.762" height="4.762"/>
   <rect x="50.8" y="3.175" width="4.762" height="4.762"/>
  </g>
  <g style="font-family:Arial;font-size:3.213px;letter-spacing:0px;line-height:1.25;stroke-width:.2646;text-align:center;text-anchor:middle;word-spacing:0px">
   <text x="10.305719" y="6.3205433">${:n}</text>
   <text x="15.068214" y="6.3205433">${:n}</text>
   <text x="19.830717" y="6.3205433">${:n}</text>
   <text x="24.593222" y="6.3205433">${:n}</text>
   <text x="29.355726" y="6.3205433">${:n}</text>
   <text x="34.118229" y="6.3205433">${:n}</text>
   <text x="38.880733" y="6.3205433">${:n}</text>
   <text x="43.643238" y="6.3205433">${:n}</text>
   <text x="48.405743" y="6.3205433">${:n}</text>
   <text x="53.168247" y="6.3205433">${:n}</text>
  <text x="61.968987" y="6.3778057" style="fill:#dbe3e2;">${:p}</text></g>
 </g>
</svg>
