<svg width="10em" height="10em" viewBox="0 0 47.61 47.7" xmlns="http://www.w3.org/2000/svg"><path fill="none" stroke="#000" stroke-width=".707" stroke-linecap="round" stroke-linejoin="round" d="M34.545 5.703l6.817 28.65-28.667 6.822-6.818-28.65z"/><path fill="none" stroke="#000" stroke-width=".707" stroke-linecap="round" stroke-linejoin="round" d="M7.84 12.058l.467 1.962-1.963.467-.467-1.962zm33.056 20.334l.466 1.961-1.962.467-.467-1.961zM14.19 38.747l.467 1.961-1.963.467-.467-1.961zM34.545 5.703l.466 1.962-1.963.467-.466-1.962z"/><path d="M39.506 19.905l-3.757-1.343m4.067 2.987l-3.759-1.343M11.105 26.01l-3.758-1.343m4.067 2.987L7.656 26.31m15.322-16.28l-2.69-2.945m1.202 3.573L18.8 7.711m11.472 30.91l-2.689-2.946m1.203 3.574l-2.69-2.946" fill="none" stroke="#000" stroke-width=".707"/><path d="M42.077 19.047L5.46 27.761M28.125 41.712L19.411 5.096M44.962 36.45L2.5 10.312M36.8 2.15L10.662 44.612" fill="none" stroke="red" stroke-width=".662" stroke-dasharray="2.65 .662" class="correction"/></svg>