<svg width="10em" height="10em" viewBox="0 0 47.61 47.7" xmlns="http://www.w3.org/2000/svg"><path fill="none" stroke="#000" stroke-width=".707" stroke-linecap="round" stroke-linejoin="round" d="M23.71 2.658L44.497 23.52l-20.874 20.8L2.836 23.458z"/><path fill="none" stroke="#000" stroke-width=".707" stroke-linecap="round" stroke-linejoin="round" d="M4.265 22.034l1.424 1.428-1.43 1.424-1.423-1.428zm38.81.058l1.422 1.428-1.429 1.424-1.423-1.428zM23.628 41.467l1.423 1.428-1.429 1.425L22.2 42.89zm.081-38.809l1.424 1.429-1.43 1.424-1.423-1.428z"/><path d="M35.363 12.172l-3.905.82m5.028.42l-3.906.82M14.34 32.221l-3.905.819m5.028.42l-3.906.82m4.554-21.887l-3.833-1.105m2.893 2.418L11.336 12.6m25.937 20.355l-3.832-1.106m2.893 2.418L32.5 33.162" fill="none" stroke="#000" stroke-width=".707"/><path d="M37.106 10.098L10.444 36.665M37.059 36.713L10.49 10.05M48.662 23.426l-49.862-.09M23.776-1.55l-.09 49.862" fill="none" stroke="red" stroke-width=".662" stroke-dasharray="2.65 .662" class="correction"/></svg>