<svg width="10em" height="10em" viewBox="0 0 47.61 47.7" xmlns="http://www.w3.org/2000/svg"><path fill="none" stroke="#000" stroke-width=".707" stroke-linecap="round" stroke-linejoin="round" d="M5.684 5.449h36.2V41.67h-36.2z"/><path fill="none" stroke="#000" stroke-width=".707" stroke-linecap="round" stroke-linejoin="round" d="M5.684 39.19h2.479v2.48H5.684zM39.405 5.45h2.479v2.48h-2.479zm0 33.741h2.479v2.48h-2.479zM5.685 5.45h2.478v2.48H5.684z"/><path d="M24.078 3.557l-2.675 4.111m4.73-4.013l-2.676 4.112m-.162 31.49l-2.675 4.11m4.73-4.013l-2.676 4.113M7.568 20.51l-4.289 2.38m4.616-.422l-4.29 2.38m40.227-4.924l-4.289 2.377m4.616-.42L39.87 24.26" fill="none" stroke="#000" stroke-width=".707"/><path d="M23.784.239v46.266M46.917 23.372H.651M45.415 1.74L2.077 45.08M2.077 1.74l43.338 43.34" fill="none" stroke="red" stroke-width=".662" stroke-dasharray="2.65 .662" class="correction"/></svg>