<svg width="10em" height="10em" version="1.1" viewBox="0 0 47.61 47.7" xmlns="http://www.w3.org/2000/svg">
 <g fill="none">
  <g stroke="#000" stroke-width=".707">
   <path d="m34.545 5.703 6.817 28.65-28.667 6.822-6.818-28.65z" stroke-linecap="round" stroke-linejoin="round"/>
   <path d="M7.84 12.058l.467 1.962-1.963.467-.467-1.962zm33.056 20.334l.466 1.961-1.962.467-.467-1.961zM14.19 38.747l.467 1.961-1.963.467-.467-1.961zM34.545 5.703l.466 1.962-1.963.467-.466-1.962z" stroke-linecap="round" stroke-linejoin="round"/>
   <path d="m39.506 19.905-3.757-1.343m4.067 2.987-3.759-1.343m-24.952 5.804-3.758-1.343m4.067 2.987-3.758-1.344m15.322-16.28-2.69-2.945m1.202 3.573-2.69-2.947m11.472 30.91-2.689-2.946m1.203 3.574-2.69-2.946"/>
  </g>
  <path class="correction" d="M42.077 19.047L5.46 27.761M28.125 41.712L19.411 5.096M44.962 36.45L2.5 10.312M36.8 2.15L10.662 44.612" stroke="red" stroke-dasharray="2.65 .662" stroke-width=".662"/>
 </g>
 <g transform="translate(-.096364 .096364)" fill="none" stroke="#00ff00" stroke-width=".954" class="correction">
  <path d="m21.036 24.297 5.7169-2.1438"/>
  <path d="m22.822 20.366 2.1438 5.7169"/>
 </g>
</svg>
