<svg width="10em" height="10em" viewBox="0 0 47.61 47.7" xmlns="http://www.w3.org/2000/svg"><path fill="none" stroke="#000" stroke-width=".707" stroke-linecap="round" stroke-linejoin="round" d="M20.148 2.97l24.064 16.978-16.987 24.078L3.16 27.05z"/><path fill="none" stroke="#000" stroke-width=".707" stroke-linecap="round" stroke-linejoin="round" d="M4.324 25.4l1.647 1.163-1.163 1.649-1.648-1.163zm38.24-6.615l1.648 1.163-1.163 1.648-1.648-1.162zM26.74 41.215l1.648 1.163-1.163 1.648-1.648-1.162zM20.148 2.97l1.648 1.163-1.164 1.649-1.647-1.163z"/><path d="M33.263 10.34l-3.707 1.477m5.026-.45l-3.707 1.48M16 33.704l-3.707 1.478m5.026-.45l-3.707 1.48m.724-22.345l-3.967-.43m3.266 1.885l-3.968-.43m29.05 15.592l-3.965-.43m3.266 1.884l-3.967-.43" fill="none" stroke="#000" stroke-width=".707"/><path d="M34.623 7.996L12.925 38.75M39.152 34.223L8.396 12.525M48.299 19.139L-.836 27.623M19.489-1.186l8.484 49.135" fill="none" stroke="red" stroke-width=".662" stroke-dasharray="2.65 .662" class="correction"/></svg>