<svg width="10em" height="10em" viewBox="0 0 47.61 47.7" xmlns="http://www.w3.org/2000/svg"><path fill="none" stroke="#000" stroke-width=".707" stroke-linecap="round" stroke-linejoin="round" d="M12 5.647l33.544 23.574-10.426 14.835L1.574 20.482z"/><path fill="none" stroke="#000" stroke-width=".707" stroke-linecap="round" stroke-linejoin="round" d="M12 5.647l1.341.943-.941 1.34-1.342-.944zM2.514 19.143l1.342.943-.941 1.339-1.342-.943zm41.687 9.135l1.342.943-.941 1.339-1.342-.943zm-9.485 13.496l1.342.943-.94 1.339-1.343-.943z"/><path d="M29.462 16.432l-3.007 1.202m4.082-.367l-3.008 1.203m-8.354 12.526l-3.008 1.202m4.083-.368l-3.008 1.202M6.45 11.591l1.142 2.277m32.27 21.784l1.143 2.277" fill="none" stroke="#000" stroke-width=".707"/><path d="M38.173 4.134L9.43 44.878M43.93 39.223L3.188 10.48" fill="none" stroke="red" stroke-width=".662" stroke-dasharray="2.65 .662" class="correction"/></svg>