<svg width="10em" height="10em" viewBox="0 0 47.61 47.7" xmlns="http://www.w3.org/2000/svg"><path fill="none" stroke="#000" stroke-width=".707" stroke-linecap="round" stroke-linejoin="round" d="M14.9 45.07l-.128-41 18.132-.057.129 41z"/><path fill="none" stroke="#000" stroke-width=".707" stroke-linecap="round" stroke-linejoin="round" d="M14.9 45.07l-.004-1.641 1.636-.005.005 1.64zm16.496-.053l-.005-1.64 1.636-.005.006 1.64zM14.777 5.71l-.005-1.64 1.636-.005.006 1.64zm16.495-.052l-.005-1.64 1.637-.005.005 1.64z"/><path d="M13.62 24.584l2.718 1.76m-2.657-3.12l2.718 1.761m15.051-.414l2.719 1.761m-2.658-3.12l2.718 1.76M22.958 46.167l1.199-2.248m-.854-38.925l1.199-2.249" fill="none" stroke="#000" stroke-width=".707"/><path d="M-1.45 24.576l49.861-.067M23.869-.39l.067 49.862" fill="none" stroke="red" stroke-width=".662" stroke-dasharray="2.65 .662" class="correction"/></svg>