<svg width="10em" height="10em" version="1.1" viewBox="0 0 47.61 47.7" xmlns="http://www.w3.org/2000/svg">
 <g fill="none">
  <g stroke="#000" stroke-width=".707">
   <path d="M14.9 45.07l-.128-41 18.132-.057.129 41z" stroke-linecap="round" stroke-linejoin="round"/>
   <path d="M14.9 45.07l-.004-1.641 1.636-.005.005 1.64zm16.496-.053l-.005-1.64 1.636-.005.006 1.64zM14.777 5.71l-.005-1.64 1.636-.005.006 1.64zm16.495-.052l-.005-1.64 1.637-.005.005 1.64z" stroke-linecap="round" stroke-linejoin="round"/>
   <path d="M13.62 24.584l2.718 1.76m-2.657-3.12l2.718 1.761m15.051-.414l2.719 1.761m-2.658-3.12l2.718 1.76M22.958 46.167l1.199-2.248m-.854-38.925l1.199-2.249"/>
  </g>
  <path class="correction" d="M-1.45 24.576l49.861-.067M23.869-.39l.067 49.862" stroke="red" stroke-dasharray="2.65 .662" stroke-width=".662"/>
 </g>
 <g transform="translate(0 1.3491)" fill="none" stroke="#00ff00" stroke-width=".954" class="correction">
  <path d="m21.036 24.297 5.7169-2.1438"/>
  <path d="m22.822 20.366 2.1438 5.7169"/>
 </g>
</svg>
