<svg width="10em" height="10em" viewBox="0 0 47.61 47.7" xmlns="http://www.w3.org/2000/svg"><path fill="none" stroke="#000" stroke-width=".707" stroke-linecap="round" stroke-linejoin="round" d="M3.63 34.105L30.467 3.109l13.707 11.868-26.836 30.996z"/><path fill="none" stroke="#000" stroke-width=".707" stroke-linecap="round" stroke-linejoin="round" d="M3.63 34.105l1.073-1.24 1.238 1.071-1.074 1.24zM16.1 44.902l1.074-1.24 1.237 1.071-1.073 1.24zM29.393 4.349l1.074-1.24 1.237 1.071-1.074 1.24zm12.47 10.797l1.074-1.24 1.237 1.071-1.073 1.24z"/><path d="M16.121 17.818l.893 3.113m.046-4.097l.893 3.113m11.62 9.575l.893 3.114m.046-4.1l.892 3.115m-22.42 8.574l2.38-.908M36.293 9.41l2.381-.908" fill="none" stroke="#000" stroke-width=".707"/><path d="M4.764 7.912l37.638 32.705M40.255 5.722L7.549 43.36" fill="none" stroke="red" stroke-width=".662" stroke-dasharray="2.65 .662" class="correction"/></svg>