<svg width="10em" height="10em" version="1.1" viewBox="0 0 47.61 47.7" xmlns="http://www.w3.org/2000/svg">
 <g fill="none">
  <g stroke="#000" stroke-width=".707">
   <path d="M3.302 15.862H44.3v18.132h-41z" stroke-linecap="round" stroke-linejoin="round"/>
   <path d="M3.302 15.862h1.64V17.5h-1.64zm0 16.495h1.64v1.637h-1.64zM42.66 15.862h1.64V17.5h-1.64zm0 16.495h1.64v1.637h-1.64z" stroke-linecap="round" stroke-linejoin="round"/>
   <path d="m23.79 14.645-1.769 2.713m3.129-2.647-1.77 2.713m0.368 15.052-1.77 2.713m3.129-2.648-1.77 2.712m-21.158-11.337 2.245 1.206m38.928-0.732 2.244 1.206"/>
  </g>
  <path class="correction" d="M23.846-.425l-.09 49.862M48.732 24.973l-49.862-.09" stroke="red" stroke-dasharray="2.65 .662" stroke-width=".662"/>
 </g>
 <g transform="translate(0 1.59)" fill="none" stroke="#00ff00" stroke-width=".954" class="correction">
  <path d="m21.036 24.297 5.7169-2.1438"/>
  <path d="m22.822 20.366 2.1438 5.7169"/>
 </g>
</svg>
