<svg width="15em" height="9em" viewBox="0 0 79.375 47.625" xmlns="http://www.w3.org/2000/svg"><text style="line-height:1.25;text-align:center" x="29.01" y="40.538" font-size="4.233" font-family="Arial" letter-spacing="0" word-spacing="0" text-anchor="middle" stroke-width=".265"><tspan style="text-align:center" x="29.01" y="40.538">${:a} cm</tspan></text><text style="line-height:1.25;text-align:center" x="18.494" y="15.178" font-size="4.233" font-family="Arial" letter-spacing="0" word-spacing="0" text-anchor="middle" stroke-width=".265"><tspan style="text-align:center" x="18.494" y="15.178">${:h} cm</tspan></text><text style="line-height:1.25;text-align:center" x="61.591" y="30.823" font-size="4.233" font-family="Arial" letter-spacing="0" word-spacing="0" text-anchor="middle" stroke-width=".265"><tspan style="text-align:center" x="61.591" y="30.823">${:b} cm</tspan></text><path d="M43.976 35.752l19.257-14.558v0" fill="none" stroke="#000" stroke-width=".529" stroke-linecap="round"/><path d="M15.878 35.752l19.257-14.558h28.098M39.576 5.238v23.178" fill="none" stroke="#000" stroke-width=".529" stroke-linecap="round" stroke-dasharray="1.587 1.587"/><path d="M15.878 35.752h28.098" fill="none" stroke="#000" stroke-width=".529"/><path d="M39.03 27.65l1.052 1.648M41.504 27.917l-3.896 1.113" fill="none" stroke="#000" stroke-width=".265"/><path d="M43.976 35.752l-4.4-30.514-23.698 30.514" fill="none" stroke="#000" stroke-width=".529" stroke-linecap="round" stroke-linejoin="round"/><path d="M63.233 21.194L39.576 5.238" fill="none" stroke="#000" stroke-width=".529"/><path d="M39.576 5.238l-4.441 15.956" fill="none" stroke="#000" stroke-width=".529" stroke-linecap="round" stroke-dasharray="1.587 1.587"/><path d="M16.935 15.932c15.646-.515 21.606 1.261 21.606 1.261" fill="none" stroke="#000" stroke-width=".265"/></svg>