<svg width="15em" height="9em" viewBox="0 0 79.375 47.625" xmlns="http://www.w3.org/2000/svg"><text style="line-height:1.25;" x="16.946" y="50.619" transform="rotate(-15.928)" font-size="4.233" font-family="Arial" letter-spacing="0" word-spacing="0" fill="#4d4d4d" stroke-width=".265"><tspan x="16.946" y="50.619">${:b} cm</tspan></text><path d="M32.94 26.045l21.727 6.932-44.155 10.356z" fill="#e3dedb" stroke="#000" stroke-width=".529" stroke-linecap="round" stroke-linejoin="round" stroke-dasharray="2.117 2.117"/><path d="M10.512 43.333l44.155-10.356M32.94 1.703l21.727 31.274M32.94 1.703l-22.428 41.63" fill="none" stroke="#000" stroke-width=".529" stroke-linecap="round"/><text style="line-height:1.25;" x="38.272" y="-16.22" transform="matrix(.365 .9104 -.95958 .3463 0 0)" font-size="3.17" font-family="Arial" letter-spacing="0" word-spacing="0" stroke-width=".265"><tspan x="38.272" y="-16.22">${:a} cm</tspan></text><text style="line-height:1.25;" x="53.818" y="14.124" font-size="4.233" font-family="Arial" letter-spacing="0" word-spacing="0" fill="#4d4d4d" stroke-width=".265"><tspan x="53.818" y="14.124">${:h} cm</tspan></text><path d="M36.783 36.953l-3.844-10.908" fill="none" stroke="#000" stroke-width=".265" stroke-linecap="round" stroke-dasharray=".794 .794"/><path d="M36.193 34.879l2.885-.727.891 2.158" fill="none" stroke="#000" stroke-width=".397"/><path d="M32.94 1.703v24.342" fill="none" stroke="#000" stroke-width=".529" stroke-linecap="round" stroke-dasharray="1.587 1.587"/><path d="M62.12 14.992c-18.218-.226-28.175 1.698-28.175 1.698M33.068 24.554l1.358.424-.028 1.556M33.068 24.554l-1.244.933v1.386" fill="none" stroke="#000" stroke-width=".265"/></svg>