<svg width="15em" height="9em" viewBox="0 0 79.375 47.625" xmlns="http://www.w3.org/2000/svg"><g stroke-width=".265"><text style="line-height:1.25;" x="47.59" y="9.427" transform="rotate(24.758)" font-size="4.233" font-family="Arial" letter-spacing="0" word-spacing="0" fill="#4d4d4d"><tspan x="47.59" y="9.427">${:a} cm</tspan></text><path d="M37.104 28.429l16.662 7.776-32.99 6.04z" fill="#e3dedb" stroke="#000" stroke-linejoin="round" stroke-dasharray="1.058 1.058"/><path d="M20.775 42.245l32.99-6.04M37.104 4.087L20.775 42.245M37.104 4.087l16.662 32.118" fill="none" stroke="#000"/><path d="M37.104 4.087V28.43" fill="none" stroke="#000" stroke-dasharray="1.058 .529"/><text style="line-height:1.25;" x="-3.749" y="44.709" transform="rotate(-40.925)" font-size="4.233" font-family="Arial" letter-spacing="0" word-spacing="0"><tspan x="-3.749" y="44.709">${:b} cm</tspan></text><text style="line-height:1.25;" x="50.578" y="17.465" font-size="4.233" font-family="Arial" letter-spacing="0" word-spacing="0" fill="#4d4d4d"><tspan x="50.578" y="17.465">${:h} cm</tspan></text><path d="M35.654 29.68l1.559.829 1.46-1.327M60.505 18.656c-19.555-.214-22.294 1.241-22.294 1.241M38.673 29.182l-.162-1.754-1.327-.556-1.497 1.07-.033 1.737" fill="none" stroke="#000"/></g></svg>