<svg width="15em" height="9em" viewBox="0 0 79.375 47.625" xmlns="http://www.w3.org/2000/svg"><text style="line-height:1.25;" x="22.804" y="53.47" transform="rotate(-18.464)" font-size="4.233" font-family="Arial" letter-spacing="0" word-spacing="0" fill="#4d4d4d" stroke-width=".265"><tspan x="22.804" y="53.47">${:a} cm</tspan></text><path d="M21.68 28.766l32.424 5.712-24.92 6.79z" fill="#e3dedb" stroke="#000" stroke-width=".265" stroke-linejoin="round" stroke-dasharray="1.058 1.058"/><path d="M29.183 41.269l24.921-6.79M29.183 8.577l24.921 25.901M29.183 8.577L21.68 28.766M29.183 8.577v32.692" fill="none" stroke="#000" stroke-width=".529" stroke-linecap="round"/><text style="line-height:1.25;" x="35.954" y="4.527" transform="rotate(55.572)" font-size="4.233" font-family="Arial" letter-spacing="0" word-spacing="0" stroke-width=".265"><tspan x="35.954" y="4.527">${:b} cm</tspan></text><text style="line-height:1.25;" x="45.327" y="17.953" font-size="4.233" font-family="Arial" letter-spacing="0" word-spacing="0" fill="#4d4d4d" stroke-width=".265"><tspan x="45.327" y="17.953">${:h} cm</tspan></text><path d="M29.183 41.269L21.68 28.766" fill="none" stroke="#000" stroke-width=".529" stroke-linecap="round"/><path d="M27.866 38.655l3.682-1.008 1.642 2.557" fill="none" stroke="#000" stroke-width=".397"/><path d="M30.856 40.805v-2.022l-1.516.346-.944-1.41v2.022M50.913 18.78c-10.268-.107-20.589 3.564-20.589 3.564" fill="none" stroke="#000" stroke-width=".265"/></svg>