<svg width="7.5em" height="7.5em" viewBox="0 0 52.917 52.917" xmlns="http://www.w3.org/2000/svg"><path d="M31.888 46.08c.254.952 1.27 1.778 2.222 1.778h1.842c1.524 0 2.54-1.334 2.222-2.794L29.411 6.837c-.19-.953-1.27-1.778-2.222-1.778h-1.397c-.953 0-1.969.825-2.223 1.778l-5.778 24.828-3.048 13.462c-.318 1.46.698 2.73 2.222 2.73h1.842c.952 0 1.968-.825 2.222-1.777l2.223-9.906h6.477zM26.49 19.727c1.207 5.398 1.08 7.112 1.778 10.16h-3.556z"/><path d="M26.458 1.405v50.107" fill="none" stroke="red" stroke-width="2" stroke-dasharray="8 2" class="correction"/></svg>