<svg width="7.5em" height="7.5em" viewBox="0 0 52.917 52.917" xmlns="http://www.w3.org/2000/svg"><path d="m 25.378511,47.858002c 7.4295,0 10.7315,-4.064 10.7315,-12.2555 0,-3.8735 -1.0795,-7.112 -2.7305,-9.144 0,0 2.7305,-3.2385 2.7305,-9.144 0,-8.1915003 -3.302,-12.2555003 -10.7315,-12.2555003h -6.2865c -1.27,0 -2.286,1.016 -2.286,2.286V 45.572002c 0,1.27 1.016,2.286 2.286,2.286z m 0,-36.5125c 3.1115,0 4.3815,1.7145 4.3815,5.969 0,4.2545 -1.27,5.969 -4.3815,5.969h -2.2225v -11.938z m 0,18.2245c 3.1115,0 4.3815,1.7145 4.3815,6.0325 0,4.2545 -1.27,5.969 -4.3815,5.969h -2.2225v -12.0015z"/><path d="M1.405 26.458h50.107" fill="none" stroke="red" stroke-width="2" stroke-dasharray="8 2" class="correction"/></svg>