<svg width="7.5em" height="7.5em" viewBox="0 0 52.917 52.917" xmlns="http://www.w3.org/2000/svg"><path d="M16.013 35.412c0 5.016 1.397 7.937 3.365 9.906 2.096 2.032 4.7 2.54 7.112 2.54 2.286 0 4.953-.508 7.049-2.54 1.968-1.969 3.302-4.89 3.302-9.906v-.89c0-1.27-1.016-2.285-2.223-2.285h-1.841a2.276 2.276 0 00-2.286 2.286v.889c0 2.286-.318 4-1.08 5.016-.571.635-1.714 1.143-2.92 1.143-2.731 0-4.065-1.905-4.065-6.16v-17.97c0-4.254 1.397-6.096 4.064-6.096 2.604 0 4 1.842 4 6.096v.89a2.276 2.276 0 002.287 2.285h1.841c1.207 0 2.223-1.016 2.223-2.286v-.889c0-4.826-1.334-8-3.366-9.906C31.38 5.63 28.84 5.06 26.49 5.06c-2.413 0-4.953.571-7.048 2.476-2.032 1.905-3.43 5.08-3.43 9.906z"/><path d="M51.512 26.458H1.405" fill="none" stroke="red" stroke-width="2" stroke-dasharray="8 2" class="correction"/></svg>