<svg width="7.5em" height="7.5em" viewBox="0 0 52.917 52.917" xmlns="http://www.w3.org/2000/svg"><path d="M19.664 5.059a2.276 2.276 0 00-2.286 2.286v38.227a2.276 2.276 0 002.286 2.286H33.38a2.276 2.276 0 002.286-2.286v-1.715a2.276 2.276 0 00-2.286-2.286h-9.716V29.57h8.001a2.276 2.276 0 002.286-2.286v-1.715a2.276 2.276 0 00-2.286-2.286h-8V11.345h9.715a2.276 2.276 0 002.286-2.286V7.345a2.276 2.276 0 00-2.286-2.286z" aria-label="E"/><path d="M51.512 26.458H1.405" fill="none" stroke="red" stroke-width="2" stroke-dasharray="8 2" class="correction"/></svg>