<svg width="7.5em" height="7.5em" viewBox="0 0 52.917 52.917" xmlns="http://www.w3.org/2000/svg"><path d="M28.205 26.395c-3.747 0-3.556 6.35 0 6.35h2.222v2.73c0 4.128-1.333 6.096-4.064 6.096-2.794 0-4.127-1.968-4.127-6.096V17.378c0-2.921.571-4.445 1.46-5.207.699-.699 1.778-.826 2.667-.826.89 0 1.905.127 2.667.826.762.698 1.397 2.222 1.397 5.207v.889a2.276 2.276 0 002.286 2.286h1.842c1.206 0 2.222-1.016 2.222-2.286v-.89c0-8.064-3.429-12.318-10.414-12.318-6.985 0-10.477 4.254-10.477 12.319v18.097c0 8.001 3.492 12.383 10.477 12.383s10.414-4.318 10.414-12.383v-6.794c0-1.27-1.016-2.286-2.222-2.286z" aria-label="G"/></svg>