<svg width="7.5em" height="7.5em" version="1.1" viewBox="0 0 52.917 52.917" xmlns="http://www.w3.org/2000/svg">
 <path d="M22.934 23.347V7.345a2.276 2.276 0 00-2.286-2.286H18.87a2.276 2.276 0 00-2.286 2.286v38.227a2.276 2.276 0 002.286 2.286h1.778a2.276 2.276 0 002.286-2.286V29.633h7.049v15.939a2.276 2.276 0 002.286 2.286h1.778a2.276 2.276 0 002.286-2.286V7.345a2.276 2.276 0 00-2.286-2.286h-1.778a2.276 2.276 0 00-2.286 2.286v16.002z" aria-label="H"/>
 <path class="correction" d="M1.405 26.458h50.107M26.458 1.405v50.107" fill="none" stroke="red" stroke-dasharray="8 2" stroke-width="2"/>
 <g fill="none" stroke="#00ff00" stroke-width="1.7639" class="correction">
  <path d="m22.343 21.488 7.9643 9.942"/>
  <path d="m31.296 22.476-9.942 7.9643"/>
 </g>
</svg>
