<svg width="7.5em" height="7.5em" viewBox="0 0 52.917 52.917" xmlns="http://www.w3.org/2000/svg"><path d="M27.157 47.858c.952 0 1.968-.826 2.222-1.842l2.096-14.097v13.653a2.276 2.276 0 002.286 2.286h1.778a2.276 2.276 0 002.286-2.286V7.345a2.276 2.276 0 00-2.286-2.286h-1.905c-.953 0-2.032.825-2.223 1.778l-4.953 25.59-5.016-25.59c-.19-.953-1.207-1.778-2.16-1.778h-1.904a2.276 2.276 0 00-2.286 2.286v38.227a2.276 2.276 0 002.286 2.286h1.778c1.206 0 2.286-1.016 2.286-2.286v-13.78L23.6 46.08c.19.952 1.206 1.778 2.159 1.778z" aria-label="M"/><path d="M26.458 1.405v50.107" fill="none" stroke="red" stroke-width="2" stroke-dasharray="8 2" class="correction"/></svg>