<svg width="7.5em" height="7.5em" version="1.1" viewBox="0 0 52.917 52.917" xmlns="http://www.w3.org/2000/svg">
 <path d="M34.713 47.858A2.276 2.276 0 0037 45.572V7.345a2.276 2.276 0 00-2.286-2.286h-1.778a2.276 2.276 0 00-2.286 2.286V28.3L21.823 6.456c-.254-.699-1.27-1.397-2.096-1.397h-1.524c-1.206 0-2.286 1.016-2.286 2.286v38.227c0 1.27 1.08 2.286 2.286 2.286h1.842c1.206 0 2.286-1.016 2.286-2.286V24.617l8.826 21.844c.254.698 1.334 1.397 2.096 1.397z" aria-label="N"/>
 <g fill="none" stroke="#00ff00" stroke-width="1.7639" class="correction">
  <path d="m22.343 21.488 7.9643 9.942"/>
  <path d="m31.296 22.476-9.942 7.9643"/>
 </g>
</svg>
