<svg width="7.5em" height="7.5em" viewBox="0 0 52.917 52.917" xmlns="http://www.w3.org/2000/svg"><path d="M16.044 35.412c0 5.016 1.397 7.937 3.366 9.906 2.095 2.032 4.762 2.54 7.048 2.54 2.35 0 5.017-.508 7.112-2.54 1.969-1.969 3.302-4.89 3.302-9.906v-17.97c0-8.065-3.429-12.383-10.414-12.383-6.921 0-10.414 4.381-10.414 12.382zm6.35-17.97c0-4.128 1.27-6.097 4.064-6.097 2.73 0 4.064 1.842 4.064 6.096v17.97c0 4.319-1.397 6.16-4.064 6.16-2.73 0-4.064-1.968-4.064-6.16z" aria-label="O"/><path d="M1.405 26.458h50.107M26.458 1.405v50.107" fill="none" stroke="red" stroke-width="2" stroke-dasharray="8 2" class="correction"/></svg>