<svg width="7.5em" height="7.5em" viewBox="0 0 52.917 52.917" xmlns="http://www.w3.org/2000/svg"><path d="M36.031 17.25c0-8-3.429-12.191-10.35-12.191-6.985 0-10.478 4.19-10.478 12.192v18.034c0 8 3.493 12.573 10.478 12.573 1.524 0 2.92-.254 4.19-.826l1.398 1.778c.317.381 1.397.826 1.778.826h2.35c2.031 0 3.047-2.096 1.714-3.683l-2.667-3.175c1.016-2.032 1.587-4.509 1.587-7.493zm-14.478 0c0-4 1.397-5.905 4.128-5.905 2.73 0 4 1.778 4 5.906v18.034c0 .825-.063 1.587-.127 2.222-.19-.063-.444-.063-.508-.063H26.76c-2.032 0-3.111 2.095-1.778 3.746l.318.381c-2.477-.19-3.747-2.286-3.747-6.286z" aria-label="Q"/></svg>