<svg width="7.5em" height="7.5em" viewBox="0 0 52.917 52.917" xmlns="http://www.w3.org/2000/svg"><path d="M36.46 34.904c0-3.302-.89-5.906-2.731-7.874l.508-.508c1.969-1.969 2.667-5.144 2.667-9.08 0-8.51-2.73-12.447-10.541-12.447h-8.001a2.276 2.276 0 00-2.286 2.286v38.227a2.276 2.276 0 002.286 2.286h1.778c1.207 0 2.223-1.016 2.223-2.286V29.951h2.857c3.112 0 4.89 1.778 4.89 4.953v10.604a2.276 2.276 0 002.286 2.286h1.778a2.276 2.276 0 002.286-2.286zM22.363 11.345h4c3.302 0 4.255 1.778 4.255 6.096s-1.842 6.096-5.398 6.096h-2.857z" aria-label="R"/></svg>