<svg width="7.5em" height="7.5em" viewBox="0 0 52.917 52.917" xmlns="http://www.w3.org/2000/svg"><path d="M16.013 35.412c0 8.318 3.492 12.382 10.477 12.382 6.731 0 10.478-3.81 10.478-10.922 0-6.16-4.255-9.398-8.446-12.636h.064c-3.112-2.413-6.223-4.89-6.223-8.128 0-3.302 1.46-4.763 4.127-4.763 2.794 0 4.128 1.905 4.128 6.096v.89a2.276 2.276 0 002.286 2.285h1.778a2.276 2.276 0 002.286-2.286v-.889c0-8.064-3.62-12.446-10.478-12.446-6.731 0-10.477 4.128-10.477 11.303 0 6.287 4.381 9.716 8.572 13.018v-.064c3.112 2.413 6.033 4.763 6.033 7.747 0 3.366-1.461 4.509-4.128 4.509-.889 0-1.968-.127-2.667-.826-.889-.762-1.46-2.222-1.46-5.27v-.826c0-1.27-1.08-2.286-2.286-2.286h-1.778a2.276 2.276 0 00-2.286 2.286z" aria-label="S"/></svg>