<svg width="7.5em" height="7.5em" viewBox="0 0 52.917 52.917" xmlns="http://www.w3.org/2000/svg"><path d="M16.044 36.174c0 6.73 2.794 11.62 10.414 11.62 7.366 0 10.414-4.508 10.414-11.62V7.28a2.276 2.276 0 00-2.286-2.286h-1.778c-1.206 0-2.222 1.016-2.222 2.286v28.893c0 3.048-.89 5.334-4.128 5.334-3.111 0-4.127-1.969-4.127-5.334V7.28a2.276 2.276 0 00-2.286-2.286h-1.778c-1.207 0-2.223 1.016-2.223 2.286z" aria-label="U"/><path d="M26.458 1.405v50.107" fill="none" stroke="red" stroke-width="2" stroke-dasharray="8 2" class="correction"/></svg>