<svg width="7.5em" height="7.5em" viewBox="0 0 52.917 52.917" xmlns="http://www.w3.org/2000/svg"><path d="M29.412 6.9c-.19-1.016-1.206-1.841-2.222-1.841h-1.397c-1.016 0-2.032.825-2.223 1.841l-3.302 19.304-2.92-19.24c-.191-1.08-1.207-1.905-2.287-1.905H13.22c-1.46 0-2.413 1.206-2.223 2.603l6.223 38.29c.19 1.017 1.143 1.906 2.223 1.906h1.397c1.016 0 2.032-.826 2.222-1.842l3.43-20.256 3.365 20.256c.19 1.016 1.206 1.842 2.222 1.842h1.46c1.08 0 2.096-.89 2.287-1.905l6.096-38.29a2.289 2.289 0 00-2.286-2.604h-1.842c-1.08 0-2.159.825-2.286 1.905l-2.857 19.113z" aria-label="W"/><path d="M26.458 1.405v50.107" fill="none" stroke="red" stroke-width="2" stroke-dasharray="8 2" class="correction"/></svg>