<svg width="7.5em" height="7.5em" viewBox="0 0 52.917 52.917" xmlns="http://www.w3.org/2000/svg"><path d="M26.505 33.888l5.969 12.636c.317.699 1.333 1.334 2.095 1.334h1.969c1.841 0 2.794-1.651 2.032-3.239l-8.636-18.16 8.509-18.162c.762-1.587-.254-3.238-2.032-3.238h-1.969c-.762 0-1.778.635-2.032 1.333-1.968 4.191-4 8.382-5.969 12.573L20.41 6.392c-.254-.635-1.27-1.333-2.032-1.333h-1.969c-1.841 0-2.794 1.65-2.095 3.238l8.636 18.161-8.636 18.161c-.699 1.588.317 3.239 2.095 3.239h1.969c.762 0 1.778-.699 2.032-1.334z" aria-label="X"/><path d="M1.405 26.458h50.107M26.458 1.405v50.107" fill="none" stroke="red" stroke-width="2" stroke-dasharray="8 2" class="correction"/></svg>