<svg width="211" height="141" version="1.1" viewBox="0 0 211 141" xmlns="http://www.w3.org/2000/svg">
 <path d="m23 19s16.29-1.37 22.29-1.14c4.45-.23 17.82.68 22.28.85 4.46.18 17.85 1.29 22.29.86 4.47.17 17.81-2.31 22.28-2.14 4.44-.43 17.83.68 22.29.86 4.46.17 17.83 1.08 22.28.85 4.46.17 17.83-.91 22.29-1.14" style="fill:none;stroke:black"/>
 <path d="m179 18s1.24 18.75 1 24.75c.2 4.95-.8 19.8-1 24.75s-1.4 19.81-1 24.75c-.2 4.96 1.6 19.8 2 24.75" style="fill:none;stroke:black"/>
 <path d="m179 117s-15.57 1.59-21.57 1.43c-4.31.28-17.26-.46-21.57-.57-4.32-.12-17.29-1.06-21.57-.57-4.34-.12-17.24 2.54-21.58 2.42-4.28.49-17.25-.45-21.57-.57-4.31-.11-17.26-.85-21.57-.57-4.32-.11-17.26 1.14-21.57 1.43" style="fill:none;stroke:black"/>
 <path d="m23 19s2 14.2 2 20.2c.4 4.02 0 16.16 0 20.2s-.59 16.2 0 20.2c0 4.08 3 16.12 3 20.2.59 4 0 16.16 0 20.2" style="fill:none;stroke:black"/>
 <path d="m23 19s16.13 8.09 21.02 11.57c4.09 2.26 15.14 10.96 19.01 13.58 3.94 2.81 15.74 11.31 20.02 13.57 3.74 2.54 16.01 8.46 20.01 10.58" style="fill:none;stroke:black"/>
 <line x1="61.24" x2="58.05" y1="39.48" y2="44.56" style="stroke:black"/>
 <line x1="64.63" x2="61.44" y1="41.61" y2="46.69" style="stroke:black"/>
 <path d="m103.1 69.3s12.82-10.77 17.99-13.83c3.68-2.83 16.04-9.37 19.98-11.82 3.85-2.28 15.46-9.07 18.99-11.83 4.08-2.54 15.18-11.86 18.98-14.82" style="fill:none;stroke:black"/>
 <line x1="136" x2="139.4" y1="43.4" y2="48.37" style="stroke:black"/>
 <line x1="139.4" x2="142.7" y1="41.16" y2="46.13" style="stroke:black"/>
 <path d="m103.1 69.3s15.11 7.42 19.99 10.92c3.88 2.13 14.32 10.43 17.98 12.93 3.73 2.68 14.91 10.8 18.99 12.92 3.54 2.42 15.18 7.94 18.98 9.93" style="fill:none;stroke:black"/>
 <line x1="139.2" x2="136" y1="88.48" y2="93.56" style="stroke:black"/>
 <line x1="142.6" x2="139.4" y1="90.61" y2="95.69" style="stroke:black"/>
 <path d="m28 120s12.6-10.62 17.77-13.68c3.63-2.8 15.86-9.25 19.76-11.67 3.81-2.25 15.28-8.96 18.77-11.68 4.04-2.52 15.01-11.74 18.76-14.67" style="fill:none;stroke:black"/>
 <line x1="60.54" x2="63.9" y1="94.4" y2="99.37" style="stroke:black"/>
 <line x1="63.85" x2="67.21" y1="92.16" y2="97.13" style="stroke:black"/>
 <path d="m93.1 62.76c10.27-9.109 8.858-10.81 19.29-1.642" style="fill:none;stroke:#000000"/>
 <circle id="a" cx="23" cy="19" r="2" style="stroke:black"/>
 <text x="9" y="19" font-size="12" style="stroke:black">A</text>
 <circle id="b" cx="179" cy="18" r="2" style="stroke:black"/>
 <text x="183.47495" y="15.487751" font-size="12px" style="stroke:#000000">B</text>
 <circle id="c" cx="179" cy="117" r="2" style="stroke:black"/>
 <text x="179" y="131" font-size="12" style="stroke:black">C</text>
 <circle id="d" cx="28" cy="120" r="2" style="stroke:black"/>
 <text x="14" y="134" font-size="12" style="stroke:black">D</text>
 <circle cx="103.1" cy="69.3" r="2" style="stroke:black"/>
</svg>
