<svg width="211" height="141" version="1.1" viewBox="0 0 211 141" xmlns="http://www.w3.org/2000/svg">
 <path d="m33 26s16.15-1.48 22.14-1.29c4.43-.25 17.72.58 22.15.72 4.42.14 17.73 1.17 22.14.71 4.45.15 17.69-2.43 22.14-2.28 4.41-.46 17.72.57 22.14.71 4.43.14 17.72.97 22.15.72 4.43.14 17.71-1.03 22.14-1.29" style="fill:none;stroke:black"/>
 <path d="m188 24s-.07 18.29-.75 24.25c-.15 4.88-2.2 19.4-2.75 24.25s-2.8 19.37-2.75 24.25c-.55 4.82.2 19.4.25 24.25" style="fill:none;stroke:black"/>
 <path d="m181 121s-15.87.86-21.86.43c-4.38.08-17.48-1.26-21.85-1.57-4.38-.32-17.49-1.86-21.86-1.57-4.37-.32-17.49 1.74-21.86 1.42-4.37.29-17.48-1.25-21.86-1.57-4.37-.31-17.47-1.65-21.85-1.57-4.36-.31-17.49.34-21.86.43" style="fill:none;stroke:black"/>
 <path d="m33 26s.34 16.78-.25 22.75c-.05 4.57-1.8 18.2-2.25 22.75s-2.4 18.18-2.25 22.75c-.45 4.53.6 18.2.75 22.75" style="fill:none;stroke:black"/>
 <path d="m289.6-22.04a30 30 0 01-30.25-21.18" style="fill:none;stroke:black"/>
 <path d="m33 26s14.18 6.99 19.01 10.56c3.69 2.05 13.53 10.14 17 12.56 3.53 2.6 14.13 10.49 18.01 12.55 3.34 2.34 14.4 7.65 18 9.56" style="fill:none;stroke:black"/>
 <line x1="68.95" x2="65.71" y1="45.51" y2="50.56" style="stroke:black"/>
 <path d="m105 72.23s15.45-10.23 20.75-13.06c3.98-2.5 16.59-8.84 20.74-11.05 4.15-2.22 16.85-8.42 20.75-11.06 4.42-2.36 16.59-11.25 20.74-14.06" style="fill:none;stroke:black"/>
 <line x1="141.5" x2="144.6" y1="47.53" y2="52.72" style="stroke:black"/>
 <line x1="145" x2="148" y1="45.52" y2="50.71" style="stroke:black"/>
 <path d="m105 72.23s15.16 7.65 20 11.19c3.89 2.18 14.33 10.65 17.99 13.2 3.73 2.73 14.92 11 19 13.19 3.54 2.46 15.19 8.15 18.99 10.19" style="fill:none;stroke:black"/>
 <line x1="142.9" x2="139.7" y1="93.01" y2="98.06" style="stroke:black"/>
 <path d="m28 117s13.95-9.39 19.26-12.19c3.68-2.33 15.4-8.16 19.25-10.19 3.85-2.04 15.66-7.73 19.26-10.2 4.12-2.18 15.4-10.55 19.25-13.19" style="fill:none;stroke:black"/>
 <line x1="61.55" x2="64.56" y1="94.03" y2="99.22" style="stroke:black"/>
 <line x1="65" x2="68.02" y1="92.02" y2="97.21" style="stroke:black"/>
 <path d="m96.3 66.26c11.58-9.989 7.318-7.67 18.77-.5763" style="fill:none;stroke:#000000"/>
 <circle id="a" cx="33" cy="26" r="2" style="stroke:black"/>
 <text x="20.575745" y="22.653191" font-size="12px" style="stroke:#000000">A</text>
 <circle id="b" cx="188" cy="24" r="2" style="stroke:black"/>
 <text x="193.20766" y="20.947233" font-size="12px" style="stroke:#000000">B</text>
 <circle id="c" cx="181" cy="121" r="2" style="stroke:black"/>
 <text x="177" y="137" font-size="12" style="stroke:black">C</text>
 <circle id="d" cx="28" cy="117" r="2" style="stroke:black"/>
 <text x="12" y="127" font-size="12" style="stroke:black">D</text>
 <circle id="e" cx="293" cy="44" r="2" style="stroke:black"/>
 <text x="296" y="51" font-size="12" style="stroke:black">E</text>
 <circle id="f" cx="288" cy="-52" r="2" style="stroke:black"/>
 <text x="291" y="-45" font-size="12" style="stroke:black">F</text>
 <circle cx="105" cy="72.23" r="2" style="stroke:black"/>
</svg>
