<svg width="211" height="141" version="1.1" viewBox="0 0 211 141" xmlns="http://www.w3.org/2000/svg">
 <path d="m52 22s16.8-1.56 22.8-1.4c4.55-.28 18.24.48 22.8.6s18.26 1.08 22.8.6c4.58.12 18.22-2.52 22.8-2.4 4.54-.48 18.24.48 22.8.6" style="fill:none;stroke:black"/>
 <path d="m166 20s1.16 14.01.8 20c.16 4-.96 16-1.2 20s-1.56 16.01-1.2 20c-.24 4.01 2.04 15.99 1.8 20 .36 3.99-.96 16-1.2 20" style="fill:none;stroke:black"/>
 <path d="m165 120s-16.41 1.27-22.4 1c-4.48.2-17.92-.8-22.4-1s-17.93-1.4-22.4-1c-4.49-.2-17.91 2.2-22.4 2-4.47.4-17.92-.8-22.4-1" style="fill:none;stroke:black"/>
 <path d="m52 22s1.43 18.5 1.25 24.5c.25 4.9-.6 19.6-.75 24.5s-1.2 19.62-.75 24.5c-.15 4.92 1.8 19.6 2.25 24.5" style="fill:none;stroke:black"/>
 <path d="m52 22s15.51 11.13 19.81 15.31c3.93 3.04 14.16 13.95 17.81 17.32 3.67 3.56 15.05 13.85 18.81 17.31" style="fill:none;stroke:black"/>
 <line x1="80.67" x2="76.74" y1="42.89" y2="47.43" style="stroke:black"/>
 <path d="m108.4 70.94s8.62-10.09 13.4-13.73c2.7-2.77 12.39-9.29 15.39-11.74 2.95-2.25 11.89-8.99 14.39-11.73 3.08-2.52 10.71-11.79 13.39-14.74" style="fill:none;stroke:black"/>
 <line x1="132.2" x2="136.2" y1="45.88" y2="50.37" style="stroke:black"/>
 <line x1="135.2" x2="139.2" y1="43.22" y2="47.72" style="stroke:black"/>
 <path d="m108.4 70.94s15.56 11.17 19.86 15.36c3.94 3.04 14.19 13.98 17.85 17.35 3.68 3.57 15.09 13.88 18.86 17.35" style="fill:none;stroke:black"/>
 <line x1="137.2" x2="133.2" y1="91.89" y2="96.43" style="stroke:black"/>
 <path d="m53 120s12.77-13.64 17.48-17.35c3.52-3.5 15.66-12.18 19.48-15.35 3.77-2.98 14.78-12.29 18.47-15.36" style="fill:none;stroke:black"/>
 <line x1="75.73" x2="79.71" y1="95.88" y2="100.4" style="stroke:black"/>
 <line x1="78.73" x2="82.71" y1="93.22" y2="97.72" style="stroke:black"/>
 <path d="m100.3 64.16c8.428-8.127 6.575-6.977 14.83-.4615" style="fill:none;stroke:#000000"/>
 <circle id="a" cx="52" cy="22" r="2" style="stroke:black"/>
 <text x="38" y="22" font-size="12" style="stroke:black">A</text>
 <circle id="b" cx="166" cy="20" r="2" style="stroke:black"/>
 <text x="170.00389" y="17.487751" font-size="12px" style="stroke:#000000">B</text>
 <circle id="c" cx="165" cy="120" r="2" style="stroke:black"/>
 <text x="169.47495" y="131.48775" font-size="12px" style="stroke:#000000">C</text>
 <circle id="d" cx="53" cy="120" r="2" style="stroke:black"/>
 <text x="39" y="134" font-size="12" style="stroke:black">D</text>
 <circle cx="108.4" cy="70.94" r="2" style="stroke:black"/>
</svg>
