<?xml version="1.0" standalone="no"?>
<!DOCTYPE svg PUBLIC "-//W3C//DTD SVG 1.1//EN" "http://www.w3.org/Graphics/SVG/1.1/DTD/svg11.dtd">
<svg width="211" height="141" version="1.1" viewBox="0 0 211 141" xmlns="http://www.w3.org/2000/svg">
<!-- @3= segment [AB] -->
<path style="stroke:black;fill:none;" d="M27 30 C27 30 42.02 29.07 48 29.5 C52.21 29.4 64.8 30.7 69 31 C73.2 31.3 85.8 32.8 90 32.5 C94.2 32.8 106.8 30.7 111 31 C115.2 30.7 127.8 32.2 132 32.5 M132 32.5 C136.2 32.8 148.8 33.7 153 34 "/>
<!-- @5= segment [BC] -->
<path style="stroke:black;fill:none;" d="M153 33 C153 33 160.67 48.37 162.75 54 C164.64 58.06 168.95 70.8 170.5 75 C172.05 79.2 176.21 92.01 178.25 96 M178.25 96 C179.88 100.43 186.85 112.8 189 117 "/>
<!-- @7= segment [CD] -->
<path style="stroke:black;fill:none;" d="M188 117 C188 117 172.16 118.27 166.17 118 C161.8 118.2 148.7 117.2 144.33 117 C139.97 116.8 126.85 115.6 122.5 116 C118.12 115.8 105.05 118.2 100.67 118 C96.31 118.4 83.19 117.4 78.83 117 M78.83 117 C74.45 116.8 61.37 115.4 57 115 "/>
<!-- @8= segment [AD] -->
<path style="stroke:black;fill:none;" d="M27 30 C27 30 33.78 46.0 35.5 51.75 C37.15 55.98 40.7 69.15 42 73.5 C43.3 77.85 46.68 91.09 48.5 95.25 M48.5 95.25 C49.86 99.8 56.1 112.65 58 117 "/>
<path d="M 289.5603850256962,-22.04060750663353 A 30 30 0 0 1  259.37929247102926,-43.00805357327355" style="stroke:black;fill:none;"/>
<!-- @15= segment [A@14] -->
<path style="stroke:black;fill:none;" d="M27 30 C27 30 41.84 36.76 47.0 39.81 C51.17 41.85 63.01 49.26 67.01 51.62 C71.01 53.98 82.76 61.56 87.01 63.43 M87.01 63.43 C90.78 65.65 103.01 70.48 107.01 72.24 "/>
<!-- Marqueur : 1 trait -->
<line x1="66.673803" y1="48.02865" x2="63.821386" y2="53.30726" style="stroke:black;"/>
<!-- @16= segment [@14B] -->
<path style="stroke:black;fill:none;" d="M107.01 73.24 C107.01 73.24 116.57 62.46 121.34 58.83 C124.24 55.92 134.48 48.99 137.67 46.41 M137.67 46.41 C140.81 44.03 149.93 36.48 153 34 "/>
<!-- Marqueur : 2 traits -->
<line x1="125.021311" y1="53.495049" x2="128.972338" y2="58.010509" style="stroke:black;"/>
<!-- Marqueur : 2 traits -->
<line x1="128.031617" y1="50.86103" x2="131.982645" y2="55.37649" style="stroke:black;"/>
<!-- @17= segment [@14C] -->
<path style="stroke:black;fill:none;" d="M107.01 73.24 C107.01 73.24 122.09 80.13 127.26 83.18 C131.48 85.25 143.46 92.73 147.51 95.12 C151.56 97.51 163.45 105.16 167.75 107.06 M167.75 107.06 C171.57 109.31 183.95 114.21 188 116 "/>
<!-- Marqueur : 1 trait -->
<line x1="147.173803" y1="91.52865" x2="144.321386" y2="96.80726" style="stroke:black;"/>
<!-- @18= segment [D@14] -->
<path style="stroke:black;fill:none;" d="M57 117 C57 117 67.91 105.07 72.67 101.41 C75.83 98.27 86.89 90.64 90.34 87.83 M90.34 87.83 C93.75 85.2 103.68 76.96 107.01 74.24 "/>
<!-- Marqueur : 2 traits -->
<line x1="77.021311" y1="95.495049" x2="80.972338" y2="100.010509" style="stroke:black;"/>
<!-- Marqueur : 2 traits -->
<line x1="80.031617" y1="92.86103" x2="83.982645" y2="97.37649" style="stroke:black;"/>
<circle id="Point_A" cx="27" cy="30" r="2" style="stroke:black;"/>
<text style="stroke:black;" font-size="12" x="13" y="30">A</text>
<circle id="Point_B" cx="153" cy="33" r="2" style="stroke:black;"/>
<text style="stroke:black;" font-size="12" x="149" y="31">B</text>
<circle id="Point_C" cx="188" cy="117" r="2" style="stroke:black;"/>
<text style="stroke:black;" font-size="12" x="188" y="131">C</text>
<circle id="Point_D" cx="57" cy="117" r="2" style="stroke:black;"/>
<text style="stroke:black;" font-size="12" x="47" y="133">D</text>
<circle id="Point_E" cx="293" cy="44" r="2" style="stroke:black;"/>
<text style="stroke:black;" font-size="12" x="296" y="51">E</text>
<circle id="Point_F" cx="288" cy="-52" r="2" style="stroke:black;"/>
<text style="stroke:black;" font-size="12" x="291" y="-45">F</text>
<circle cx="107.014262" cy="73.237521" r="2" style="stroke:black;"/>
</svg>