<svg width="211" height="141" version="1.1" viewBox="0 0 211 141" xmlns="http://www.w3.org/2000/svg">
 <style>path{fill:none;stroke-linecap:round;stroke:#000}line{stroke:#000}text{font-size:12px}</style>
 <path d="m44 20s16.6-1.56 22.6-1.4c4.51-.28 18.08.48 22.6.6s18.1 1.08 22.6.6c4.54.12 18.06-2.52 22.6-2.4 4.5-.48 18.08.48 22.6.6"/>
 <line x1="94.45" x2="94.55" y1="16.11" y2="22.11"/>
 <line x1="98.45" x2="98.55" y1="16.04" y2="22.03"/>
 <line x1="102.4" x2="102.6" y1="15.97" y2="21.96"/>
 <line x1="102.4" x2="102.6" y1="15.97" y2="21.96"/>
 <line x1="161.4" x2="155.4" y1="63.41" y2="63.59"/>
 <line x1="161.5" x2="155.5" y1="67.41" y2="67.59"/>
 <path d="m160 117s-15.8 1.57-21.8 1.4c-4.35.28-17.44-.48-21.8-.6s-17.46-1.08-21.8-.6c-4.38-.12-17.42 2.52-21.8 2.4-4.34.48-17.44-.48-21.8-.6"/>
 <line x1="111.6" x2="111.4" y1="120.9" y2="114.9"/>
 <line x1="107.6" x2="107.4" y1="121" y2="115"/>
 <line x1="103.6" x2="103.4" y1="121" y2="115"/>
 <path d="m44 20s2.57 18.75 2.75 24.75c.55 4.92.6 19.8.75 24.75s.01 19.85.75 24.75c.15 5 3 19.8 3.75 24.75"/>
 <line x1="50.21" x2="44.23" y1="65.3" y2="65.72"/>
 <line x1="50.49" x2="44.51" y1="69.29" y2="69.71"/>
 <path d="m289.6-22.04a30 30 0 01-30.33-21.47"/>
 <text x="30" y="20">${:A}</text>
 <text x="165" y="18">${:B}</text>
 <text x="160" y="131">${:C}</text>
 <text x="37" y="133">${:D}</text>
 <path d="m155 18.04s2.57 18.75 2.75 24.75c.55 4.92.6 19.8.75 24.75s.01 19.85.75 24.75c.15 5 3 19.8 3.75 24.75"/>
</svg>
