<?xml version="1.0" standalone="no"?>
<!DOCTYPE svg PUBLIC "-//W3C//DTD SVG 1.1//EN" "http://www.w3.org/Graphics/SVG/1.1/DTD/svg11.dtd">
<svg width="211" height="141" version="1.1" viewBox="0 0 211 141" xmlns="http://www.w3.org/2000/svg">
<!-- @3= segment [AB] -->
<path style="stroke:black;fill:none;" d="M79 32 C79 32 96.81 28.8 102.8 28.4 C107.52 27.69 121.84 27.12 126.6 26.8 C131.36 26.48 145.72 26.11 150.4 25.2 C155.24 24.87 169.36 20.93 174.2 20.6 M174.2 20.6 C178.88 19.69 193.24 19.32 198 19 "/>
<!-- @5= segment [BC] -->
<path style="stroke:black;fill:none;" d="M198 19 C198 19 188.79 34.75 185 39.4 C182.45 43.4 172.9 54.04 170 57.8 C166.9 61.6 157.49 72.97 155 77.2 C152.1 80.94 145.99 93.93 143 97.6 M143 97.6 C140.59 101.69 131 112.32 128 116 "/>
<!-- @7= segment [CD] -->
<path style="stroke:black;fill:none;" d="M128 116 C128 116 112.8 117.86 106.8 117.8 C102.58 118.16 89.84 117.64 85.6 117.6 C81.36 117.56 68.6 116.84 64.4 117.4 C60.12 117.36 47.48 120.24 43.2 120.2 M43.2 120.2 C39.0 120.76 26.24 120.04 22 120 "/>
<!-- @8= segment [AD] -->
<path style="stroke:black;fill:none;" d="M79 32 C79 32 72.19 45.79 68.6 50.6 C66.58 54.22 58.59 63.81 56.2 67.2 C53.62 70.65 45.83 81.0 43.8 84.8 C41.5 88.06 36.7 99.14 34.4 102.4 M34.4 102.4 C32.37 106.2 24.48 116.48 22 120 "/>
<path d="M 289.5603850256962,-22.04060750663353 A 30 30 0 0 1  260.1641076299945,-40.81236861683989" style="stroke:black;fill:none;"/>
<!-- @15= segment [A@14] -->
<path style="stroke:black;fill:none;" d="M79 32 C79 32 89.25 47.42 92.08 52.71 M92.08 52.71 C94.59 56.68 100.95 69.28 103.16 73.42 "/>
<!-- Marqueur : 1 trait -->
<line x1="92.665361" y1="49.472429" x2="87.482688" y2="52.495655" style="stroke:black;"/>
<!-- @16= segment [@14B] -->
<path style="stroke:black;fill:none;" d="M103.16 73.42 C103.16 73.42 116.81 64.31 122.13 61.54 C125.76 59.27 137.3 53.63 141.1 51.65 C144.89 49.68 156.53 44.17 160.07 41.77 C164.13 39.65 174.97 31.0 179.03 28.88 M179.03 28.88 C182.57 26.48 194.21 20.98 198 19 "/>
<!-- Marqueur : 2 traits -->
<line x1="145.619248" y1="45.600525" x2="148.60563" y2="50.804516" style="stroke:black;"/>
<!-- Marqueur : 2 traits -->
<line x1="149.088576" y1="43.609604" x2="152.074957" y2="48.813596" style="stroke:black;"/>
<!-- @17= segment [@14C] -->
<path style="stroke:black;fill:none;" d="M103.16 73.42 C103.16 73.42 113.75 89.42 116.58 94.71 M116.58 94.71 C119.16 98.8 125.72 111.74 128 116 "/>
<!-- Marqueur : 1 trait -->
<line x1="117.165361" y1="91.472429" x2="111.982688" y2="94.495655" style="stroke:black;"/>
<!-- @18= segment [D@14] -->
<path style="stroke:black;fill:none;" d="M22 120 C22 120 36.98 110.14 42.29 107.36 C46.18 104.93 58.52 98.84 62.58 96.71 C66.64 94.58 79.07 88.62 82.87 86.07 M82.87 86.07 C87.2 83.8 99.11 75.15 103.16 72.42 "/>
<!-- Marqueur : 2 traits -->
<line x1="57.619248" y1="96.100525" x2="60.60563" y2="101.304516" style="stroke:black;"/>
<!-- Marqueur : 2 traits -->
<line x1="61.088576" y1="94.109604" x2="64.074957" y2="99.313596" style="stroke:black;"/>
<circle id="Point_A" cx="79" cy="32" r="2" style="stroke:black;"/>
<text style="stroke:black;" font-size="12" x="69" y="30">A</text>
<circle id="Point_B" cx="198" cy="19" r="2" style="stroke:black;"/>
<text style="stroke:black;" font-size="12" x="200" y="23">B</text>
<circle id="Point_C" cx="128" cy="116" r="2" style="stroke:black;"/>
<text style="stroke:black;" font-size="12" x="124" y="132">C</text>
<circle id="Point_D" cx="22" cy="120" r="2" style="stroke:black;"/>
<text style="stroke:black;" font-size="12" x="6" y="130">D</text>
<circle id="Point_E" cx="293" cy="44" r="2" style="stroke:black;"/>
<text style="stroke:black;" font-size="12" x="296" y="51">E</text>
<circle id="Point_F" cx="288" cy="-52" r="2" style="stroke:black;"/>
<text style="stroke:black;" font-size="12" x="291" y="-45">F</text>
<circle cx="103.163533" cy="73.4232" r="2" style="stroke:black;"/>
</svg>