<?xml version="1.0" standalone="no"?>
<!DOCTYPE svg PUBLIC "-//W3C//DTD SVG 1.1//EN" "http://www.w3.org/Graphics/SVG/1.1/DTD/svg11.dtd">
<svg width="211" height="141" version="1.1" viewBox="0 0 211 141" xmlns="http://www.w3.org/2000/svg">
<!-- @3= segment [AB] -->
<path style="stroke:black;fill:none;" d="M27 26 C27 26 43.29 24.63 49.29 24.86 C53.74 24.63 67.11 25.54 71.57 25.71 C76.03 25.89 89.42 27.0 93.86 26.57 C98.33 26.74 111.67 24.26 116.14 24.43 C120.58 24.0 133.97 25.11 138.43 25.29 C142.89 25.46 156.26 26.37 160.71 26.14 M160.71 26.14 C165.17 26.31 178.54 25.23 183 25 "/>
<!-- @5= segment [BC] -->
<path style="stroke:black;fill:none;" d="M183 25 C183 25 182.87 39.56 182 45.5 C181.8 49.64 179.6 61.9 179 66 C178.4 70.1 176 82.36 176 86.5 M176 86.5 C175.41 90.56 176 102.9 176 107 "/>
<!-- @7= segment [CD] -->
<path style="stroke:black;fill:none;" d="M175 107 C175 107 157.5 109.12 151.5 109.17 C146.82 109.6 132.7 109.3 128 109.33 C123.3 109.37 109.16 108.87 104.5 109.5 C99.76 109.53 85.74 112.63 81 112.67 C76.34 113.29 62.2 112.8 57.5 112.83 M57.5 112.83 C52.8 112.87 38.7 112.97 34 113 "/>
<!-- @8= segment [AD] -->
<path style="stroke:black;fill:none;" d="M27 26 C27 26 29.55 42.0 29.75 48 C30.3 52.37 30.35 65.6 30.5 70 C30.65 74.4 30.51 87.66 31.25 92 M31.25 92 C31.4 96.46 34.25 109.6 35 114 "/>
<circle id="Point_A" cx="27" cy="26" r="2" style="stroke:black;"/>
<text style="stroke:black;" font-size="12" x="13" y="26">A</text>
<circle id="Point_B" cx="183" cy="25" r="2" style="stroke:black;"/>
<text style="stroke:black;" font-size="12" x="183" y="25">B</text>
<circle id="Point_C" cx="175" cy="107" r="2" style="stroke:black;"/>
<text style="stroke:black;" font-size="12" x="175" y="121">C</text>
<circle id="Point_D" cx="34" cy="114" r="2" style="stroke:black;"/>
<text style="stroke:black;" font-size="12" x="20" y="128">D</text>
</svg>