<?xml version="1.0" standalone="no"?>
<!DOCTYPE svg PUBLIC "-//W3C//DTD SVG 1.1//EN" "http://www.w3.org/Graphics/SVG/1.1/DTD/svg11.dtd">
<svg width="211" height="141" version="1.1" viewBox="0 0 211 141" xmlns="http://www.w3.org/2000/svg">
<!-- @3= segment [AB] -->
<path style="stroke:black;fill:none;" d="M35 24 C35 24 51.22 24.62 57.14 25.57 C61.62 25.89 74.86 28.43 79.29 29.14 C83.71 29.86 96.94 32.6 101.43 32.71 C105.8 33.42 119.2 32.58 123.57 33.29 C128.06 33.4 141.29 36.14 145.71 36.86 C150.14 37.57 163.38 40.11 167.86 40.43 M167.86 40.43 C172.24 41.14 185.57 41.69 190 42 "/>
<!-- @5= segment [BC] -->
<path style="stroke:black;fill:none;" d="M190 42 C190 42 182.78 56.65 179.25 61.5 C177.16 65.29 168.96 75.43 166.5 79 C163.85 82.63 155.85 93.52 153.75 97.5 M153.75 97.5 C151.38 100.94 145.95 112.3 144 116 "/>
<!-- @7= segment [CD] -->
<path style="stroke:black;fill:none;" d="M143 116 C143 116 124.8 117.85 118.8 117.8 C113.97 118.16 99.44 117.64 94.6 117.6 C89.76 117.56 75.21 116.84 70.4 117.4 C65.53 117.36 51.07 120.24 46.2 120.2 M46.2 120.2 C41.39 120.76 26.84 120.04 22 120 "/>
<!-- @8= segment [AD] -->
<path style="stroke:black;fill:none;" d="M35 24 C35 24 33.8 42.09 32.75 48 C32.29 52.85 29.35 67.2 28.5 72 C27.65 76.8 24.5 91.13 24.25 96 M24.25 96 C23.41 100.73 23.25 115.2 23 120 "/>
<path d="M 289.5603850256962,-22.04060750663353 A 30 30 0 0 1  259.26833894349323,-43.3691452952786" style="stroke:black;fill:none;"/>
<!-- @15= segment [A@14] -->
<path style="stroke:black;fill:none;" d="M35 24 C35 24 48.78 33.39 53.09 37.56 C56.67 40.24 65.87 50.1 69.18 53.11 C72.5 56.33 82.47 66.04 86.27 68.67 M86.27 68.67 C89.52 71.64 100.74 78.72 104.35 81.23 "/>
<!-- Marqueur : 2 traits -->
<line x1="68.077813" y1="48.236475" x2="64.187015" y2="52.803934" style="stroke:black;"/>
<!-- Marqueur : 2 traits -->
<line x1="71.122786" y1="50.830341" x2="67.231988" y2="55.3978" style="stroke:black;"/>
<!-- @16= segment [@14B] -->
<path style="stroke:black;fill:none;" d="M103.35 82.23 C103.35 82.23 119.48 73.49 125.02 71.17 C129.2 69.04 142.35 63.93 146.68 62.11 C151.01 60.3 164.24 55.34 168.34 53.06 M168.34 53.06 C172.91 51.14 185.67 43.41 190 41 "/>
<!-- Marqueur : 2 traits -->
<line x1="141.786017" y1="61.077489" x2="144.312685" y2="66.519542" style="stroke:black;"/>
<!-- Marqueur : 2 traits -->
<line x1="145.414053" y1="59.393043" x2="147.940721" y2="64.835097" style="stroke:black;"/>
<!-- @17= segment [@14C] -->
<path style="stroke:black;fill:none;" d="M103.35 82.23 C103.35 82.23 113.33 88.24 117.57 92.49 C120.38 94.51 127.25 102.39 129.78 104.74 M129.78 104.74 C132.33 107.3 140.36 114.55 143 117 "/>
<!-- Marqueur : 2 traits -->
<line x1="122.077813" y1="94.236475" x2="118.187015" y2="98.803934" style="stroke:black;"/>
<!-- Marqueur : 2 traits -->
<line x1="125.122786" y1="96.830341" x2="121.231988" y2="101.3978" style="stroke:black;"/>
<!-- @18= segment [D@14] -->
<path style="stroke:black;fill:none;" d="M22 120 C22 120 36.8 111.86 42.34 109.56 C46.26 107.55 58.61 102.8 62.68 101.11 C66.75 99.43 79.18 94.83 83.02 92.67 M83.02 92.67 C87.33 90.88 99.29 83.52 103.35 81.23 "/>
<!-- Marqueur : 2 traits -->
<line x1="57.786017" y1="100.077489" x2="60.312685" y2="105.519542" style="stroke:black;"/>
<!-- Marqueur : 2 traits -->
<line x1="61.414053" y1="98.393043" x2="63.940721" y2="103.835097" style="stroke:black;"/>
<circle id="Point_A" cx="35" cy="24" r="2" style="stroke:black;"/>
<text style="stroke:black;" font-size="12" x="25" y="22">A</text>
<circle id="Point_B" cx="190" cy="42" r="2" style="stroke:black;"/>
<text style="stroke:black;" font-size="12" x="192" y="46">B</text>
<circle id="Point_C" cx="143" cy="116" r="2" style="stroke:black;"/>
<text style="stroke:black;" font-size="12" x="139" y="132">C</text>
<circle id="Point_D" cx="22" cy="120" r="2" style="stroke:black;"/>
<text style="stroke:black;" font-size="12" x="8" y="134">D</text>
<circle id="Point_E" cx="293" cy="44" r="2" style="stroke:black;"/>
<text style="stroke:black;" font-size="12" x="296" y="51">E</text>
<circle id="Point_F" cx="288" cy="-52" r="2" style="stroke:black;"/>
<text style="stroke:black;" font-size="12" x="291" y="-45">F</text>
<circle cx="103.354774" cy="82.228141" r="2" style="stroke:black;"/>
</svg>