<svg width="15em" height="7.5em" viewBox="0 0 105.833 52.917" xmlns="http://www.w3.org/2000/svg"><path d="M39.042 46.143c.254.953 1.27 1.778 2.222 1.778h1.842c1.524 0 2.54-1.333 2.222-2.794L36.565 6.9c-.19-.952-1.27-1.778-2.222-1.778h-1.397c-.953 0-1.969.826-2.223 1.778L24.945 31.73 21.897 45.19c-.318 1.46.698 2.73 2.222 2.73h1.842c.952 0 1.968-.825 2.222-1.778l2.223-9.906h6.477zm-5.398-26.352c1.207 5.397 1.08 7.112 1.778 10.16h-3.556zm28.13 28.13c.953 0 1.97-.825 2.223-1.841l2.096-14.097v13.652a2.276 2.276 0 002.286 2.286h1.778a2.276 2.276 0 002.286-2.286V7.408a2.276 2.276 0 00-2.286-2.286h-1.905c-.953 0-2.032.826-2.223 1.778l-4.953 25.59L56.06 6.9c-.19-.952-1.207-1.778-2.16-1.778h-1.904a2.276 2.276 0 00-2.286 2.286v38.227a2.276 2.276 0 002.286 2.286h1.778c1.206 0 2.286-1.016 2.286-2.286v-13.78l2.159 14.288c.19.953 1.206 1.778 2.159 1.778zm22.29-40.513c0-1.27-1.08-2.286-2.287-2.286H80a2.276 2.276 0 00-2.286 2.286v38.227A2.276 2.276 0 0080 47.921h1.778c1.207 0 2.286-1.016 2.286-2.286z"/></svg>