<svg width="15em" height="7.5em" viewBox="0 0 105.833 52.917" xmlns="http://www.w3.org/2000/svg"><path d="M30.414 46.143c.254.953 1.27 1.778 2.223 1.778h1.841c1.524 0 2.54-1.333 2.223-2.794L27.938 6.9c-.19-.952-1.27-1.778-2.223-1.778h-1.397c-.952 0-1.968.826-2.222 1.778L16.317 31.73 13.27 45.19c-.317 1.46.699 2.73 2.223 2.73h1.841c.953 0 1.969-.825 2.223-1.778l2.222-9.906h6.477zm-5.397-26.352c1.206 5.397 1.08 7.112 1.778 10.16h-3.556zm27.876 14.16l5.97 12.637c.317.698 1.333 1.333 2.095 1.333h1.968c1.842 0 2.794-1.65 2.032-3.238l-8.636-18.161 8.51-18.161c.761-1.588-.255-3.239-2.033-3.239h-1.968c-.762 0-1.778.635-2.032 1.334-1.969 4.19-4 8.382-5.97 12.573L46.798 6.456c-.254-.635-1.27-1.334-2.032-1.334h-1.968c-1.842 0-2.794 1.651-2.096 3.239l8.636 18.16-8.636 18.162c-.698 1.587.318 3.238 2.096 3.238h1.968c.762 0 1.778-.698 2.032-1.333zm33.384 12.192c.254.953 1.27 1.778 2.223 1.778h1.841c1.524 0 2.54-1.333 2.223-2.794L83.801 6.9c-.19-.952-1.27-1.778-2.223-1.778h-1.397c-.952 0-1.968.826-2.222 1.778L72.18 31.73 69.132 45.19c-.317 1.46.699 2.73 2.223 2.73h1.841c.953 0 1.969-.825 2.223-1.778l2.222-9.906h6.477zM80.88 19.791c1.206 5.397 1.08 7.112 1.778 10.16h-3.556z"/><path d="M53.009-1.16c-.416-.076 0 55.854 0 55.854" fill="none" stroke="red" stroke-width="1.5" stroke-dasharray="6 1.5" class="correction"/></svg>