<svg width="15em" height="7.5em" viewBox="0 0 105.833 52.917" xmlns="http://www.w3.org/2000/svg"><path d="M19.516 47.921c7.43 0 10.731-4.064 10.731-12.255 0-3.874-1.08-7.112-2.73-9.144 0 0 2.73-3.239 2.73-9.144 0-8.192-3.302-12.256-10.731-12.256h-6.287a2.276 2.276 0 00-2.286 2.286v38.227a2.276 2.276 0 002.286 2.286zm0-36.512c3.111 0 4.381 1.714 4.381 5.969 0 4.254-1.27 5.969-4.381 5.969h-2.223V11.409zm0 18.224c3.111 0 4.381 1.715 4.381 6.033 0 4.254-1.27 5.969-4.381 5.969h-2.223V29.633zm32.83 16.51c.253.953 1.27 1.778 2.222 1.778h1.841c1.524 0 2.54-1.333 2.223-2.794L49.869 6.9c-.19-.952-1.27-1.778-2.223-1.778H46.25c-.952 0-1.968.826-2.222 1.778L38.248 31.73 35.2 45.19c-.317 1.46.699 2.73 2.223 2.73h1.841c.953 0 1.969-.825 2.223-1.778l2.222-9.906h6.477zm-5.398-26.352c1.206 5.397 1.08 7.112 1.778 10.16H45.17zM69.236 7.408c0-1.27-1.08-2.286-2.286-2.286h-1.778a2.276 2.276 0 00-2.286 2.286v38.227a2.276 2.276 0 002.286 2.286h1.778c1.207 0 2.286-1.016 2.286-2.286zm23.05 40.513a2.276 2.276 0 002.287-2.286V7.408a2.276 2.276 0 00-2.286-2.286h-1.778a2.276 2.276 0 00-2.286 2.286v20.955L79.396 6.52c-.254-.698-1.27-1.397-2.095-1.397h-1.524c-1.207 0-2.286 1.016-2.286 2.286v38.227c0 1.27 1.08 2.286 2.286 2.286h1.841c1.207 0 2.286-1.016 2.286-2.286V24.68l8.827 21.844c.254.699 1.333 1.397 2.095 1.397z"/></svg>