<svg width="15em" height="7.5em" viewBox="0 0 105.833 52.917" xmlns="http://www.w3.org/2000/svg"><path d="M28.279 47.921c7.43 0 10.731-4.064 10.731-12.255 0-3.874-1.08-7.112-2.73-9.144 0 0 2.73-3.239 2.73-9.144 0-8.192-3.302-12.256-10.731-12.256h-6.287a2.276 2.276 0 00-2.286 2.286v38.227a2.276 2.276 0 002.286 2.286zm0-36.512c3.111 0 4.381 1.714 4.381 5.969 0 4.254-1.27 5.969-4.381 5.969h-2.223V11.409zm0 18.224c3.111 0 4.381 1.715 4.381 6.033 0 4.254-1.27 5.969-4.381 5.969h-2.223V29.633zm17.78-24.51a2.276 2.276 0 00-2.286 2.285v38.227a2.276 2.276 0 002.286 2.286h13.716a2.276 2.276 0 002.286-2.286v-1.714a2.276 2.276 0 00-2.286-2.286h-9.716V29.633h8.001a2.276 2.276 0 002.286-2.286v-1.714a2.276 2.276 0 00-2.286-2.286h-8V11.409h9.715a2.276 2.276 0 002.286-2.286V7.408a2.276 2.276 0 00-2.286-2.286zm20.066 30.352c0 5.017 1.397 7.938 3.365 9.906 2.096 2.032 4.7 2.54 7.112 2.54 2.286 0 4.953-.508 7.049-2.54 1.968-1.968 3.302-4.89 3.302-9.906v-.889c0-1.27-1.016-2.286-2.223-2.286H82.89a2.276 2.276 0 00-2.286 2.286v.89c0 2.285-.318 4-1.08 5.016-.571.635-1.714 1.143-2.92 1.143-2.731 0-4.065-1.905-4.065-6.16v-17.97c0-4.255 1.397-6.096 4.064-6.096 2.604 0 4 1.841 4 6.096v.889a2.276 2.276 0 002.287 2.286h1.841c1.207 0 2.223-1.016 2.223-2.286v-.89c0-4.825-1.334-8-3.366-9.905-2.095-1.905-4.635-2.477-6.985-2.477-2.413 0-4.953.572-7.048 2.477-2.032 1.905-3.43 5.08-3.43 9.906z"/><path d="M94.043 26.617c.114-.415-83.472 0-83.472 0" fill="none" stroke="red" stroke-width="1.5" stroke-dasharray="6 1.5" class="correction"/></svg>