<svg width="15em" height="7.5em" viewBox="0 0 105.833 52.917" xmlns="http://www.w3.org/2000/svg"><path d="M10.372 47.921c7.43 0 10.731-4.064 10.731-12.255 0-3.874-1.08-7.112-2.73-9.144 0 0 2.73-3.239 2.73-9.144 0-8.192-3.302-12.256-10.731-12.256H4.085A2.276 2.276 0 001.8 7.408v38.227a2.276 2.276 0 002.286 2.286zm0-36.512c3.111 0 4.381 1.714 4.381 5.969 0 4.254-1.27 5.969-4.381 5.969H8.149V11.409zm0 18.224c3.111 0 4.381 1.715 4.381 6.033 0 4.254-1.27 5.969-4.381 5.969H8.149V29.633zM32.025 7.408c0-1.27-1.08-2.286-2.286-2.286h-1.778a2.276 2.276 0 00-2.286 2.286v38.227a2.276 2.276 0 002.286 2.286h1.778c1.207 0 2.286-1.016 2.286-2.286zm4.191 28.067c0 5.017 1.397 7.938 3.366 9.906 2.095 2.032 4.699 2.54 7.112 2.54 2.286 0 4.953-.508 7.048-2.54 1.969-1.968 3.302-4.89 3.302-9.906v-.889c0-1.27-1.016-2.286-2.222-2.286H52.98a2.276 2.276 0 00-2.286 2.286v.89c0 2.285-.317 4-1.08 5.016-.57.635-1.714 1.143-2.92 1.143-2.73 0-4.064-1.905-4.064-6.16v-17.97c0-4.255 1.397-6.096 4.064-6.096 2.603 0 4 1.841 4 6.096v.889a2.276 2.276 0 002.286 2.286h1.842c1.206 0 2.222-1.016 2.222-2.286v-.89c0-4.825-1.333-8-3.365-9.905-2.096-1.905-4.636-2.477-6.985-2.477-2.413 0-4.953.572-7.049 2.477-2.032 1.905-3.429 5.08-3.429 9.906zM67.712 23.41V7.408a2.276 2.276 0 00-2.286-2.286h-1.778a2.276 2.276 0 00-2.286 2.286v38.227a2.276 2.276 0 002.286 2.286h1.778a2.276 2.276 0 002.286-2.286V29.697h7.049v15.938a2.276 2.276 0 002.286 2.286h1.778a2.276 2.276 0 002.286-2.286V7.408a2.276 2.276 0 00-2.286-2.286h-1.778a2.276 2.276 0 00-2.286 2.286V23.41zM88.604 5.122a2.276 2.276 0 00-2.286 2.286v38.227a2.276 2.276 0 002.286 2.286h13.716a2.276 2.276 0 002.286-2.286v-1.714a2.276 2.276 0 00-2.286-2.286h-9.716V29.633h8.001a2.276 2.276 0 002.286-2.286v-1.714a2.276 2.276 0 00-2.286-2.286h-8.001V11.409h9.716a2.276 2.276 0 002.286-2.286V7.408a2.276 2.276 0 00-2.286-2.286z"/><path d="M.054 26.458h108" fill="none" stroke="red" stroke-width="2" stroke-dasharray="8 2" class="correction"/></svg>