<svg width="15em" height="7.5em" viewBox="0 0 105.833 52.917" xmlns="http://www.w3.org/2000/svg"><path d="M22.754 47.921c7.43 0 10.732-4.064 10.732-12.255 0-3.874-1.08-7.112-2.73-9.144 0 0 2.73-3.239 2.73-9.144 0-8.192-3.302-12.256-10.732-12.256h-6.286a2.276 2.276 0 00-2.286 2.286v38.227a2.276 2.276 0 002.286 2.286zm0-36.512c3.112 0 4.382 1.714 4.382 5.969 0 4.254-1.27 5.969-4.382 5.969h-2.222V11.409zm0 18.224c3.112 0 4.382 1.715 4.382 6.033 0 4.254-1.27 5.969-4.382 5.969h-2.222V29.633zM44.408 7.408c0-1.27-1.08-2.286-2.286-2.286h-1.778a2.276 2.276 0 00-2.286 2.286v38.227a2.276 2.276 0 002.286 2.286h1.778c1.206 0 2.286-1.016 2.286-2.286zm13.208 40.513c7.62 0 11.176-4.318 11.176-12.573V17.695c0-8.255-3.556-12.573-11.176-12.573h-6.477a2.276 2.276 0 00-2.286 2.286v38.227a2.276 2.276 0 002.286 2.286zm0-36.512c3.365 0 4.762 2.032 4.762 6.286v17.653c0 4.255-1.397 6.287-4.762 6.287h-2.477V11.409zM76.22 5.122a2.276 2.276 0 00-2.286 2.286v38.227a2.276 2.276 0 002.286 2.286h13.716a2.276 2.276 0 002.286-2.286v-1.714a2.276 2.276 0 00-2.286-2.286h-9.715V29.633h8a2.276 2.276 0 002.287-2.286v-1.714a2.276 2.276 0 00-2.286-2.286h-8.001V11.409h9.715a2.276 2.276 0 002.286-2.286V7.408a2.276 2.276 0 00-2.286-2.286z"/><path d="M.054 26.458h108" fill="none" stroke="red" stroke-width="2" stroke-dasharray="8 2" class="correction"/></svg>