<svg width="15em" height="7.5em" viewBox="0 0 105.833 52.917" xmlns="http://www.w3.org/2000/svg"><path d="M33.708 47.921c7.43 0 10.731-4.064 10.731-12.255 0-3.874-1.08-7.112-2.73-9.144 0 0 2.73-3.239 2.73-9.144 0-8.192-3.302-12.256-10.731-12.256H27.42a2.276 2.276 0 00-2.286 2.286v38.227a2.276 2.276 0 002.286 2.286zm0-36.512c3.111 0 4.381 1.714 4.381 5.969 0 4.254-1.27 5.969-4.381 5.969h-2.223V11.409zm0 18.224c3.111 0 4.381 1.715 4.381 6.033 0 4.254-1.27 5.969-4.381 5.969h-2.223V29.633zM55.36 7.408c0-1.27-1.08-2.286-2.286-2.286h-1.778a2.276 2.276 0 00-2.286 2.286v38.227a2.276 2.276 0 002.286 2.286h1.778c1.207 0 2.286-1.016 2.286-2.286zm4.318 28.067c0 5.017 1.397 7.938 3.366 9.906 2.095 2.032 4.762 2.54 7.048 2.54 2.35 0 5.017-.508 7.112-2.54 1.969-1.968 3.302-4.89 3.302-9.906v-17.97c0-8.065-3.429-12.383-10.414-12.383-6.921 0-10.414 4.382-10.414 12.383zm6.35-17.97c0-4.128 1.27-6.096 4.064-6.096 2.73 0 4.064 1.841 4.064 6.096v17.97c0 4.318-1.397 6.16-4.064 6.16-2.73 0-4.064-1.969-4.064-6.16z"/><path d="M.054 26.458h108" fill="none" stroke="red" stroke-width="2" stroke-dasharray="8 2" class="correction"/></svg>