<svg width="15em" height="7.5em" viewBox="0 0 105.833 52.917" xmlns="http://www.w3.org/2000/svg"><path d="M1.71 35.475c0 5.017 1.396 7.938 3.365 9.906 2.095 2.032 4.699 2.54 7.112 2.54 2.286 0 4.953-.508 7.048-2.54 1.969-1.968 3.302-4.89 3.302-9.906v-.889c0-1.27-1.016-2.286-2.222-2.286h-1.842a2.276 2.276 0 00-2.286 2.286v.89c0 2.285-.317 4-1.08 5.016-.57.635-1.714 1.143-2.92 1.143-2.73 0-4.064-1.905-4.064-6.16v-17.97c0-4.255 1.397-6.096 4.064-6.096 2.603 0 4 1.841 4 6.096v.889a2.276 2.276 0 002.286 2.286h1.842c1.206 0 2.222-1.016 2.222-2.286v-.89c0-4.825-1.333-8-3.365-9.905-2.096-1.905-4.636-2.477-6.985-2.477-2.413 0-4.953.572-7.049 2.477-2.032 1.905-3.429 5.08-3.429 9.906zM31.25 23.41V7.408a2.276 2.276 0 00-2.286-2.286h-1.778A2.276 2.276 0 0024.9 7.408v38.227a2.276 2.276 0 002.286 2.286h1.778a2.276 2.276 0 002.286-2.286V29.697h7.048v15.938a2.276 2.276 0 002.286 2.286h1.778a2.276 2.276 0 002.286-2.286V7.408a2.276 2.276 0 00-2.286-2.286h-1.778a2.276 2.276 0 00-2.286 2.286V23.41zm16.714 12.065c0 5.017 1.397 7.938 3.365 9.906 2.096 2.032 4.763 2.54 7.049 2.54 2.35 0 5.016-.508 7.112-2.54 1.968-1.968 3.302-4.89 3.302-9.906v-17.97c0-8.065-3.43-12.383-10.414-12.383-6.922 0-10.414 4.382-10.414 12.383zm6.35-17.97c0-4.128 1.27-6.096 4.064-6.096 2.73 0 4.064 1.841 4.064 6.096v17.97c0 4.318-1.397 6.16-4.064 6.16-2.73 0-4.064-1.969-4.064-6.16zM77.885 7.408c0-1.27-1.08-2.286-2.286-2.286h-1.778a2.276 2.276 0 00-2.286 2.286v38.227a2.276 2.276 0 002.286 2.286H75.6c1.207 0 2.286-1.016 2.286-2.286zm14.047 26.543l5.97 12.637c.317.698 1.333 1.333 2.095 1.333h1.968c1.842 0 2.794-1.65 2.032-3.238l-8.636-18.161 8.51-18.161c.761-1.588-.255-3.239-2.033-3.239H99.87c-.762 0-1.778.635-2.032 1.334-1.969 4.19-4 8.382-5.97 12.573L85.837 6.456c-.254-.635-1.27-1.334-2.032-1.334h-1.968c-1.842 0-2.794 1.651-2.096 3.239l8.636 18.16-8.636 18.162c-.698 1.587.318 3.238 2.096 3.238h1.968c.762 0 1.778-.698 2.032-1.333z"/><path d="M94.043 26.617c.114-.415-83.472 0-83.472 0" fill="none" stroke="red" stroke-width="1.5" stroke-dasharray="6 1.5" class="correction"/></svg>