<svg width="15em" height="7.5em" viewBox="0 0 105.833 52.917" xmlns="http://www.w3.org/2000/svg"><path d="M5.736 35.475c0 5.017 1.397 7.938 3.366 9.906 2.095 2.032 4.699 2.54 7.112 2.54 2.286 0 4.953-.508 7.048-2.54 1.969-1.968 3.302-4.89 3.302-9.906v-.889c0-1.27-1.016-2.286-2.222-2.286H22.5a2.276 2.276 0 00-2.286 2.286v.89c0 2.285-.317 4-1.08 5.016-.57.635-1.714 1.143-2.92 1.143-2.73 0-4.064-1.905-4.064-6.16v-17.97c0-4.255 1.397-6.096 4.064-6.096 2.603 0 4 1.841 4 6.096v.889A2.276 2.276 0 0022.5 20.68h1.842c1.206 0 2.222-1.016 2.222-2.286v-.89c0-4.825-1.333-8-3.365-9.905-2.096-1.905-4.636-2.477-6.985-2.477-2.413 0-4.953.572-7.049 2.477-2.032 1.905-3.429 5.08-3.429 9.906zm25.146 0c0 5.017 1.397 7.938 3.366 9.906 2.095 2.032 4.762 2.54 7.048 2.54 2.35 0 5.017-.508 7.112-2.54 1.969-1.968 3.302-4.89 3.302-9.906v-17.97c0-8.065-3.429-12.383-10.414-12.383-6.921 0-10.414 4.382-10.414 12.383zm6.35-17.97c0-4.128 1.27-6.096 4.064-6.096 2.73 0 4.064 1.841 4.064 6.096v17.97c0 4.318-1.397 6.16-4.064 6.16-2.73 0-4.064-1.969-4.064-6.16zM65.553 47.92c7.62 0 11.176-4.318 11.176-12.573V17.695c0-8.255-3.556-12.573-11.176-12.573h-6.477a2.276 2.276 0 00-2.286 2.286v38.227a2.276 2.276 0 002.286 2.286zm0-36.512c3.366 0 4.763 2.032 4.763 6.286v17.653c0 4.255-1.397 6.287-4.763 6.287h-2.476V11.409zM84.16 5.122a2.276 2.276 0 00-2.286 2.286v38.227a2.276 2.276 0 002.286 2.286h13.716a2.276 2.276 0 002.286-2.286v-1.714a2.276 2.276 0 00-2.286-2.286h-9.716V29.633h8.001a2.276 2.276 0 002.286-2.286v-1.714a2.276 2.276 0 00-2.286-2.286h-8V11.409h9.715a2.276 2.276 0 002.286-2.286V7.408a2.276 2.276 0 00-2.286-2.286z"/><path d="M.054 26.458h108" fill="none" stroke="red" stroke-width="2" stroke-dasharray="8 2" class="correction"/></svg>