<svg width="15em" height="7.5em" viewBox="0 0 105.833 52.917" xmlns="http://www.w3.org/2000/svg"><path d="M20.754 47.921c7.62 0 11.176-4.318 11.176-12.573V17.695c0-8.255-3.556-12.573-11.176-12.573h-6.477a2.276 2.276 0 00-2.286 2.286v38.227a2.276 2.276 0 002.286 2.286zm0-36.512c3.365 0 4.762 2.032 4.762 6.286v17.653c0 4.255-1.397 6.287-4.762 6.287h-2.477V11.409zm22.479-4c0-1.27-1.08-2.287-2.286-2.287h-1.778a2.276 2.276 0 00-2.286 2.286v38.227a2.276 2.276 0 002.286 2.286h1.778c1.206 0 2.286-1.016 2.286-2.286zm4.19 28.066c0 5.017 1.398 7.938 3.366 9.906 2.096 2.032 4.7 2.54 7.112 2.54 2.286 0 4.953-.508 7.049-2.54 1.968-1.968 3.302-4.89 3.302-9.906v-.889c0-1.27-1.016-2.286-2.223-2.286h-1.841a2.276 2.276 0 00-2.286 2.286v.89c0 2.285-.318 4-1.08 5.016-.571.635-1.714 1.143-2.92 1.143-2.731 0-4.065-1.905-4.065-6.16v-17.97c0-4.255 1.397-6.096 4.064-6.096 2.604 0 4 1.841 4 6.096v.889a2.276 2.276 0 002.287 2.286h1.841c1.207 0 2.223-1.016 2.223-2.286v-.89c0-4.825-1.334-8-3.366-9.905-2.095-1.905-4.635-2.477-6.985-2.477-2.413 0-4.953.572-7.048 2.477-2.032 1.905-3.43 5.08-3.43 9.906zm25.147 0c0 5.017 1.397 7.938 3.365 9.906 2.096 2.032 4.763 2.54 7.049 2.54 2.35 0 5.016-.508 7.112-2.54 1.968-1.968 3.302-4.89 3.302-9.906v-17.97c0-8.065-3.43-12.383-10.414-12.383-6.922 0-10.414 4.382-10.414 12.383zm6.35-17.97c0-4.128 1.27-6.096 4.064-6.096 2.73 0 4.064 1.841 4.064 6.096v17.97c0 4.318-1.397 6.16-4.064 6.16-2.73 0-4.064-1.969-4.064-6.16z"/><path d="M.054 26.458h108" fill="none" stroke="red" stroke-width="2" stroke-dasharray="8 2" class="correction"/></svg>