<svg width="15em" height="7.5em" viewBox="0 0 105.833 52.917" xmlns="http://www.w3.org/2000/svg"><path d="M13.642 5.122a2.276 2.276 0 00-2.286 2.286v38.227a2.276 2.276 0 002.286 2.286h13.716a2.276 2.276 0 002.286-2.286v-1.714a2.276 2.276 0 00-2.286-2.286h-9.716V29.633h8.001a2.276 2.276 0 002.286-2.286v-1.714a2.276 2.276 0 00-2.286-2.286h-8V11.409h9.715a2.276 2.276 0 002.286-2.286V7.408a2.276 2.276 0 00-2.286-2.286zm37.846 38.799a2.276 2.276 0 00-2.286-2.286H39.74V7.408c0-1.27-1.016-2.286-2.222-2.286h-1.842a2.276 2.276 0 00-2.286 2.286v38.227a2.276 2.276 0 002.286 2.286h13.526a2.276 2.276 0 002.286-2.286zm21.272 0a2.276 2.276 0 00-2.286-2.286h-9.461V7.408c0-1.27-1.016-2.286-2.223-2.286H56.95a2.276 2.276 0 00-2.286 2.286v38.227a2.276 2.276 0 002.286 2.286h13.525a2.276 2.276 0 002.286-2.286zm5.842-38.799a2.276 2.276 0 00-2.286 2.286v38.227a2.276 2.276 0 002.286 2.286h13.716a2.276 2.276 0 002.286-2.286v-1.714a2.276 2.276 0 00-2.286-2.286h-9.715V29.633h8a2.276 2.276 0 002.287-2.286v-1.714a2.276 2.276 0 00-2.286-2.286h-8.001V11.409h9.715a2.276 2.276 0 002.286-2.286V7.408a2.276 2.276 0 00-2.286-2.286z"/></svg>