<svg width="15em" height="7.5em" viewBox="0 0 105.833 52.917" xmlns="http://www.w3.org/2000/svg"><path d="M28.628 26.458c-3.747 0-3.556 6.35 0 6.35h2.222v2.73c0 4.128-1.333 6.097-4.064 6.097-2.794 0-4.127-1.969-4.127-6.096V17.44c0-2.92.571-4.445 1.46-5.207.699-.698 1.778-.825 2.667-.825.89 0 1.905.127 2.667.825.762.699 1.397 2.223 1.397 5.207v.89a2.276 2.276 0 002.286 2.285h1.842c1.206 0 2.222-1.016 2.222-2.286v-.889c0-8.064-3.429-12.319-10.414-12.319-6.985 0-10.477 4.255-10.477 12.32v18.097c0 8 3.492 12.382 10.477 12.382S37.2 43.603 37.2 35.54v-6.795c0-1.27-1.016-2.286-2.222-2.286zm30.48 19.685c.254.953 1.27 1.778 2.222 1.778h1.842c1.524 0 2.54-1.333 2.222-2.794L56.631 6.9c-.19-.952-1.27-1.778-2.222-1.778h-1.397c-.953 0-1.969.826-2.223 1.778L45.011 31.73 41.963 45.19c-.318 1.46.698 2.73 2.222 2.73h1.842c.952 0 1.968-.825 2.222-1.778l2.223-9.906h6.477zM53.71 19.791c1.207 5.397 1.08 7.112 1.778 10.16h-3.556zm26.988 6.667c-3.747 0-3.556 6.35 0 6.35h2.222v2.73c0 4.128-1.333 6.097-4.064 6.097-2.794 0-4.127-1.969-4.127-6.096V17.44c0-2.92.571-4.445 1.46-5.207.699-.698 1.778-.825 2.667-.825.89 0 1.905.127 2.667.825.762.699 1.397 2.223 1.397 5.207v.89a2.276 2.276 0 002.286 2.285h1.842c1.206 0 2.222-1.016 2.222-2.286v-.889c0-8.064-3.429-12.319-10.414-12.319-6.985 0-10.477 4.255-10.477 12.32v18.097c0 8 3.492 12.382 10.477 12.382S89.27 43.603 89.27 35.54v-6.795c0-1.27-1.016-2.286-2.222-2.286z"/></svg>