<svg width="15em" height="7.5em" viewBox="0 0 105.833 52.917" xmlns="http://www.w3.org/2000/svg"><path d="M38.566 43.92a2.276 2.276 0 00-2.286-2.285h-9.462V7.408c0-1.27-1.016-2.286-2.222-2.286h-1.842a2.276 2.276 0 00-2.286 2.286v38.227a2.276 2.276 0 002.286 2.286H36.28a2.276 2.276 0 002.286-2.286zm3.62-8.445c0 5.017 1.396 7.938 3.365 9.906 2.095 2.032 4.762 2.54 7.048 2.54 2.35 0 5.017-.508 7.112-2.54 1.969-1.968 3.302-4.89 3.302-9.906v-17.97c0-8.065-3.429-12.383-10.414-12.383-6.921 0-10.414 4.382-10.414 12.383zm6.35-17.97c0-4.128 1.27-6.096 4.063-6.096 2.73 0 4.064 1.841 4.064 6.096v17.97c0 4.318-1.397 6.16-4.064 6.16-2.73 0-4.064-1.969-4.064-6.16zM85.618 43.92a2.276 2.276 0 00-2.286-2.286h-9.461V7.408c0-1.27-1.016-2.286-2.223-2.286h-1.841a2.276 2.276 0 00-2.286 2.286v38.227a2.276 2.276 0 002.286 2.286h13.525a2.276 2.276 0 002.286-2.286z"/></svg>