<svg width="15em" height="7.5em" viewBox="0 0 105.833 52.917" xmlns="http://www.w3.org/2000/svg"><path d="M12.716 47.921c.952 0 1.968-.825 2.222-1.841l2.096-14.097v13.652a2.276 2.276 0 002.286 2.286h1.778a2.276 2.276 0 002.286-2.286V7.408a2.276 2.276 0 00-2.286-2.286h-1.905c-.953 0-2.032.826-2.223 1.778l-4.953 25.59L7.001 6.9c-.19-.952-1.207-1.778-2.16-1.778H2.938A2.276 2.276 0 00.65 7.408v38.227a2.276 2.276 0 002.286 2.286h1.778C5.92 47.921 7 46.905 7 45.635v-13.78L9.16 46.144c.19.953 1.206 1.778 2.159 1.778zm27.959-1.778c.254.953 1.27 1.778 2.222 1.778h1.842c1.524 0 2.54-1.333 2.222-2.794L38.198 6.9c-.19-.952-1.27-1.778-2.222-1.778h-1.397c-.953 0-1.969.826-2.223 1.778L26.578 31.73 23.53 45.19c-.318 1.46.698 2.73 2.222 2.73h1.842c.952 0 1.968-.825 2.222-1.778l2.223-9.906h6.477zm-5.398-26.352c1.207 5.397 1.08 7.112 1.778 10.16h-3.556zm6.622-10.668a2.276 2.276 0 002.286 2.286h5.144v34.163a2.276 2.276 0 002.286 2.286h1.714a2.276 2.276 0 002.286-2.286V11.409h5.207a2.276 2.276 0 002.286-2.286V7.345a2.276 2.276 0 00-2.286-2.286H44.185A2.276 2.276 0 0041.9 7.345zM68.461 23.41V7.408a2.276 2.276 0 00-2.286-2.286h-1.778a2.276 2.276 0 00-2.286 2.286v38.227a2.276 2.276 0 002.286 2.286h1.778a2.276 2.276 0 002.286-2.286V29.697h7.048v15.938a2.276 2.276 0 002.286 2.286h1.778a2.276 2.276 0 002.286-2.286V7.408a2.276 2.276 0 00-2.286-2.286h-1.778a2.276 2.276 0 00-2.286 2.286V23.41zM84.1 35.475c0 8.319 3.492 12.383 10.477 12.383 6.73 0 10.477-3.81 10.477-10.922 0-6.16-4.254-9.398-8.445-12.637h.063c-3.111-2.413-6.223-4.89-6.223-8.128 0-3.302 1.46-4.762 4.128-4.762 2.794 0 4.127 1.905 4.127 6.096v.889a2.276 2.276 0 002.286 2.286h1.778a2.276 2.276 0 002.286-2.286v-.89c0-8.064-3.62-12.445-10.477-12.445-6.731 0-10.478 4.127-10.478 11.303 0 6.286 4.382 9.715 8.573 13.017v-.063c3.111 2.413 6.032 4.762 6.032 7.747 0 3.365-1.46 4.508-4.127 4.508-.89 0-1.969-.127-2.667-.825-.89-.762-1.46-2.223-1.46-5.27v-.826c0-1.27-1.08-2.286-2.287-2.286h-1.778A2.276 2.276 0 0084.1 34.65z"/></svg>