<svg width="15em" height="7.5em" viewBox="0 0 105.833 52.917" xmlns="http://www.w3.org/2000/svg"><path d="M34.914 47.921a2.276 2.276 0 002.286-2.286V7.408a2.276 2.276 0 00-2.286-2.286h-1.778a2.276 2.276 0 00-2.286 2.286v20.955L22.024 6.52c-.254-.698-1.27-1.397-2.096-1.397h-1.524c-1.206 0-2.286 1.016-2.286 2.286v38.227c0 1.27 1.08 2.286 2.286 2.286h1.842c1.206 0 2.286-1.016 2.286-2.286V24.68l8.826 21.844c.254.699 1.334 1.397 2.096 1.397zm7.303-12.446c0 5.017 1.397 7.938 3.365 9.906 2.096 2.032 4.763 2.54 7.049 2.54 2.35 0 5.016-.508 7.112-2.54 1.968-1.968 3.302-4.89 3.302-9.906v-17.97c0-8.065-3.43-12.383-10.414-12.383-6.922 0-10.414 4.382-10.414 12.383zm6.35-17.97c0-4.128 1.27-6.096 4.064-6.096 2.73 0 4.064 1.841 4.064 6.096v17.97c0 4.318-1.397 6.16-4.064 6.16-2.73 0-4.064-1.969-4.064-6.16zM86.73 47.92a2.276 2.276 0 002.286-2.286V7.408a2.276 2.276 0 00-2.286-2.286h-1.778a2.276 2.276 0 00-2.286 2.286v20.955L73.84 6.52c-.254-.698-1.27-1.397-2.096-1.397H70.22c-1.206 0-2.286 1.016-2.286 2.286v38.227c0 1.27 1.08 2.286 2.286 2.286h1.842c1.206 0 2.286-1.016 2.286-2.286V24.68l8.826 21.844c.254.699 1.334 1.397 2.096 1.397z"/></svg>