<svg width="15em" height="7.5em" viewBox="0 0 105.833 52.917" xmlns="http://www.w3.org/2000/svg"><path d="M19.643 35.475c0 8.319 3.492 12.383 10.477 12.383 6.731 0 10.478-3.81 10.478-10.922 0-6.16-4.255-9.398-8.446-12.637h.064c-3.112-2.413-6.223-4.89-6.223-8.128 0-3.302 1.46-4.762 4.127-4.762 2.794 0 4.128 1.905 4.128 6.096v.889a2.276 2.276 0 002.286 2.286h1.778a2.276 2.276 0 002.286-2.286v-.89c0-8.064-3.62-12.445-10.478-12.445-6.73 0-10.477 4.127-10.477 11.303 0 6.286 4.381 9.715 8.572 13.017v-.063c3.112 2.413 6.033 4.762 6.033 7.747 0 3.365-1.46 4.508-4.128 4.508-.889 0-1.968-.127-2.667-.825-.889-.762-1.46-2.223-1.46-5.27v-.826c0-1.27-1.08-2.286-2.286-2.286h-1.778a2.276 2.276 0 00-2.286 2.286zM47.138 5.122a2.276 2.276 0 00-2.286 2.286v38.227a2.276 2.276 0 002.286 2.286h13.716a2.276 2.276 0 002.286-2.286v-1.714a2.276 2.276 0 00-2.286-2.286H51.14V29.633h8a2.276 2.276 0 002.287-2.286v-1.714a2.276 2.276 0 00-2.286-2.286h-8.001V11.409h9.715a2.276 2.276 0 002.286-2.286V7.408a2.276 2.276 0 00-2.286-2.286zM65.3 35.475c0 8.319 3.493 12.383 10.478 12.383 6.73 0 10.477-3.81 10.477-10.922 0-6.16-4.254-9.398-8.445-12.637h.063c-3.111-2.413-6.223-4.89-6.223-8.128 0-3.302 1.46-4.762 4.128-4.762 2.794 0 4.127 1.905 4.127 6.096v.889a2.276 2.276 0 002.286 2.286h1.778a2.276 2.276 0 002.286-2.286v-.89c0-8.064-3.62-12.445-10.477-12.445-6.731 0-10.478 4.127-10.478 11.303 0 6.286 4.382 9.715 8.573 13.017v-.063c3.111 2.413 6.032 4.762 6.032 7.747 0 3.365-1.46 4.508-4.127 4.508-.89 0-1.969-.127-2.667-.825-.89-.762-1.46-2.223-1.46-5.27v-.826c0-1.27-1.08-2.286-2.287-2.286h-1.778A2.276 2.276 0 0065.3 34.65z"/></svg>