<svg width="15em" height="7.5em" viewBox="0 0 105.833 52.917" xmlns="http://www.w3.org/2000/svg"><path d="M6.308 9.123a2.276 2.276 0 002.286 2.286h5.143v34.163a2.276 2.276 0 002.286 2.286h1.715a2.276 2.276 0 002.286-2.286V11.409h5.207a2.276 2.276 0 002.286-2.286V7.345a2.276 2.276 0 00-2.286-2.286H8.594a2.276 2.276 0 00-2.286 2.286zm36.004 37.02c.254.953 1.27 1.778 2.223 1.778h1.841c1.524 0 2.54-1.333 2.223-2.794L39.836 6.9c-.19-.952-1.27-1.778-2.223-1.778h-1.397c-.952 0-1.968.826-2.222 1.778L28.215 31.73 25.167 45.19c-.317 1.46.699 2.73 2.223 2.73h1.841c.953 0 1.969-.825 2.223-1.778l2.222-9.906h6.477zm-5.397-26.352c1.206 5.397 1.08 7.112 1.778 10.16h-3.556zM64.79 33.95l5.97 12.637c.317.698 1.333 1.333 2.095 1.333h1.968c1.842 0 2.794-1.65 2.032-3.238L68.22 26.522 76.73 8.36c.761-1.588-.255-3.239-2.033-3.239H72.73c-.762 0-1.778.635-2.032 1.334-1.969 4.19-4 8.382-5.97 12.573L58.696 6.456c-.254-.635-1.27-1.334-2.032-1.334h-1.968c-1.842 0-2.794 1.651-2.096 3.239l8.636 18.16L52.6 44.684c-.698 1.587.318 3.238 2.096 3.238h1.968c.762 0 1.778-.698 2.032-1.333zM83.397 5.122a2.276 2.276 0 00-2.286 2.286v38.227a2.276 2.276 0 002.286 2.286h13.716a2.276 2.276 0 002.286-2.286v-1.714a2.276 2.276 0 00-2.286-2.286h-9.716V29.633h8.001a2.276 2.276 0 002.286-2.286v-1.714a2.276 2.276 0 00-2.286-2.286h-8V11.409h9.715a2.276 2.276 0 002.286-2.286V7.408a2.276 2.276 0 00-2.286-2.286z"/></svg>