<svg width="15em" height="7.5em" viewBox="0 0 105.833 52.917" xmlns="http://www.w3.org/2000/svg"><path d="M4.18 9.123a2.276 2.276 0 002.286 2.286h5.144v34.163a2.276 2.276 0 002.286 2.286h1.714a2.276 2.276 0 002.286-2.286V11.409h5.207a2.276 2.276 0 002.286-2.286V7.345a2.276 2.276 0 00-2.286-2.286H6.466A2.276 2.276 0 004.18 7.345zm46.165 25.844c0-3.302-.89-5.905-2.73-7.874l.507-.508c1.969-1.968 2.667-5.143 2.667-9.08 0-8.51-2.73-12.446-10.54-12.446h-8.002a2.276 2.276 0 00-2.286 2.286v38.227a2.276 2.276 0 002.286 2.286h1.778c1.207 0 2.223-1.016 2.223-2.286V30.014h2.857c3.112 0 4.89 1.778 4.89 4.953v10.605a2.276 2.276 0 002.286 2.286h1.778a2.276 2.276 0 002.286-2.286zM36.248 11.41h4c3.302 0 4.255 1.778 4.255 6.096S42.66 23.6 39.105 23.6h-2.857zM55.17 35.475c0 5.017 1.397 7.938 3.365 9.906 2.096 2.032 4.763 2.54 7.049 2.54 2.35 0 5.016-.508 7.112-2.54 1.968-1.968 3.302-4.89 3.302-9.906v-17.97c0-8.065-3.43-12.383-10.414-12.383-6.922 0-10.414 4.382-10.414 12.383zm6.35-17.97c0-4.128 1.27-6.096 4.064-6.096 2.73 0 4.064 1.841 4.064 6.096v17.97c0 4.318-1.397 6.16-4.064 6.16-2.73 0-4.064-1.969-4.064-6.16zm28.638 12.128c7.747 0 11.176-4.064 11.176-12.255 0-8.192-3.429-12.256-11.176-12.256h-6.858a2.276 2.276 0 00-2.286 2.286v38.227a2.276 2.276 0 002.286 2.286h1.778c1.207 0 2.223-1.016 2.223-2.286V29.633zm0-18.224c3.43 0 4.826 1.714 4.826 5.969 0 4.127-1.397 5.969-4.826 5.969h-2.857V11.409z"/></svg>