<svg width="15em" height="7.5em" viewBox="0 0 105.833 52.917" xmlns="http://www.w3.org/2000/svg"><path d="M17.01 9.123a2.276 2.276 0 002.286 2.286h5.144v34.163a2.276 2.276 0 002.286 2.286h1.714a2.276 2.276 0 002.286-2.286V11.409h5.207a2.276 2.276 0 002.286-2.286V7.345a2.276 2.276 0 00-2.286-2.286H19.296a2.276 2.276 0 00-2.286 2.286zm25.273 27.114c0 6.731 2.794 11.62 10.414 11.62 7.366 0 10.414-4.508 10.414-11.62V7.345a2.276 2.276 0 00-2.286-2.286h-1.778c-1.206 0-2.222 1.016-2.222 2.286v28.892c0 3.048-.89 5.334-4.128 5.334-3.111 0-4.127-1.968-4.127-5.334V7.345a2.276 2.276 0 00-2.286-2.286h-1.778c-1.207 0-2.223 1.016-2.223 2.286zM67.614 9.123a2.276 2.276 0 002.286 2.286h5.144v34.163a2.276 2.276 0 002.286 2.286h1.714a2.276 2.276 0 002.286-2.286V11.409h5.207a2.276 2.276 0 002.286-2.286V7.345a2.276 2.276 0 00-2.286-2.286H69.9a2.276 2.276 0 00-2.286 2.286z"/><path d="M53.009 1.454c-.416-.07 0 50.886 0 50.886" fill="none" stroke="red" stroke-width="1.5" stroke-dasharray="6 1.5" class="correction"/></svg>