<svg width="15em" height="7.5em" viewBox="0 0 105.833 52.917" xmlns="http://www.w3.org/2000/svg"><path d="M18.531 6.837c-.254-.953-1.27-1.778-2.222-1.778h-1.778c-1.588 0-2.604 1.333-2.223 2.794l9.017 38.227c.191 1.016 1.207 1.778 2.223 1.778h1.333c.953 0 1.969-.762 2.223-1.778l9.017-38.227c.317-1.46-.699-2.794-2.223-2.794h-1.841c-.953 0-2.032.825-2.223 1.778L24.183 31.03zm27.305.571c0-1.27-1.08-2.286-2.286-2.286h-1.778a2.276 2.276 0 00-2.286 2.286v38.227a2.276 2.276 0 002.286 2.286h1.778c1.207 0 2.286-1.016 2.286-2.286zM49.9 9.123a2.276 2.276 0 002.286 2.286h5.144v34.163a2.276 2.276 0 002.286 2.286h1.714a2.276 2.276 0 002.286-2.286V11.409h5.207a2.276 2.276 0 002.286-2.286V7.345a2.276 2.276 0 00-2.286-2.286H52.186A2.276 2.276 0 0049.9 7.345zm27.94-4a2.276 2.276 0 00-2.286 2.285v38.227a2.276 2.276 0 002.286 2.286h13.716a2.276 2.276 0 002.286-2.286v-1.714a2.276 2.276 0 00-2.286-2.286h-9.715V29.633h8a2.276 2.276 0 002.287-2.286v-1.714a2.276 2.276 0 00-2.286-2.286H81.84V11.409h9.715a2.276 2.276 0 002.286-2.286V7.408a2.276 2.276 0 00-2.286-2.286z"/></svg>