<svg width="15em" height="7.5em" viewBox="0 0 105.833 52.917" xmlns="http://www.w3.org/2000/svg"><path d="M19.357 6.837c-.254-.953-1.27-1.778-2.223-1.778h-1.778c-1.587 0-2.603 1.333-2.222 2.794L22.15 46.08c.19 1.016 1.206 1.778 2.222 1.778h1.334c.952 0 1.968-.762 2.222-1.778l9.017-38.227c.318-1.46-.698-2.794-2.222-2.794h-1.842c-.952 0-2.032.825-2.222 1.778L25.008 31.03zm19.24 28.638c0 5.017 1.397 7.938 3.366 9.906 2.095 2.032 4.762 2.54 7.048 2.54 2.35 0 5.017-.508 7.112-2.54 1.969-1.968 3.302-4.89 3.302-9.906v-17.97c0-8.065-3.429-12.383-10.414-12.383-6.921 0-10.414 4.382-10.414 12.383zm6.35-17.97c0-4.128 1.27-6.096 4.064-6.096 2.73 0 4.064 1.841 4.064 6.096v17.97c0 4.318-1.397 6.16-4.064 6.16-2.73 0-4.064-1.969-4.064-6.16zM70.474 7.408c0-1.27-1.08-2.286-2.286-2.286H66.41a2.276 2.276 0 00-2.286 2.286v38.227a2.276 2.276 0 002.286 2.286h1.778c1.207 0 2.286-1.016 2.286-2.286zm6.54-2.286a2.276 2.276 0 00-2.285 2.286v38.227a2.276 2.276 0 002.286 2.286H90.73a2.276 2.276 0 002.286-2.286v-1.714a2.276 2.276 0 00-2.286-2.286h-9.716V29.633h8.001a2.276 2.276 0 002.286-2.286v-1.714a2.276 2.276 0 00-2.286-2.286h-8V11.409h9.715a2.276 2.276 0 002.286-2.286V7.408a2.276 2.276 0 00-2.286-2.286z"/></svg>