<svg width="20em" height="7.5em"  viewBox="0 0 105.833 39.687" xmlns="http://www.w3.org/2000/svg"><path d="M4.302 11.396zm17.095 23.94l-3.606-3.439v-8.213l3.606-3.273zm-.1-31.018v14.925l-3.606-3.239V7.757zm9.716 7.078zm17.096 23.94l-3.606-3.439v-8.213l3.606-3.273zm-.1-31.018v14.925l-3.607-3.239V7.757zm10.918 32.488l3.372-3.607h8.28l3.24 3.607zm15.926-1.47l-3.572-3.439v-8.213l3.572-3.273zM61.731 21.613q-1.135-.935-2.337-1.836l2.337-1.77h9.116l2.337 1.77-2.337 1.836zM58.827 2.882h14.958l-3.272 3.606h-8.247zm15.926 1.436v14.925l-3.572-3.239V7.757zm10.885 32.488l3.372-3.607h8.281l3.239 3.607zm15.927-1.47l-3.573-3.439v-8.213l3.573-3.273zM88.443 21.613q-1.135-.935-2.337-1.836l2.337-1.77h9.115l2.337 1.77-2.337 1.836zM85.538 2.882h14.958l-3.272 3.606h-8.247zm15.927 1.436v14.925l-3.573-3.239V7.757z"/><path d="M2.459 19.844h102.227" fill="none" stroke="red" stroke-width="2" stroke-dasharray="8 2" class="correction"/></svg>