<svg width="20em" height="7.5em"  viewBox="0 0 105.833 39.687" xmlns="http://www.w3.org/2000/svg"><path d="M17.658 11.396zm17.095 23.94l-3.606-3.439v-8.213l3.606-3.273zm-.1-31.018v14.925l-3.606-3.239V7.757zM45.47 36.806l3.439-3.607h8.247l3.239 3.607zM44.469 20.41l3.606 3.473v8.18l-3.606 3.272zm3.873 1.202q-1.168-.935-2.37-1.836l2.37-1.77h9.116l2.337 1.77-2.337 1.836zM45.437 2.882h14.925l-3.305 3.606h-8.18zm15.927 1.436v14.925l-3.606-3.239V7.757zm10.918 32.488l3.373-3.607h8.28l3.24 3.607zm15.927-1.47l-3.573-3.439v-8.213l3.573-3.273zM75.087 21.613q-1.135-.935-2.337-1.836l2.337-1.77h9.115l2.338 1.77-2.338 1.836zM72.182 2.882h14.959l-3.272 3.606H75.62zM88.11 4.318v14.925l-3.573-3.239V7.757z"/></svg>