<svg width="20em" height="7.5em"  viewBox="0 0 105.833 39.687" xmlns="http://www.w3.org/2000/svg"><path d="M4.302 11.396zm17.095 23.94l-3.606-3.439v-8.213l3.606-3.273zm-.1-31.018v14.925l-3.606-3.239V7.757zm10.818 32.488l3.44-3.607H43.8l3.24 3.607zM31.113 20.41l3.607 3.473v8.18l-3.607 3.272zM48.11 35.336l-3.606-3.439v-8.213l3.606-3.273zM34.987 21.613q-1.169-.935-2.371-1.836l2.37-1.77h9.116l2.337 1.77-2.337 1.836zM32.082 2.882h14.925L43.7 6.488h-8.18zm-1.069 16.36V4.319l3.606 3.238v8.281zM48.008 4.319v14.925l-3.606-3.239V7.757zm10.919 32.488l3.372-3.607h8.28l3.24 3.607zm15.926-1.47l-3.572-3.439v-8.213l3.572-3.273zM61.731 21.613q-1.135-.935-2.337-1.836l2.337-1.77h9.116l2.337 1.77-2.337 1.836zM58.827 2.882h14.958l-3.272 3.606h-8.247zm15.926 1.436v14.925l-3.572-3.239V7.757zm10.785 32.488l3.44-3.607h8.246l3.239 3.607zM84.536 20.41l3.606 3.473v8.18l-3.606 3.272zm16.995 14.925l-3.606-3.439v-8.213l3.606-3.273zM85.505 2.882h14.925l-3.306 3.606h-8.18zm-1.069 16.36V4.319l3.606 3.238v8.281zm16.995-14.924v14.925l-3.606-3.239V7.757z"/><path d="M2.459 19.844h102.227" fill="none" stroke="red" stroke-width="2" stroke-dasharray="8 2" class="correction"/></svg>