<svg width="20em" height="7.5em"  viewBox="0 0 105.833 39.687" xmlns="http://www.w3.org/2000/svg"><path d="M5.404 36.806l3.439-3.607h8.247l3.239 3.607zM4.402 20.41l3.606 3.473v8.18l-3.606 3.272zm3.873 1.202q-1.168-.935-2.37-1.836l2.37-1.77h9.115l2.338 1.77-2.338 1.836zM5.37 2.882h14.925L16.99 6.488H8.81zm15.927 1.436v14.925l-3.606-3.239V7.757zm9.716 7.078zm17.096 23.94l-3.606-3.439v-8.213l3.606-3.273zm-.1-31.018v14.925l-3.607-3.239V7.757zm9.716 7.078zm17.095 23.94l-3.606-3.439v-8.213l3.606-3.273zm-.1-31.018v14.925l-3.606-3.239V7.757zm10.818 32.488l3.44-3.607h8.246l3.239 3.607zm15.993-1.47l-3.606-3.439v-8.213l3.606-3.273zM88.41 21.613q-1.168-.935-2.37-1.836l2.37-1.77h9.116l2.337 1.77-2.337 1.836zM85.505 2.882h14.925l-3.306 3.606h-8.18zm-1.069 16.36V4.319l3.606 3.238v8.281z"/></svg>