<svg width="20em" height="7.5em"  viewBox="0 0 105.833 39.687" xmlns="http://www.w3.org/2000/svg"><path d="M32.115 36.806l3.44-3.607H43.8l3.24 3.607zM31.113 20.41l3.607 3.473v8.18l-3.607 3.272zm3.874 1.202q-1.169-.935-2.371-1.836l2.37-1.77h9.116l2.337 1.77-2.337 1.836zM32.082 2.882h14.925L43.7 6.488h-8.18zm15.926 1.436v14.925l-3.606-3.239V7.757zm10.819 32.488l3.439-3.607h8.247l3.239 3.607zM57.825 20.41l3.606 3.473v8.18l-3.606 3.272zm3.873 1.202q-1.169-.935-2.37-1.836l2.37-1.77h9.115l2.338 1.77-2.338 1.836zM58.793 2.882h14.925l-3.305 3.606h-8.18zM74.72 4.318v14.925l-3.606-3.239V7.757z"/></svg>
