<svg width="20em" height="7.5em"  viewBox="0 0 105.833 39.687" xmlns="http://www.w3.org/2000/svg"><path d="M34.753 35.336l-3.606-3.439v-8.213l3.606-3.273zM21.63 21.613q-1.169-.935-2.37-1.836l2.37-1.77h9.115l2.337 1.77-2.337 1.836zm-3.973-2.37V4.318l3.606 3.238v8.281zM34.653 4.318v14.925l-3.606-3.239V7.757zM45.47 36.806l3.439-3.607h8.247l3.239 3.607zM44.469 20.41l3.606 3.473v8.18l-3.606 3.272zm3.873 1.202q-1.168-.935-2.37-1.836l2.37-1.77h9.116l2.337 1.77-2.337 1.836zM45.437 2.882h14.925l-3.305 3.606h-8.18zm15.927 1.436v14.925l-3.606-3.239V7.757zm9.716 7.078zm17.096 23.94l-3.606-3.439v-8.213l3.606-3.273zm-.1-31.018v14.925l-3.606-3.239V7.757z"/></svg>