<svg width="20em" height="7.5em"  viewBox="0 0 105.833 39.687" xmlns="http://www.w3.org/2000/svg"><path d="M34.753 35.336l-3.606-3.439v-8.213l3.606-3.273zM21.63 21.613q-1.169-.935-2.37-1.836l2.37-1.77h9.115l2.337 1.77-2.337 1.836zm-3.973-2.37V4.318l3.606 3.238v8.281zM34.653 4.318v14.925l-3.606-3.239V7.757zM45.57 36.806l3.372-3.607h8.28l3.24 3.607zm15.927-1.47l-3.573-3.439v-8.213l3.573-3.273zM48.376 21.613q-1.136-.935-2.338-1.836l2.338-1.77h9.115l2.337 1.77-2.337 1.836zM45.47 2.882h14.958l-3.272 3.606H48.91zm15.927 1.436v14.925l-3.573-3.239V7.757zm26.778 31.018l-3.606-3.439v-8.213l3.606-3.273zM75.054 21.613q-1.169-.935-2.37-1.836l2.37-1.77h9.115l2.337 1.77-2.337 1.836zm-3.974-2.37V4.318l3.606 3.238v8.281zM88.076 4.318v14.925l-3.606-3.239V7.757z"/></svg>