<svg width="20em" height="7.5em" version="1.1" viewBox="0 0 105.83 39.687" xmlns="http://www.w3.org/2000/svg">
 <path d="m73.718 36.806-3.44-3.607h-8.245l-3.24 3.607zm1.002-16.396-3.607 3.473v8.18l3.607 3.272zm-3.874 1.202q1.169-0.935 2.371-1.836l-2.37-1.77h-9.116l-2.337 1.77 2.337 1.836zm2.905-18.73h-14.925l3.307 3.606h8.18zm-15.926 1.436v14.925l3.606-3.239v-8.247zm-10.819 32.488-3.439-3.607h-8.247l-3.239 3.607zm1.002-16.396-3.606 3.473v8.18l3.606 3.272zm-3.873 1.202q1.169-0.935 2.37-1.836l-2.37-1.77h-9.115l-2.338 1.77 2.338 1.836zm2.905-18.73h-14.925l3.305 3.606h8.18zm-15.927 1.436v14.925l3.606-3.239v-8.247z"/>
 <g transform="matrix(.39687 0 0 .39687 33.193 .039901)" fill="none" stroke="#00ff00" stroke-width="3.3333" class="correction">
  <path d="m42.626 42.525 14.141 14.141"/>
  <path d="m56.768 42.525-14.141 14.141"/>
 </g>
</svg>
