<svg width="20em" height="7.5em" version="1.1" viewBox="0 0 105.83 39.687" xmlns="http://www.w3.org/2000/svg">
 <path d="m5.404 36.853 3.439-3.607h8.247l3.239 3.607zm15.993-1.47-3.606-3.439v-8.213l3.606-3.273zm-13.122-13.723c-0.77867-0.62333-1.5687-1.2353-2.37-1.836l2.37-1.77h9.115l2.338 1.77-2.338 1.836zm-2.905-18.731h14.925l-3.305 3.606h-8.18zm-1.068 16.36v-14.923l3.606 3.238v8.281zm27.813 17.564 3.44-3.607h8.245l3.24 3.607zm15.994-1.47-3.606-3.439v-8.213l3.606-3.273zm-13.122-13.723c-0.77933-0.62333-1.5697-1.2353-2.371-1.836l2.37-1.77h9.116l2.337 1.77-2.337 1.836zm-2.905-18.731h14.925l-3.307 3.606h-8.18zm-1.069 16.36v-14.923l3.606 3.238v8.281z"/>
 <path d="m100.43 36.853-3.439-3.607h-8.247l-3.239 3.607zm1.002-16.396-3.606 3.473v8.18l3.606 3.272zm-3.873 1.202c0.77933-0.62333 1.5693-1.2353 2.37-1.836l-2.37-1.77h-9.115l-2.338 1.77 2.338 1.836zm2.905-18.73h-14.925l3.305 3.606h8.18zm-15.927 1.436v14.925l3.606-3.239v-8.247zm-10.818 32.488-3.44-3.607h-8.246l-3.239 3.607zm1.002-16.396-3.606 3.473v8.18l3.606 3.272zm-3.873 1.202c0.77867-0.62333 1.5687-1.2353 2.37-1.836l-2.37-1.77h-9.116l-2.337 1.77 2.337 1.836zm2.904-18.73h-14.925l3.306 3.606h8.18zm-15.926 1.436v14.925l3.606-3.239v-8.247z"/>
 <g transform="matrix(.39687 0 0 .39687 33.194 .039713)" fill="none" stroke="#00ff00" stroke-width="3.3333" class="correction">
  <path d="m42.626 42.525 14.141 14.141"/>
  <path d="m56.768 42.525-14.141 14.141"/>
 </g>
</svg>
