<svg width="20em" height="7.5em" version="1.1" viewBox="0 0 105.83 39.687" xmlns="http://www.w3.org/2000/svg">
 <path d="m45.326 37.131 3.5052-3.675h8.4057l3.3012 3.675zm16.301-1.4974-3.6754-3.5052v-8.3716l3.675-3.3349zm-13.375-13.986q-1.1906-0.95288-2.4161-1.8716l2.4161-1.8038h9.2907l2.382 1.8038-2.382 1.8716zm-2.9606-19.091h15.212l-3.3694 3.675h-8.337zm-1.089 16.675v-15.212l3.6754 3.3012v8.4394z" stroke-width=".39687"/>
 <path d="m18.76 36.806 3.439-3.607h8.247l3.238 3.607zm15.993-1.47-3.606-3.439v-8.213l3.606-3.273zm-13.123-13.723c-0.77933-0.62333-1.5693-1.2353-2.37-1.836l2.37-1.77h9.115l2.337 1.77-2.337 1.836zm-2.904-18.731h14.925l-3.305 3.606h-8.18zm-1.068 16.36v-14.923l3.606 3.238v8.281zm54.524 17.565 3.44-3.607h8.247l3.238 3.607zm15.994-1.47-3.606-3.439v-8.213l3.606-3.273zm-13.122-13.724c-0.77933-0.62333-1.5693-1.2353-2.37-1.836l2.37-1.77h9.115l2.337 1.77-2.337 1.836zm-2.905-18.731h14.925l-3.306 3.606h-8.18zm-1.069 16.36v-14.923l3.606 3.238v8.281z"/>
 <g transform="matrix(.39687 0 0 .39687 33.193 .039901)" fill="none" stroke="#00ff00" stroke-width="3.3333" class="correction">
  <path d="m42.626 42.525 14.141 14.141"/>
  <path d="m56.768 42.525-14.141 14.141"/>
 </g>
</svg>
