<svg width="20em" height="7.5em"  viewBox="0 0 105.833 39.687" xmlns="http://www.w3.org/2000/svg"><path d="M18.76 36.806l3.439-3.607h8.247l3.238 3.607zm15.993-1.47l-3.606-3.439v-8.213l3.606-3.273zM21.63 21.613q-1.169-.935-2.37-1.836l2.37-1.77h9.115l2.337 1.77-2.337 1.836zM18.726 2.882h14.925l-3.305 3.606h-8.18zm-1.068 16.36V4.319l3.606 3.238v8.281zm43.94 16.094l-3.573-3.439v-8.213l3.573-3.273zM45.57 2.882h14.958l-3.272 3.606H49.01zm15.927 1.436v14.925l-3.573-3.239V7.757zm10.684 32.488l3.44-3.607h8.247l3.238 3.607zM71.181 20.41l3.606 3.473v8.18l-3.606 3.272zm3.873 1.202q-1.169-.935-2.37-1.836l2.37-1.77h9.115l2.337 1.77-2.337 1.836zM72.149 2.882h14.925l-3.306 3.606h-8.18zm15.927 1.436v14.925l-3.606-3.239V7.757z"/></svg>