<svg width="20em" height="7.5em"  viewBox="0 0 105.833 39.687" xmlns="http://www.w3.org/2000/svg"><path d="M18.76 36.806l3.439-3.607h8.247l3.238 3.607zM17.757 20.41l3.606 3.473v8.18l-3.606 3.272zm16.995 14.925l-3.606-3.439v-8.213l3.606-3.273zM21.63 21.613q-1.169-.935-2.37-1.836l2.37-1.77h9.115l2.337 1.77-2.337 1.836zM18.726 2.882h14.925l-3.305 3.606h-8.18zm-1.068 16.36V4.319l3.606 3.238v8.281zM45.47 36.807l3.439-3.607h8.247l3.239 3.607zM44.469 20.41l3.606 3.473v8.18l-3.606 3.272zm16.995 14.925l-3.606-3.439v-8.213l3.606-3.273zM48.342 21.613q-1.168-.935-2.37-1.836l2.37-1.77h9.116l2.337 1.77-2.337 1.836zM45.437 2.882h14.925l-3.305 3.606h-8.18zm-1.068 16.36V4.319l3.606 3.238v8.281zM61.364 4.319v14.925l-3.606-3.239V7.757zm26.812 31.018l-3.606-3.439v-8.213l3.606-3.273zM75.054 21.613q-1.169-.935-2.37-1.836l2.37-1.77h9.115l2.337 1.77-2.337 1.836zM72.149 2.882h14.925l-3.306 3.606h-8.18zm-1.069 16.36V4.319l3.606 3.238v8.281zM88.076 4.319v14.925l-3.606-3.239V7.757z"/></svg>