<svg width="7.5em" height="7.5em" viewBox="0 0 100 100" xmlns="http://www.w3.org/2000/svg"><path d="M30.878 93.56l8.832-9.26h21.18l8.318 9.26zm-2.572-42.102l9.26 8.918v21.008l-9.26 8.403zm43.646 38.33l-9.261-8.833V59.861l9.26-8.403zm-33.7-35.243q-3-2.401-6.088-4.716l6.088-4.545h23.41l6.002 4.545-6.002 4.716zM30.792 6.44h38.33l-8.49 9.26H39.625zm-2.744 42.017v-38.33l9.261 8.318V39.71zm43.646-38.33v38.33l-9.26-8.318v-21.18z"/><path d="M100.024 50H-.024M50 100.024V-.024" fill="none" stroke="red" stroke-width="2" stroke-dasharray="8 2" class="_correction"/></svg>