<svg width="20em" height="7.5em" version="1.1" viewBox="0 0 105.83 39.687" xmlns="http://www.w3.org/2000/svg">
 <path d="m45.327 37.131 3.5052-3.6751h8.4058l3.3012 3.6751zm-1.0208-16.709 3.6751 3.5393v8.3375l-3.6751 3.3349zm3.9473 1.2251q-1.1906-0.95289-2.4162-1.8717l2.4162-1.8038h9.2908l2.382 1.8038-2.382 1.8717zm-2.9607-19.092h15.212l-3.3695 3.6751h-8.3371zm16.233 1.4633v15.212l-3.6751-3.3012v-8.4058z" stroke-width=".39687"/>
 <path d="m18.76 36.806 3.439-3.607h8.247l3.238 3.607zm-1.003-16.396 3.606 3.473v8.18l-3.606 3.272zm16.995 14.925-3.606-3.439v-8.213l3.606-3.273zm-13.122-13.722c-0.77933-0.62333-1.5693-1.2353-2.37-1.836l2.37-1.77h9.115l2.337 1.77-2.337 1.836zm-2.904-18.731h14.925l-3.305 3.606h-8.18zm-1.068 16.36v-14.923l3.606 3.238v8.281zm16.995-14.923v14.925l-3.606-3.239v-8.248zm37.529 32.488 3.44-3.607h8.247l3.238 3.607zm-1.001-16.397 3.606 3.473v8.18l-3.606 3.272zm16.995 14.925-3.606-3.439v-8.213l3.606-3.273zm-13.122-13.722c-0.77933-0.62333-1.5693-1.2353-2.37-1.836l2.37-1.77h9.115l2.337 1.77-2.337 1.836zm-2.905-18.731h14.925l-3.306 3.606h-8.18zm-1.069 16.36v-14.923l3.606 3.238v8.281zm16.996-14.923v14.925l-3.606-3.239v-8.248z"/>
 <g transform="matrix(.39687 0 0 .39687 33.193 .039901)" fill="none" stroke="#00ff00" stroke-width="3.3333" class="correction">
  <path d="m42.626 42.525 14.141 14.141"/>
  <path d="m56.768 42.525-14.141 14.141"/>
 </g>
</svg>
