<?xml version="1.0" encoding="UTF-8" standalone="no"?>
<svg
   width="300"
   height="180"
   viewBox="0 0 79.35 47.7"
   version="1.1"
   id="svg12"
   sodipodi:docname="CarreCote3.svg"
   inkscape:version="1.1.2 (b8e25be833, 2022-02-05)"
   xmlns:inkscape="http://www.inkscape.org/namespaces/inkscape"
   xmlns:sodipodi="http://sodipodi.sourceforge.net/DTD/sodipodi-0.dtd"
   xmlns="http://www.w3.org/2000/svg"
   xmlns:svg="http://www.w3.org/2000/svg">
  <defs
     id="defs16" />
  <sodipodi:namedview
     id="namedview14"
     pagecolor="#ffffff"
     bordercolor="#666666"
     borderopacity="1.0"
     inkscape:pageshadow="2"
     inkscape:pageopacity="0.0"
     inkscape:pagecheckerboard="0"
     showgrid="false"
     inkscape:zoom="7.525"
     inkscape:cx="150.299"
     inkscape:cy="71.295681"
     inkscape:window-width="3840"
     inkscape:window-height="2054"
     inkscape:window-x="-11"
     inkscape:window-y="-11"
     inkscape:window-maximized="1"
     inkscape:current-layer="svg12" />
  <path
     fill="none"
     stroke="#000000"
     stroke-width="0.265"
     stroke-linecap="round"
     stroke-linejoin="round"
     d="M 30.272198,1.7940279 50.908188,24.105997 28.596219,44.741987 7.9602288,22.430018 Z"
     id="path2"
     style="stroke-width:0.70666667;stroke-miterlimit:4;stroke-dasharray:none" />
  <path
     fill="none"
     stroke="#000000"
     stroke-width="0.265"
     stroke-linecap="round"
     stroke-linejoin="round"
     d="M 9.4871225,21.017403 10.899736,22.544297 9.3728427,23.95691 7.9588818,22.429265 Z m 40.0092035,1.560354 1.411109,1.529587 -1.526894,1.412613 -1.411862,-1.528241 z m -20.785828,19.224721 1.412614,1.526894 -1.527646,1.413961 -1.413209,-1.528993 z m 1.5617,-40.0084501 1.413961,1.5276454 -1.528242,1.411862 -1.412613,-1.5268937 z"
     id="path4"
     style="stroke-width:0.70666667;stroke-miterlimit:4;stroke-dasharray:none" />
  <text
     style="line-height:1.25;-inkscape-font-specification:Arial"
     x="45.44656"
     y="11.203594"
     font-size="4.24px"
     font-family="Arial"
     letter-spacing="0"
     word-spacing="0"
     stroke-width="0.265"
     id="text8"><tspan
       x="45.44656"
       y="11.203594"
       id="tspan6">$cote</tspan></text>
  <path
     d="m 41.92443,12.053495 -4.058409,0.693961 m 5.168916,0.627214 -4.057063,0.694713 m -19.49153,17.839518 -4.057063,0.694715 m 5.168916,0.627213 -4.058411,0.693962 m 5.528686,-22.389196 -3.909611,-1.288191 m 2.889195,2.603664 -3.910362,-1.286845 m 25.965453,21.990004 -3.909611,-1.288191 m 2.889196,2.603663 -3.910363,-1.286844"
     fill="none"
     stroke="#000000"
     stroke-width="0.265"
     id="path10"
     style="stroke-width:0.70666667;stroke-miterlimit:4;stroke-dasharray:none" />
</svg>
