<?xml version="1.0" encoding="UTF-8" standalone="no"?>
<svg
   viewBox="0 0 200 200"
   width="9em"
   height="9em"
   version="1.0"
   id="svg167"
   sodipodi:docname="horloge simple.svg"
   inkscape:version="1.1.2 (b8e25be833, 2022-02-05)"
   xmlns:inkscape="http://www.inkscape.org/namespaces/inkscape"
   xmlns:sodipodi="http://sodipodi.sourceforge.net/DTD/sodipodi-0.dtd"
   xmlns:xlink="http://www.w3.org/1999/xlink"
   xmlns="http://www.w3.org/2000/svg"
   xmlns:svg="http://www.w3.org/2000/svg">
  <sodipodi:namedview
     id="namedview169"
     pagecolor="#ffffff"
     bordercolor="#666666"
     borderopacity="1.0"
     inkscape:pageshadow="2"
     inkscape:pageopacity="0.0"
     inkscape:pagecheckerboard="0"
     showgrid="false"
     inkscape:zoom="12.23"
     inkscape:cx="110.3843"
     inkscape:cy="76.083402"
     inkscape:window-width="3840"
     inkscape:window-height="2054"
     inkscape:window-x="-11"
     inkscape:window-y="-11"
     inkscape:window-maximized="1"
     inkscape:current-layer="svg167" />
  <defs
     id="defs33">
    <linearGradient
       id="prefix__a">
      <stop
         offset="0"
         id="stop2" />
      <stop
         offset=".86"
         stop-opacity=".498"
         id="stop4" />
      <stop
         offset="1"
         stop-opacity="0"
         id="stop6" />
    </linearGradient>
    <linearGradient
       id="prefix__d"
       y2="58.065"
       gradientUnits="userSpaceOnUse"
       x2="-65.777"
       y1="57.046"
       x1="-66.487">
      <stop
         offset="0"
         stop-color="#c00"
         id="stop9" />
      <stop
         offset="1"
         stop-color="#c00"
         stop-opacity="0"
         id="stop11" />
    </linearGradient>
    <linearGradient
       id="prefix__e"
       y2="57.819"
       gradientUnits="userSpaceOnUse"
       x2="-65.842"
       gradientTransform="rotate(65.712 -4.994 452.027) scale(3.2043)"
       y1="58.346"
       x1="-65.233">
      <stop
         offset="0"
         stop-color="#fff"
         id="stop14" />
      <stop
         offset="1"
         stop-color="#c00"
         stop-opacity="0"
         id="stop16" />
    </linearGradient>
    <linearGradient
       id="prefix__g"
       y2="57.841"
       gradientUnits="userSpaceOnUse"
       x2="-65.895"
       y1="59.091"
       x1="-65.303">
      <stop
         offset="0"
         stop-color="#fff"
         id="stop19" />
      <stop
         offset="1"
         stop-color="#fff"
         stop-opacity="0"
         id="stop21" />
    </linearGradient>
    <radialGradient
       id="prefix__c"
       xlink:href="#prefix__a"
       gradientUnits="userSpaceOnUse"
       cy="355.35"
       cx="416.92"
       r="51.221" />
    <radialGradient
       id="prefix__b"
       xlink:href="#prefix__a"
       gradientUnits="userSpaceOnUse"
       cy="355.35"
       cx="416.92"
       r="50.971" />
    <radialGradient
       id="prefix__f"
       gradientUnits="userSpaceOnUse"
       cy="321.17"
       cx="218.8"
       gradientTransform="matrix(1.2471 0 0 1.296 -222.87 -366.23)"
       r="49.922">
      <stop
         offset="0"
         id="stop26" />
      <stop
         offset=".7"
         stop-color="#fff"
         id="stop28" />
      <stop
         offset="1"
         id="stop30" />
    </radialGradient>
  </defs>
  <path
     d="M467.89 355.35a50.971 50.971 0 11-101.94 0 50.971 50.971 0 11101.94 0z"
     transform="translate(-713.969 -593.76) scale(1.9523)"
     opacity=".75"
     stroke-linejoin="round"
     fill-rule="evenodd"
     stroke="url(#prefix__b)"
     stroke-linecap="round"
     stroke-miterlimit=".1"
     stroke-width=".5"
     fill="url(#prefix__c)"
     id="path35" />
  <path
     d="M189.004 97.632a92.237 92.237 0 11-184.466 0 92.237 92.237 0 11184.466 0z"
     fill-rule="evenodd"
     fill="#fff"
     id="path37" />
  <g
     fill-rule="evenodd"
     id="g139">
    <path
       d="M94.43 20.242h6.352v22.54H94.43zM94.43 152.429h6.352v22.54H94.43z"
       id="path137" />
  </g>
  <g
     fill-rule="evenodd"
     id="g143">
    <path
       d="M174.971 94.43v6.351h-22.54v-6.352zM42.784 94.43v6.351h-22.54v-6.352z"
       id="path141" />
  </g>
  <path
     d="M-9.54 0l40.969 1.69"
     fill-rule="evenodd"
     stroke="#282d30"
     stroke-linecap="square"
     stroke-opacity=".114"
     transform="matrix(-.3199 -1.907 7.5264 -1.2624 95.291 90.718)"
     fill-opacity=".123"
     id="path145" />
  <path
     d="M -9.54,0 31.429,1.69"
     fill-rule="evenodd"
     stroke="#282d30"
     stroke-linecap="square"
     transform="matrix(-0.3199,-1.907,7.5264,-1.2624,94.654,89.956)"
     id="path147"
     inkscape:transform-center-x="-0.081766149"
     inkscape:transform-center-y="-29.844644" />
  <g
     stroke="#000000"
     stroke-linecap="square"
     stroke-miterlimit="0"
     stroke-width="3.867"
     fill="none"
     id="g153"
     inkscape:transform-center-x="9.730146"
     inkscape:transform-center-y="-6.6230838">
    <path
       d="m 70.181,78.42 35.03,26.51"
       stroke-opacity="0.106"
       id="path149" />
    <path
       d="m 70.281,77.59 35.04,26.51"
       id="path151" />
  </g>
  <path
     transform="rotate(65.714 21.164 452.113) scale(4.1007)"
     d="M-65.284 57.772a.643.64 0 110-.003l-.643.003z"
     fill-rule="evenodd"
     fill="url(#prefix__d)"
     id="path157" />
  <path
     d="M155.75 153.23c.57 1.25.22 2.73-1.03 3.29-1.24.56-2.82.12-3.48-1.23-.59-1.24.71-4.41.95-3.36"
     fill-rule="evenodd"
     fill="url(#prefix__e)"
     transform="translate(-56.249 -56.25)"
     id="path159" />
  <path
     d="M48.703.33C21.874 1.012.328 22.996.328 49.988c0 27.42 22.236 49.687 49.656 49.687s49.688-22.267 49.688-49.687S77.404.33 49.984.33C49.556.33 49.129.319 48.703.33zm.469 7.47c.272-.006.539 0 .812 0 23.293 0 42.219 18.894 42.219 42.187 0 23.292-18.926 42.22-42.219 42.22-23.292 0-42.187-18.928-42.187-42.22 0-23.02 18.459-41.752 41.375-42.188z"
     stroke-linejoin="round"
     fill-rule="evenodd"
     stroke="#d2d2d2"
     stroke-linecap="round"
     stroke-miterlimit=".1"
     stroke-width=".5"
     fill="url(#prefix__f)"
     transform="translate(.926 .925) scale(1.9336)"
     id="path161" />
  <path
     fill-rule="evenodd"
     d="M138.532 163.463l-3.932 2.316-8.218-13.952 3.932-2.316zM68.975 43.474l-4.014 2.364-8.39-14.245 4.014-2.365zM134.76 28.926l3.922 2.332-8.277 13.918-3.922-2.332zM65.159 149.16l4.004 2.38-8.45 14.211-4.004-2.381zM163.072 56.416l2.324 3.927-13.936 8.246-2.324-3.927zM43.637 126.122l2.373 4.01-14.23 8.42-2.372-4.01zM166.056 134.21l-2.251 3.97-14.086-7.99 2.251-3.969zM45.778 64.628l-2.299 4.052-14.38-8.156 2.298-4.053zM97.896 98.935a1.144 1.14 65.714 11.06-.03"
     id="path163" />
  <path
     transform="rotate(65.714 -7.498 257.34) scale(1.66363)"
     d="M-65.284 57.772a.643.64 0 11-.001-.038"
     fill-rule="evenodd"
     fill="url(#prefix__g)"
     id="path165" />
</svg>
